<svg width="24" height="25" viewBox="0 0 24 25" fill="none" xmlns="http://www.w3.org/2000/svg">
<g clip-path="url(#clip0_395_14915)">
<path d="M6 1.63428H19.9999C21.1045 1.63428 21.9999 2.52971 21.9999 3.63428V21.6342C21.9999 22.7388 21.1045 23.6342 19.9999 23.6342H6V1.63428Z" stroke="#767676" stroke-width="2" stroke-linejoin="round"/>
<path d="M2 4.63428C2 2.97742 3.34315 1.63428 5 1.63428H5.99999V23.6342H5C3.34315 23.6342 2 22.2911 2 20.6342V4.63428Z" stroke="#767676" stroke-width="2" stroke-linejoin="round"/>
<path d="M14.0007 8.97021L14.0008 8.22021H14.0007V8.97021ZM15.7419 9.979L15.092 10.3533C15.2837 10.6861 15.6958 10.8203 16.0467 10.6643L15.7419 9.979ZM16.5574 9.80518L16.5574 9.05518H16.5574V9.80518ZM18.5671 11.8149H19.3171V11.8148L18.5671 11.8149ZM16.9451 13.7866L16.8011 13.0506C16.4491 13.1194 16.1951 13.4279 16.1951 13.7866H16.9451ZM16.9451 15.2983L17.6951 15.2985V15.2983H16.9451ZM15.9451 16.2983V17.0483H15.9454L15.9451 16.2983ZM11.0564 15.2983H10.3064V15.2985L11.0564 15.2983ZM11.0564 13.7866H11.8064C11.8064 13.4278 11.5523 13.1193 11.2002 13.0505L11.0564 13.7866ZM9.43335 11.8149L8.68335 11.8148V11.8149H9.43335ZM11.4441 9.80518L11.4442 9.05518H11.4441V9.80518ZM12.2585 9.979L11.954 10.6644C12.3049 10.8203 12.7169 10.686 12.9085 10.3532L12.2585 9.979ZM14.0007 8.97021L14.0007 9.72021C14.4658 9.72025 14.8728 9.97276 15.092 10.3533L15.7419 9.979L16.3918 9.60467C15.917 8.78022 15.0261 8.2203 14.0008 8.22021L14.0007 8.97021ZM15.7419 9.979L16.0467 10.6643C16.2043 10.5942 16.3764 10.5552 16.5574 10.5552V9.80518V9.05518C16.1574 9.05518 15.7782 9.14206 15.4372 9.29371L15.7419 9.979ZM16.5574 9.80518L16.5573 10.5552C17.253 10.5552 17.817 11.1192 17.8171 11.8151L18.5671 11.8149L19.3171 11.8148C19.3169 10.2909 18.0816 9.05523 16.5574 9.05518L16.5574 9.80518ZM18.5671 11.8149H17.8171C17.8171 12.4263 17.3807 12.9372 16.8011 13.0506L16.9451 13.7866L17.089 14.5227C18.3583 14.2744 19.3171 13.1583 19.3171 11.8149H18.5671ZM16.9451 13.7866H16.1951V15.2983H16.9451H17.6951V13.7866H16.9451ZM16.9451 15.2983L16.1951 15.2982C16.195 15.436 16.0829 15.5483 15.9448 15.5483L15.9451 16.2983L15.9454 17.0483C16.9113 17.048 17.6948 16.2647 17.6951 15.2985L16.9451 15.2983ZM15.9451 16.2983V15.5483H12.0564V16.2983V17.0483H15.9451V16.2983ZM12.0564 16.2983V15.5483C11.9186 15.5483 11.8064 15.4364 11.8064 15.2982L11.0564 15.2983L10.3064 15.2985C10.3066 16.2646 11.0898 17.0483 12.0564 17.0483V16.2983ZM11.0564 15.2983H11.8064V13.7866H11.0564H10.3064V15.2983H11.0564ZM11.0564 13.7866L11.2002 13.0505C10.6202 12.9372 10.1833 12.4261 10.1833 11.8149H9.43335H8.68335C8.68335 13.1588 9.64338 14.2748 10.9126 14.5227L11.0564 13.7866ZM9.43335 11.8149L10.1833 11.8151C10.1835 11.1196 10.748 10.5552 11.4441 10.5552V9.80518V9.05518C9.92028 9.05518 8.68361 10.2905 8.68335 11.8148L9.43335 11.8149ZM11.4441 9.80518L11.4439 10.5552C11.6243 10.5552 11.7961 10.5942 11.954 10.6644L12.2585 9.979L12.5631 9.29364C12.2228 9.14239 11.8442 9.05525 11.4442 9.05518L11.4441 9.80518ZM12.2585 9.979L12.9085 10.3532C13.1275 9.97295 13.535 9.72021 14.0007 9.72021V8.97021V8.22021C12.9756 8.22021 12.0837 8.77964 11.6086 9.60477L12.2585 9.979Z" fill="#767676"/>
<line x1="13.2629" y1="13.8237" x2="13.2629" y2="14.3112" stroke="#767676" stroke-linecap="round"/>
<line x1="14.9468" y1="13.8237" x2="14.9468" y2="14.3112" stroke="#767676" stroke-linecap="round"/>
</g>
<defs>
<clipPath id="clip0_395_14915">
<rect width="24" height="24" fill="white" transform="translate(0 0.634277)"/>
</clipPath>
</defs>
</svg>
