<svg width="29" height="25" viewBox="0 0 29 25" fill="none" xmlns="http://www.w3.org/2000/svg">
<ellipse cx="1.1762" cy="1.17635" rx="1.1762" ry="1.17635" transform="matrix(-1 0 0 1 24.1045 8.76491)" fill="#767676"/>
<ellipse cx="14.6945" cy="14.6467" rx="4.7048" ry="4.70541" stroke="#767676" stroke-width="2" stroke-linecap="round" stroke-linejoin="round"/>
<path d="M17.9773 1.89558L18.0675 0.899652C18.0529 0.898338 18.0384 0.897341 18.0238 0.896663L17.9773 1.89558ZM20.6638 4.38972L21.6503 4.22578L21.6502 4.22523L20.6638 4.38972ZM20.8337 5.41218L19.8473 5.57612C19.9274 6.05852 20.3447 6.41218 20.8337 6.41218V5.41218ZM24.4568 5.41218L24.4569 4.41218H24.4568V5.41218ZM27.4568 8.41218L28.4568 8.41218L28.4568 8.41218L27.4568 8.41218ZM24.4568 23.8809L24.4568 24.8809L24.4569 24.8809L24.4568 23.8809ZM4.93237 23.8809L4.93227 24.8809H4.93237V23.8809ZM1.93237 8.41218L0.932373 8.41218V8.41218H1.93237ZM4.93237 5.41218L4.93237 4.41218L4.93227 4.41218L4.93237 5.41218ZM8.55444 5.41218V6.41218C9.04346 6.41218 9.46074 6.05852 9.54091 5.57612L8.55444 5.41218ZM8.72437 4.38972L7.73798 4.22528L7.7379 4.22578L8.72437 4.38972ZM11.6833 1.88288L11.6833 0.882884L11.6831 0.882884L11.6833 1.88288ZM17.7048 1.88288L17.7514 0.883967C17.7359 0.883245 17.7204 0.882884 17.7048 0.882884V1.88288ZM17.9773 1.89558L17.8871 2.89151C18.7842 2.97272 19.5268 3.65064 19.6774 4.55421L20.6638 4.38972L21.6502 4.22523C21.3486 2.41701 19.8634 1.06225 18.0675 0.899652L17.9773 1.89558ZM20.6638 4.38972L19.6773 4.55366L19.8473 5.57612L20.8337 5.41218L21.8202 5.24824L21.6503 4.22578L20.6638 4.38972ZM20.8337 5.41218V6.41218H24.4568V5.41218V4.41218H20.8337V5.41218ZM24.4568 5.41218L24.4567 6.41218C25.5613 6.41233 26.4568 7.30789 26.4568 8.41219L27.4568 8.41218L28.4568 8.41218C28.4568 6.20306 26.6656 4.41248 24.4569 4.41218L24.4568 5.41218ZM27.4568 8.41218H26.4568V20.8809H27.4568H28.4568V8.41218H27.4568ZM27.4568 20.8809H26.4568C26.4568 21.9852 25.5613 22.8808 24.4567 22.8809L24.4568 23.8809L24.4569 24.8809C26.6656 24.8806 28.4568 23.0901 28.4568 20.8809H27.4568ZM24.4568 23.8809V22.8809H4.93237V23.8809V24.8809H24.4568V23.8809ZM4.93237 23.8809L4.93248 22.8809C3.82787 22.8808 2.93237 21.9853 2.93237 20.8809H1.93237H0.932373C0.932373 23.0901 2.72347 24.8807 4.93227 24.8809L4.93237 23.8809ZM1.93237 20.8809H2.93237V8.41218H1.93237H0.932373V20.8809H1.93237ZM1.93237 8.41218L2.93237 8.41219C2.93238 7.30783 3.82788 6.4123 4.93248 6.41218L4.93237 5.41218L4.93227 4.41218C2.72347 4.41242 0.932384 6.20305 0.932373 8.41218L1.93237 8.41218ZM4.93237 5.41218V6.41218H8.55444V5.41218V4.41218H4.93237V5.41218ZM8.55444 5.41218L9.54091 5.57612L9.71084 4.55366L8.72437 4.38972L7.7379 4.22578L7.56797 5.24824L8.55444 5.41218ZM8.72437 4.38972L9.71075 4.55416C9.87147 3.59013 10.706 2.88311 11.6836 2.88288L11.6833 1.88288L11.6831 0.882884C9.72836 0.883341 8.05948 2.29679 7.73798 4.22528L8.72437 4.38972ZM11.6833 1.88288V2.88288H17.7048V1.88288V0.882884H11.6833V1.88288ZM17.7048 1.88288L17.6583 2.8818L17.9308 2.8945L17.9773 1.89558L18.0238 0.896663L17.7514 0.883967L17.7048 1.88288Z" fill="#767676"/>
</svg>
