<svg width="15" height="15" viewBox="0 0 15 15" fill="none" xmlns="http://www.w3.org/2000/svg">
<mask id="path-1-inside-1_352_4291" fill="white">
<path d="M12.3496 0.782959C13.3169 0.782959 14.1016 1.56761 14.1016 2.53491V10.8933C14.1013 11.8604 13.3168 12.6453 12.3496 12.6453H9.94727L8.61621 14.5349C8.50688 14.6902 8.32856 14.7829 8.13867 14.783C7.94881 14.7829 7.77045 14.6902 7.66113 14.5349L6.33008 12.6453H1.85352C0.886367 12.6453 0.101805 11.8604 0.101562 10.8933V2.53491C0.101562 1.56761 0.886217 0.782968 1.85352 0.782959H12.3496Z"/>
</mask>
<path d="M14.1016 10.8933L15.2692 10.8936V10.8933H14.1016ZM9.94727 12.6453V11.4776C9.56746 11.4776 9.21139 11.6623 8.99267 11.9729L9.94727 12.6453ZM8.61621 14.5349L7.66162 13.8625L7.66153 13.8626L8.61621 14.5349ZM8.13867 14.783L8.13832 15.9506H8.13887L8.13867 14.783ZM7.66113 14.5349L8.61581 13.8626L8.61573 13.8625L7.66113 14.5349ZM6.33008 12.6453L7.28467 11.9729C7.06595 11.6623 6.70988 11.4776 6.33008 11.4776V12.6453ZM1.85352 12.6453L1.8535 13.8129H1.85352V12.6453ZM0.101562 10.8933H-1.06608V10.8936L0.101562 10.8933ZM1.85352 0.782959V-0.384682H1.8535L1.85352 0.782959ZM12.3496 0.782959V1.9506C12.672 1.9506 12.9339 2.21248 12.9339 2.53491H14.1016H15.2692C15.2692 0.922737 13.9618 -0.384682 12.3496 -0.384682V0.782959ZM14.1016 2.53491H12.9339V10.8933H14.1016H15.2692V2.53491H14.1016ZM14.1016 10.8933L12.9339 10.893C12.9338 11.2158 12.6716 11.4776 12.3496 11.4776V12.6453V13.8129C13.9619 13.8129 15.2688 12.5051 15.2692 10.8936L14.1016 10.8933ZM12.3496 12.6453V11.4776H9.94727V12.6453V13.8129H12.3496V12.6453ZM9.94727 12.6453L8.99267 11.9729L7.66162 13.8625L8.61621 14.5349L9.57081 15.2073L10.9019 13.3177L9.94727 12.6453ZM8.61621 14.5349L7.66153 13.8626C7.77034 13.7081 7.94767 13.6154 8.13847 13.6153L8.13867 14.783L8.13887 15.9506C8.70945 15.9505 9.24341 15.6722 9.57089 15.2072L8.61621 14.5349ZM8.13867 14.783L8.13903 13.6153C8.32963 13.6154 8.50692 13.708 8.61581 13.8626L7.66113 14.5349L6.70645 15.2072C7.03399 15.6723 7.568 15.9504 8.13832 15.9506L8.13867 14.783ZM7.66113 14.5349L8.61573 13.8625L7.28467 11.9729L6.33008 12.6453L5.37548 13.3177L6.70654 15.2073L7.66113 14.5349ZM6.33008 12.6453V11.4776H1.85352V12.6453V13.8129H6.33008V12.6453ZM1.85352 12.6453L1.85353 11.4776C1.53152 11.4776 1.26928 11.2158 1.2692 10.893L0.101562 10.8933L-1.06608 10.8936C-1.06567 12.5051 0.241215 13.8129 1.8535 13.8129L1.85352 12.6453ZM0.101562 10.8933H1.2692V2.53491H0.101562H-1.06608V10.8933H0.101562ZM0.101562 2.53491H1.2692C1.2692 2.21249 1.53108 1.9506 1.85353 1.9506L1.85352 0.782959L1.8535 -0.384682C0.241355 -0.384667 -1.06608 0.922733 -1.06608 2.53491H0.101562ZM1.85352 0.782959V1.9506H12.3496V0.782959V-0.384682H1.85352V0.782959Z" fill="white" mask="url(#path-1-inside-1_352_4291)"/>
<path d="M4.18066 5.05737H10.0225" stroke="white" stroke-width="1.16764" stroke-linecap="round"/>
<path d="M4.18066 8.62183H6.39918" stroke="white" stroke-width="1.16764" stroke-linecap="round"/>
<line x1="9.02889" y1="8.62492" x2="10.0353" y2="8.62492" stroke="white" stroke-width="1.16764" stroke-linecap="round"/>
</svg>
