<svg width="65" height="24" viewBox="0 0 65 24" fill="none" xmlns="http://www.w3.org/2000/svg">
<rect width="65" height="24" rx="8" fill="#68B43F"/>
<path d="M18 18C21.3137 18 24 15.3137 24 12C24 8.68629 21.3137 6 18 6C14.6863 6 12 8.68629 12 12V16.7304C12 17.4316 12.5684 18 13.2696 18H18Z" stroke="white" stroke-linecap="round" stroke-linejoin="round"/>
<path d="M39.9805 11.7363V12.6387H28.8926V11.7363H39.9805ZM38.6816 9.69922V10.5742H30.3008V6.44531H38.5996V7.34766H31.3535V9.69922H38.6816ZM34.4297 13.7051C37.041 13.7051 38.5996 14.498 38.6133 15.8926C38.5996 17.3008 37.041 18.0801 34.4297 18.0801C31.8047 18.0801 30.2324 17.3008 30.2324 15.8926C30.2324 14.498 31.8047 13.7051 34.4297 13.7051ZM34.4297 14.5391C32.4746 14.5527 31.3125 15.0449 31.3262 15.8926C31.3125 16.7539 32.4746 17.2324 34.4297 17.2324C36.3574 17.2324 37.5332 16.7539 37.5332 15.8926C37.5332 15.0449 36.3574 14.5527 34.4297 14.5391ZM52.1074 12.6523V13.541H40.9785V12.6523H46.0098V11.3672H42.4277V8.40039H49.5918V7.14258H42.3867V6.26758H50.6719V9.20703H43.4941V10.5059H50.9316V11.3672H47.0625V12.6523H52.1074ZM50.7402 14.4707V17.998H49.6602V15.3457H42.2227V14.4707H50.7402Z" fill="white"/>
</svg>
