<svg width="65" height="24" viewBox="0 0 65 24" fill="none" xmlns="http://www.w3.org/2000/svg">
<rect width="65" height="24" rx="8" fill="#68B43F"/>
<path d="M18 18C21.3137 18 24 15.3137 24 12C24 8.68629 21.3137 6 18 6C14.6863 6 12 8.68629 12 12V16.7304C12 17.4316 12.5684 18 13.2696 18H18Z" stroke="white" stroke-linecap="round" stroke-linejoin="round"/>
<path d="M34.9902 7.08789C34.9902 8.79688 37.2324 10.2871 39.4199 10.5879L38.9824 11.4629C37.0957 11.1484 35.2295 10.1025 34.4434 8.60547C33.6641 10.1094 31.791 11.1484 29.9043 11.4629L29.4668 10.5879C31.6543 10.2871 33.8828 8.82422 33.8828 7.08789V6.39062H34.9902V7.08789ZM39.9668 12.8027V13.7051H34.9355V18.1074H33.8828V13.7051H28.8926V12.8027H39.9668ZM51.0684 5.95312V13.1992H49.9883V10.0137H47.541V9.125H49.9883V5.95312H51.0684ZM47.0352 13.582C49.5645 13.582 51.1094 14.4023 51.1094 15.8379C51.1094 17.2734 49.5645 18.0938 47.0352 18.1074C44.5059 18.0938 42.9609 17.2734 42.9609 15.8379C42.9609 14.4023 44.5059 13.582 47.0352 13.582ZM47.0352 14.416C45.1758 14.416 44.0137 14.9492 44.0273 15.8379C44.0137 16.7129 45.1758 17.2461 47.0352 17.2461C48.8945 17.2461 50.043 16.7129 50.043 15.8379C50.043 14.9492 48.8945 14.416 47.0352 14.416ZM45.2168 8.18164C45.2168 9.76758 46.4336 11.2715 48.2109 11.8867L47.6504 12.748C46.2832 12.2559 45.2236 11.2373 44.7109 9.97266C44.1777 11.4014 43.0498 12.543 41.6074 13.0898L41.0469 12.2285C42.8516 11.5723 44.1367 9.93164 44.1367 8.19531V7.74414H41.3887V6.8418H47.9375V7.74414H45.2168V8.18164Z" fill="white"/>
</svg>
