<svg width="13" height="13" viewBox="0 0 13 13" fill="none" xmlns="http://www.w3.org/2000/svg">
<g clip-path="url(#clip0_641_1001)">
<path d="M12.2485 7.49267C12.2485 8.08281 11.7701 8.56122 11.18 8.56122H9.44925V1.25331H11.18C11.7701 1.25331 12.2485 1.73172 12.2485 2.32186V7.49267Z" stroke="#68B43F" stroke-linejoin="round"/>
<path d="M12.2485 7.49267C12.2485 8.08281 11.7701 8.56122 11.18 8.56122H9.44925V1.25331H11.18C11.7701 1.25331 12.2485 1.73172 12.2485 2.32186V7.49267Z" stroke="#767676" stroke-linejoin="round"/>
<path d="M7.67053 12.1594L7.59855 12.6542L7.5988 12.6542L7.67053 12.1594ZM6.95862 11.8703L6.65223 12.2654L6.65241 12.2656L6.95862 11.8703ZM6.29651 11.0383L5.82785 11.2125L5.8279 11.2126L6.29651 11.0383ZM6.26526 9.6535L5.77507 9.55493L5.77506 9.55499L6.26526 9.6535ZM6.38928 9.18085L6.86628 9.33074C6.91401 9.17887 6.88656 9.01334 6.79236 8.885C6.69817 8.75666 6.54848 8.68085 6.38928 8.68085V9.18085ZM2.89221 9.18085L2.89209 9.68085H2.89221V9.18085ZM1.3385 7.62714H0.838501V7.62737L1.3385 7.62714ZM1.85413 6.47382L2.18896 6.84514C2.28881 6.75511 2.34819 6.62866 2.3537 6.49433C2.35922 6.35999 2.3104 6.2291 2.21828 6.13119L1.85413 6.47382ZM1.3385 5.17694L0.838501 5.17671V5.17694H1.3385ZM1.81995 3.9201L2.19329 4.25269C2.37244 4.05159 2.36011 3.74471 2.1654 3.55863L1.81995 3.9201ZM1.3385 2.79803L0.838501 2.79795V2.79817L1.3385 2.79803ZM9.00061 1.24335L9.0007 0.743347H9.00061V1.24335ZM9.53479 1.77753H10.0348L10.0348 1.77714L9.53479 1.77753ZM9.53479 8.39667H9.03479C9.03479 8.45003 9.04333 8.50304 9.06009 8.5537L9.53479 8.39667ZM9.53967 8.40741L10.0178 8.26107L10.0177 8.2607L9.53967 8.40741ZM9.51428 8.78729L9.05856 8.58157C9.0478 8.60542 9.03892 8.63009 9.03201 8.65533L9.51428 8.78729ZM9.38733 9.01483L9.0252 8.67006C8.99455 8.70226 8.96833 8.7384 8.94723 8.77753L9.38733 9.01483ZM8.95081 10.1711L8.46957 10.0354L8.46956 10.0354L8.95081 10.1711ZM8.63831 11.5158L8.99186 11.8694C9.06154 11.7997 9.10908 11.711 9.1285 11.6144L8.63831 11.5158ZM8.63733 11.5168L8.28378 11.1632C8.20973 11.2373 8.1608 11.3327 8.14389 11.436L8.63733 11.5168ZM8.22327 12.0891L8.4412 12.5391L8.44144 12.5389L8.22327 12.0891ZM7.67053 12.1594L7.74251 11.6646C7.65631 11.652 7.5582 11.6233 7.46477 11.5842C7.36944 11.5442 7.29979 11.5021 7.26483 11.475L6.95862 11.8703L6.65241 12.2656C6.87897 12.4411 7.24587 12.6028 7.59855 12.6542L7.67053 12.1594ZM6.95862 11.8703L7.265 11.4752C7.04519 11.3047 6.86344 11.1281 6.76512 10.8639L6.29651 11.0383L5.8279 11.2126C6.02406 11.7398 6.38393 12.0574 6.65223 12.2654L6.95862 11.8703ZM6.29651 11.0383L6.76516 10.864C6.66718 10.6005 6.65433 10.2552 6.75546 9.75202L6.26526 9.6535L5.77506 9.55499C5.65653 10.1448 5.63787 10.7016 5.82785 11.2125L6.29651 11.0383ZM6.26526 9.6535L6.75545 9.75208C6.78422 9.60897 6.82259 9.46978 6.86628 9.33074L6.38928 9.18085L5.91228 9.03095C5.86175 9.19175 5.81292 9.36672 5.77507 9.55493L6.26526 9.6535ZM6.38928 9.18085V8.68085H2.89221V9.18085V9.68085H6.38928V9.18085ZM2.89221 9.18085L2.89234 8.68085C2.31055 8.6807 1.83878 8.20895 1.8385 7.6269L1.3385 7.62714L0.838501 7.62737C0.839037 8.76112 1.75799 9.68057 2.89209 9.68085L2.89221 9.18085ZM1.3385 7.62714H1.8385C1.8385 7.31805 1.97263 7.04022 2.18896 6.84514L1.85413 6.47382L1.51929 6.10249C1.10441 6.4766 0.838501 7.01948 0.838501 7.62714H1.3385ZM1.85413 6.47382L2.21828 6.13119C1.98226 5.88035 1.8385 5.54573 1.8385 5.17694H1.3385H0.838501C0.838501 5.81253 1.08791 6.38913 1.48998 6.81645L1.85413 6.47382ZM1.3385 5.17694L1.8385 5.17717C1.83866 4.82321 1.97226 4.50081 2.19329 4.25269L1.81995 3.9201L1.4466 3.58752C1.07156 4.00852 0.838778 4.56436 0.838501 5.17671L1.3385 5.17694ZM1.81995 3.9201L2.1654 3.55863C1.96316 3.36535 1.83858 3.09635 1.8385 2.7979L1.3385 2.79803L0.838501 2.79817C0.838655 3.38297 1.08479 3.90914 1.47449 4.28158L1.81995 3.9201ZM1.3385 2.79803L1.8385 2.79812C1.8386 2.21586 2.31114 1.74335 2.89319 1.74335V1.24335V0.743347C1.75868 0.743347 0.838699 1.66371 0.838501 2.79795L1.3385 2.79803ZM2.89319 1.24335V1.74335H9.00061V1.24335V0.743347H2.89319V1.24335ZM9.00061 1.24335L9.00052 1.74335C9.01904 1.74335 9.03478 1.75861 9.03479 1.77791L9.53479 1.77753L10.0348 1.77714C10.0344 1.20675 9.57195 0.743446 9.0007 0.743347L9.00061 1.24335ZM9.53479 1.77753H9.03479V8.39667H9.53479H10.0348V1.77753H9.53479ZM9.53479 8.39667L9.06009 8.5537C9.06922 8.58131 9.07894 8.60278 9.08496 8.61536C9.08805 8.62181 9.09069 8.627 9.09229 8.63009C9.09311 8.63167 9.09379 8.63297 9.0942 8.63375C9.09441 8.63415 9.09458 8.63448 9.09469 8.63468C9.09474 8.63478 9.09479 8.63487 9.09481 8.63492C9.09484 8.63498 9.09485 8.635 9.09486 8.63501C9.09505 8.63537 9.09389 8.63318 9.09244 8.63033C9.09089 8.62728 9.08834 8.62219 9.08534 8.61575C9.07947 8.60316 9.07017 8.58179 9.06168 8.55412L9.53967 8.40741L10.0177 8.2607C10.0086 8.23116 9.99855 8.20797 9.99186 8.1936C9.98844 8.18626 9.98546 8.18029 9.98346 8.17636C9.98155 8.17262 9.97993 8.16955 9.97966 8.16904C9.97894 8.16767 9.9799 8.1695 9.98085 8.17133C9.98199 8.17354 9.98419 8.17785 9.98686 8.18341C9.99203 8.19421 10.001 8.21388 10.0095 8.23963L9.53479 8.39667ZM9.53967 8.40741L9.06157 8.55375C9.06344 8.55985 9.06396 8.56962 9.05856 8.58157L9.51428 8.78729L9.97 8.99301C10.0716 8.76803 10.0934 8.50823 10.0178 8.26107L9.53967 8.40741ZM9.51428 8.78729L9.03201 8.65533C9.02914 8.66583 9.02551 8.66975 9.0252 8.67006L9.38733 9.01483L9.74945 9.3596C9.86922 9.23381 9.95213 9.0816 9.99655 8.91926L9.51428 8.78729ZM9.38733 9.01483L8.94723 8.77753C8.75644 9.13136 8.59746 9.58184 8.46957 10.0354L8.95081 10.1711L9.43204 10.3068C9.55152 9.88302 9.687 9.51258 9.82743 9.25213L9.38733 9.01483ZM8.95081 10.1711L8.46956 10.0354C8.32064 10.5637 8.21597 11.0797 8.14811 11.4173L8.63831 11.5158L9.1285 11.6144C9.19633 11.2769 9.29456 10.7944 9.43205 10.3067L8.95081 10.1711ZM8.63831 11.5158L8.28475 11.1623L8.28378 11.1632L8.63733 11.5168L8.99088 11.8703L8.99186 11.8694L8.63831 11.5158ZM8.63733 11.5168L8.14389 11.436C8.12656 11.542 8.07499 11.6053 8.00509 11.6392L8.22327 12.0891L8.44144 12.5389C8.83651 12.3473 9.06703 11.987 9.13077 11.5975L8.63733 11.5168ZM8.22327 12.0891L8.00533 11.639C7.93086 11.6751 7.83648 11.6782 7.74226 11.6645L7.67053 12.1594L7.5988 12.6542C7.77657 12.68 8.10542 12.7017 8.4412 12.5391L8.22327 12.0891Z" fill="#68B43F"/>
<path d="M7.67053 12.1594L7.59855 12.6542L7.5988 12.6542L7.67053 12.1594ZM6.95862 11.8703L6.65223 12.2654L6.65241 12.2656L6.95862 11.8703ZM6.29651 11.0383L5.82785 11.2125L5.8279 11.2126L6.29651 11.0383ZM6.26526 9.6535L5.77507 9.55493L5.77506 9.55499L6.26526 9.6535ZM6.38928 9.18085L6.86628 9.33074C6.91401 9.17887 6.88656 9.01334 6.79236 8.885C6.69817 8.75666 6.54848 8.68085 6.38928 8.68085V9.18085ZM2.89221 9.18085L2.89209 9.68085H2.89221V9.18085ZM1.3385 7.62714H0.838501V7.62737L1.3385 7.62714ZM1.85413 6.47382L2.18896 6.84514C2.28881 6.75511 2.34819 6.62866 2.3537 6.49433C2.35922 6.35999 2.3104 6.2291 2.21828 6.13119L1.85413 6.47382ZM1.3385 5.17694L0.838501 5.17671V5.17694H1.3385ZM1.81995 3.9201L2.19329 4.25269C2.37244 4.05159 2.36011 3.74471 2.1654 3.55863L1.81995 3.9201ZM1.3385 2.79803L0.838501 2.79795V2.79817L1.3385 2.79803ZM9.00061 1.24335L9.0007 0.743347H9.00061V1.24335ZM9.53479 1.77753H10.0348L10.0348 1.77714L9.53479 1.77753ZM9.53479 8.39667H9.03479C9.03479 8.45003 9.04333 8.50304 9.06009 8.5537L9.53479 8.39667ZM9.53967 8.40741L10.0178 8.26107L10.0177 8.2607L9.53967 8.40741ZM9.51428 8.78729L9.05856 8.58157C9.0478 8.60542 9.03892 8.63009 9.03201 8.65533L9.51428 8.78729ZM9.38733 9.01483L9.0252 8.67006C8.99455 8.70226 8.96833 8.7384 8.94723 8.77753L9.38733 9.01483ZM8.95081 10.1711L8.46957 10.0354L8.46956 10.0354L8.95081 10.1711ZM8.63831 11.5158L8.99186 11.8694C9.06154 11.7997 9.10908 11.711 9.1285 11.6144L8.63831 11.5158ZM8.63733 11.5168L8.28378 11.1632C8.20973 11.2373 8.1608 11.3327 8.14389 11.436L8.63733 11.5168ZM8.22327 12.0891L8.4412 12.5391L8.44144 12.5389L8.22327 12.0891ZM7.67053 12.1594L7.74251 11.6646C7.65631 11.652 7.5582 11.6233 7.46477 11.5842C7.36944 11.5442 7.29979 11.5021 7.26483 11.475L6.95862 11.8703L6.65241 12.2656C6.87897 12.4411 7.24587 12.6028 7.59855 12.6542L7.67053 12.1594ZM6.95862 11.8703L7.265 11.4752C7.04519 11.3047 6.86344 11.1281 6.76512 10.8639L6.29651 11.0383L5.8279 11.2126C6.02406 11.7398 6.38393 12.0574 6.65223 12.2654L6.95862 11.8703ZM6.29651 11.0383L6.76516 10.864C6.66718 10.6005 6.65433 10.2552 6.75546 9.75202L6.26526 9.6535L5.77506 9.55499C5.65653 10.1448 5.63787 10.7016 5.82785 11.2125L6.29651 11.0383ZM6.26526 9.6535L6.75545 9.75208C6.78422 9.60897 6.82259 9.46978 6.86628 9.33074L6.38928 9.18085L5.91228 9.03095C5.86175 9.19175 5.81292 9.36672 5.77507 9.55493L6.26526 9.6535ZM6.38928 9.18085V8.68085H2.89221V9.18085V9.68085H6.38928V9.18085ZM2.89221 9.18085L2.89234 8.68085C2.31055 8.6807 1.83878 8.20895 1.8385 7.6269L1.3385 7.62714L0.838501 7.62737C0.839037 8.76112 1.75799 9.68057 2.89209 9.68085L2.89221 9.18085ZM1.3385 7.62714H1.8385C1.8385 7.31805 1.97263 7.04022 2.18896 6.84514L1.85413 6.47382L1.51929 6.10249C1.10441 6.4766 0.838501 7.01948 0.838501 7.62714H1.3385ZM1.85413 6.47382L2.21828 6.13119C1.98226 5.88035 1.8385 5.54573 1.8385 5.17694H1.3385H0.838501C0.838501 5.81253 1.08791 6.38913 1.48998 6.81645L1.85413 6.47382ZM1.3385 5.17694L1.8385 5.17717C1.83866 4.82321 1.97226 4.50081 2.19329 4.25269L1.81995 3.9201L1.4466 3.58752C1.07156 4.00852 0.838778 4.56436 0.838501 5.17671L1.3385 5.17694ZM1.81995 3.9201L2.1654 3.55863C1.96316 3.36535 1.83858 3.09635 1.8385 2.7979L1.3385 2.79803L0.838501 2.79817C0.838655 3.38297 1.08479 3.90914 1.47449 4.28158L1.81995 3.9201ZM1.3385 2.79803L1.8385 2.79812C1.8386 2.21586 2.31114 1.74335 2.89319 1.74335V1.24335V0.743347C1.75868 0.743347 0.838699 1.66371 0.838501 2.79795L1.3385 2.79803ZM2.89319 1.24335V1.74335H9.00061V1.24335V0.743347H2.89319V1.24335ZM9.00061 1.24335L9.00052 1.74335C9.01904 1.74335 9.03478 1.75861 9.03479 1.77791L9.53479 1.77753L10.0348 1.77714C10.0344 1.20675 9.57195 0.743446 9.0007 0.743347L9.00061 1.24335ZM9.53479 1.77753H9.03479V8.39667H9.53479H10.0348V1.77753H9.53479ZM9.53479 8.39667L9.06009 8.5537C9.06922 8.58131 9.07894 8.60278 9.08496 8.61536C9.08805 8.62181 9.09069 8.627 9.09229 8.63009C9.09311 8.63167 9.09379 8.63297 9.0942 8.63375C9.09441 8.63415 9.09458 8.63448 9.09469 8.63468C9.09474 8.63478 9.09479 8.63487 9.09481 8.63492C9.09484 8.63498 9.09485 8.635 9.09486 8.63501C9.09505 8.63537 9.09389 8.63318 9.09244 8.63033C9.09089 8.62728 9.08834 8.62219 9.08534 8.61575C9.07947 8.60316 9.07017 8.58179 9.06168 8.55412L9.53967 8.40741L10.0177 8.2607C10.0086 8.23116 9.99855 8.20797 9.99186 8.1936C9.98844 8.18626 9.98546 8.18029 9.98346 8.17636C9.98155 8.17262 9.97993 8.16955 9.97966 8.16904C9.97894 8.16767 9.9799 8.1695 9.98085 8.17133C9.98199 8.17354 9.98419 8.17785 9.98686 8.18341C9.99203 8.19421 10.001 8.21388 10.0095 8.23963L9.53479 8.39667ZM9.53967 8.40741L9.06157 8.55375C9.06344 8.55985 9.06396 8.56962 9.05856 8.58157L9.51428 8.78729L9.97 8.99301C10.0716 8.76803 10.0934 8.50823 10.0178 8.26107L9.53967 8.40741ZM9.51428 8.78729L9.03201 8.65533C9.02914 8.66583 9.02551 8.66975 9.0252 8.67006L9.38733 9.01483L9.74945 9.3596C9.86922 9.23381 9.95213 9.0816 9.99655 8.91926L9.51428 8.78729ZM9.38733 9.01483L8.94723 8.77753C8.75644 9.13136 8.59746 9.58184 8.46957 10.0354L8.95081 10.1711L9.43204 10.3068C9.55152 9.88302 9.687 9.51258 9.82743 9.25213L9.38733 9.01483ZM8.95081 10.1711L8.46956 10.0354C8.32064 10.5637 8.21597 11.0797 8.14811 11.4173L8.63831 11.5158L9.1285 11.6144C9.19633 11.2769 9.29456 10.7944 9.43205 10.3067L8.95081 10.1711ZM8.63831 11.5158L8.28475 11.1623L8.28378 11.1632L8.63733 11.5168L8.99088 11.8703L8.99186 11.8694L8.63831 11.5158ZM8.63733 11.5168L8.14389 11.436C8.12656 11.542 8.07499 11.6053 8.00509 11.6392L8.22327 12.0891L8.44144 12.5389C8.83651 12.3473 9.06703 11.987 9.13077 11.5975L8.63733 11.5168ZM8.22327 12.0891L8.00533 11.639C7.93086 11.6751 7.83648 11.6782 7.74226 11.6645L7.67053 12.1594L7.5988 12.6542C7.77657 12.68 8.10542 12.7017 8.4412 12.5391L8.22327 12.0891Z" fill="#767676"/>
</g>
<defs>
<clipPath id="clip0_641_1001">
<rect width="12" height="12" fill="white" transform="translate(0.784058 0.700378)"/>
</clipPath>
</defs>
</svg>
