<svg width="19" height="18" viewBox="0 0 19 18" fill="none" xmlns="http://www.w3.org/2000/svg">
<path d="M14.4387 1.66622L13.9096 1.13665L13.9094 1.13683L14.4387 1.66622ZM17.2463 4.47407L17.7756 5.00346L17.7758 5.00328L17.2463 4.47407ZM10.7881 10.9329L10.2587 11.4623C10.3991 11.6027 10.5895 11.6816 10.7881 11.6816C10.9866 11.6816 11.177 11.6027 11.3174 11.4623L10.7881 10.9329ZM10.7867 10.9316L11.316 10.4022C11.1566 10.2428 10.9339 10.1637 10.7097 10.1869L10.7867 10.9316ZM7.65871 11.2548L6.91408 11.1778C6.89092 11.402 6.97 11.6248 7.12937 11.7841C7.28875 11.9435 7.51145 12.0226 7.73564 11.9995L7.65871 11.2548ZM7.98187 8.12648L8.7265 8.20342C8.74966 7.9792 8.67058 7.75648 8.51121 7.59709L7.98187 8.12648ZM7.98049 8.1251L7.45115 7.59571C7.31076 7.73611 7.23189 7.92654 7.23189 8.1251C7.23189 8.32366 7.31076 8.51409 7.45115 8.65449L7.98049 8.1251ZM14.4387 1.66622L14.9679 2.19579L14.9679 2.1963L15.4973 1.66691L16.0266 1.13752C15.4427 0.55355 14.495 0.5516 13.9096 1.13665L14.4387 1.66622ZM15.4973 1.66691L14.9679 2.1963L16.7163 3.94482L17.2456 3.41543L17.775 2.88603L16.0266 1.13752L15.4973 1.66691ZM17.2456 3.41543L16.7163 3.94482L16.7168 3.94485L17.2463 4.47407L17.7758 5.00328C18.3608 4.41783 18.3589 3.47 17.775 2.88603L17.2456 3.41543ZM17.2463 4.47407L16.717 3.94467L10.2587 10.4036L10.7881 10.9329L11.3174 11.4623L17.7756 5.00346L17.2463 4.47407ZM10.7881 10.9329L11.3174 10.4036L11.316 10.4022L10.7867 10.9316L10.2573 11.461L10.2587 11.4623L10.7881 10.9329ZM10.7867 10.9316L10.7097 10.1869L7.58178 10.51L7.65871 11.2548L7.73564 11.9995L10.8636 11.6763L10.7867 10.9316ZM7.65871 11.2548L8.40335 11.3317L8.7265 8.20342L7.98187 8.12648L7.23723 8.04954L6.91408 11.1778L7.65871 11.2548ZM7.98187 8.12648L8.51121 7.59709L8.50983 7.59571L7.98049 8.1251L7.45115 8.65449L7.45253 8.65587L7.98187 8.12648ZM7.98049 8.1251L8.50983 8.65449L14.9681 2.19561L14.4387 1.66622L13.9094 1.13683L7.45115 7.59571L7.98049 8.1251Z" fill="white"/>
<path d="M8.72943 3.10329H2.32735C1.50043 3.10329 0.830078 3.77364 0.830078 4.60056V15.7439C0.830078 16.5708 1.50043 17.2412 2.32735 17.2412H13.4693C14.2962 17.2412 14.9666 16.5708 14.9666 15.7439V11.3704" stroke="white" stroke-width="1.49727" stroke-linecap="round" stroke-linejoin="round"/>
</svg>
