<svg width="68" height="64" viewBox="0 0 68 64" fill="none" xmlns="http://www.w3.org/2000/svg">
<path d="M25.2053 42.0861C26.1007 42.0861 26.8266 41.3602 26.8266 40.4648C26.8266 39.5693 26.1007 38.8434 25.2053 38.8434C24.3099 38.8434 23.584 39.5693 23.584 40.4648C23.584 41.3602 24.3099 42.0861 25.2053 42.0861Z" fill="white" stroke="white" stroke-miterlimit="10"/>
<path d="M41.4973 41.2239C42.3927 41.2239 43.1186 40.498 43.1186 39.6025C43.1186 38.7071 42.3927 37.9812 41.4973 37.9812C40.6019 37.9812 39.876 38.7071 39.876 39.6025C39.876 40.498 40.6019 41.2239 41.4973 41.2239Z" fill="white" stroke="white" stroke-miterlimit="10"/>
<path d="M28.4512 48.6537C28.4512 48.6537 33.1056 55.6954 39.7867 48.2552" stroke="white" stroke-width="3.5" stroke-linecap="round" stroke-linejoin="round"/>
<path d="M32.3944 40.705C32.3944 40.705 31.5975 41.8969 32.3154 43.2332" stroke="white" stroke-width="3.5" stroke-linecap="round" stroke-linejoin="round"/>
<path d="M3.2002 16.4505C3.2002 16.4505 19.3276 14.0459 37.8801 17.3195" stroke="white" stroke-width="4" stroke-linecap="round" stroke-linejoin="round"/>
<path d="M2.53711 29.5413C2.53711 29.5413 24.1433 27.0166 48.2365 29.215" stroke="white" stroke-width="4" stroke-linecap="round" stroke-linejoin="round"/>
<path d="M9.85363 48.1144C10.1559 54.3867 13.3264 61.3839 25.8676 61.6896C25.8676 61.6896 43.6232 63.6407 51.9703 57.7599C51.9703 57.7599 57.5694 53.1433 59.0842 48.1144L61.9078 46.2973C66.1432 43.9546 65.4149 39.7811 65.4149 39.7811C65.1676 36.5144 59.833 36.4629 59.833 36.4629C61.6089 23.3858 58.83 13.1048 58.83 13.1048C53.6844 -0.370774 4.61523 2.19518 4.61523 2.19518" stroke="white" stroke-width="4" stroke-linecap="round" stroke-linejoin="round"/>
<path d="M9.84325 48.1144L7.01967 46.2973C2.7843 43.9546 3.51253 39.7811 3.51253 39.7811C3.75985 36.5144 9.09442 36.4629 9.09442 36.4629" stroke="white" stroke-width="4" stroke-linecap="round" stroke-linejoin="round"/>
</svg>
