<svg width="34" height="33" viewBox="0 0 34 33" fill="none" xmlns="http://www.w3.org/2000/svg">
<path d="M12.6994 21.4651C13.1365 21.4651 13.4908 21.0951 13.4908 20.6386C13.4908 20.1821 13.1365 19.812 12.6994 19.812C12.2623 19.812 11.908 20.1821 11.908 20.6386C11.908 21.0951 12.2623 21.4651 12.6994 21.4651Z" fill="#767676" stroke="#767676" stroke-width="0.5" stroke-miterlimit="10"/>
<path d="M20.664 21.0237C21.1011 21.0237 21.4554 20.6537 21.4554 20.1972C21.4554 19.7407 21.1011 19.3706 20.664 19.3706C20.2269 19.3706 19.8726 19.7407 19.8726 20.1972C19.8726 20.6537 20.2269 21.0237 20.664 21.0237Z" fill="#767676" stroke="#767676" stroke-width="0.5" stroke-miterlimit="10"/>
<path d="M14.2874 24.8201C14.2874 24.8201 16.5628 28.4155 19.829 24.6167" stroke="#767676" stroke-width="1.5" stroke-linecap="round" stroke-linejoin="round"/>
<path d="M16.2148 20.7622C16.2148 20.7622 15.8261 21.3695 16.1763 22.0502" stroke="#767676" stroke-width="1.5" stroke-linecap="round" stroke-linejoin="round"/>
<path d="M1.94287 8.37845C1.94287 8.37845 9.82719 7.15078 18.8971 8.82217" stroke="#767676" stroke-width="2" stroke-linecap="round" stroke-linejoin="round"/>
<path d="M1.61865 15.0622C1.61865 15.0622 12.1815 13.7731 23.9601 14.8956" stroke="#767676" stroke-width="2" stroke-linecap="round" stroke-linejoin="round"/>
<path d="M5.19546 24.5446C5.34323 27.7471 6.89323 31.3196 13.0244 31.4757C13.0244 31.4757 21.7047 32.4719 25.7854 29.4693C25.7854 29.4693 28.5226 27.1122 29.2632 24.5446L30.6436 23.6169C32.7142 22.4208 32.3582 20.2899 32.3582 20.2899C32.2372 18.622 29.6293 18.5957 29.6293 18.5957C30.4975 11.9189 29.1389 6.66977 29.1389 6.66977C26.6233 -0.210446 2.63452 1.09965 2.63452 1.09965" stroke="#767676" stroke-width="2" stroke-linecap="round" stroke-linejoin="round"/>
<path d="M5.19077 24.5451L3.81039 23.6174C1.73981 22.4213 2.09582 20.2904 2.09582 20.2904C2.21673 18.6225 4.82469 18.5962 4.82469 18.5962" stroke="#767676" stroke-width="2" stroke-linecap="round" stroke-linejoin="round"/>
</svg>
