<svg width="25" height="25" viewBox="0 0 25 25" fill="none" xmlns="http://www.w3.org/2000/svg">
<path d="M1.04942 10.3915L1.08647 21.6409C1.0901 22.7429 1.98446 23.6343 3.08646 23.6343H6.03478C7.14324 23.6343 8.04028 22.7328 8.03476 21.6243L8.0079 16.2335C8.00237 15.1251 8.89941 14.2236 10.0079 14.2236H14.0478C15.1485 14.2236 16.0423 15.1129 16.0478 16.2136L16.0748 21.6442C16.0803 22.7449 16.9741 23.6343 18.0748 23.6343H21.0299C22.137 23.6343 23.0335 22.7348 23.0299 21.6277L22.9928 10.3833C22.9908 9.76024 22.6985 9.17376 22.2023 8.79699L13.2273 1.9823C12.5124 1.43945 11.5233 1.43945 10.8084 1.9823L1.83996 8.79203C1.34007 9.1716 1.04736 9.76382 1.04942 10.3915Z" stroke="#767676" stroke-width="2" stroke-linecap="round" stroke-linejoin="round"/>
</svg>
