<svg width="37" height="24" viewBox="0 0 37 24" fill="none" xmlns="http://www.w3.org/2000/svg">
<path fill-rule="evenodd" clip-rule="evenodd" d="M3 0C1.34315 0 0 1.34315 0 3V21C0 22.6569 1.34315 24 3 24H34C35.6569 24 37 22.6569 37 21V3C37 1.34315 35.6569 0 34 0H3ZM30 4H32C32.5523 4 33 4.44772 33 5V7C33 7.55228 32.5523 8 32 8H30C29.4477 8 29 7.55228 29 7V5C29 4.44772 29.4477 4 30 4ZM25 4C24.4477 4 24 4.44772 24 5V7C24 7.55228 24.4477 8 25 8H27C27.5523 8 28 7.55228 28 7V5C28 4.44772 27.5523 4 27 4H25ZM19 5C19 4.44772 19.4477 4 20 4H22C22.5523 4 23 4.44772 23 5V7C23 7.55228 22.5523 8 22 8H20C19.4477 8 19 7.55228 19 7V5ZM15 4C14.4477 4 14 4.44772 14 5V7C14 7.55228 14.4477 8 15 8H17C17.5523 8 18 7.55228 18 7V5C18 4.44772 17.5523 4 17 4H15ZM9 5C9 4.44772 9.44772 4 10 4H12C12.5523 4 13 4.44772 13 5V7C13 7.55228 12.5523 8 12 8H10C9.44772 8 9 7.55228 9 7V5ZM5 4C4.44772 4 4 4.44772 4 5V7C4 7.55228 4.44772 8 5 8H7C7.55228 8 8 7.55228 8 7V5C8 4.44772 7.55228 4 7 4H5ZM4 11C4 10.4477 4.44772 10 5 10H7C7.55228 10 8 10.4477 8 11V13C8 13.5523 7.55228 14 7 14H5C4.44772 14 4 13.5523 4 13V11ZM10 10C9.44772 10 9 10.4477 9 11V13C9 13.5523 9.44772 14 10 14H12C12.5523 14 13 13.5523 13 13V11C13 10.4477 12.5523 10 12 10H10ZM14 11C14 10.4477 14.4477 10 15 10H17C17.5523 10 18 10.4477 18 11V13C18 13.5523 17.5523 14 17 14H15C14.4477 14 14 13.5523 14 13V11ZM20 10C19.4477 10 19 10.4477 19 11V13C19 13.5523 19.4477 14 20 14H22C22.5523 14 23 13.5523 23 13V11C23 10.4477 22.5523 10 22 10H20ZM24 11C24 10.4477 24.4477 10 25 10H27C27.5523 10 28 10.4477 28 11V13C28 13.5523 27.5523 14 27 14H25C24.4477 14 24 13.5523 24 13V11ZM30 10C29.4477 10 29 10.4477 29 11V13C29 13.5523 29.4477 14 30 14H32C32.5523 14 33 13.5523 33 13V11C33 10.4477 32.5523 10 32 10H30ZM9 17C9 16.4477 9.44772 16 10 16H27C27.5523 16 28 16.4477 28 17V19C28 19.5523 27.5523 20 27 20H10C9.44772 20 9 19.5523 9 19V17Z" fill="#767676"/>
</svg>
