<svg width="49" height="49" viewBox="0 0 49 49" fill="none" xmlns="http://www.w3.org/2000/svg">
<circle cx="24.5" cy="24.5" r="23.5" fill="#E9F8D4" stroke="#68B43F" stroke-width="2"/>
<path d="M17.3154 15C17.3154 12.2386 19.554 10 22.3154 10H26.6838C29.4453 10 31.6839 12.2386 31.6839 15V19.9474H17.3154V15Z" fill="white" stroke="#68B43F" stroke-width="2"/>
<path d="M17.3158 20H31.6842L34.3028 33.4257C34.6641 35.2781 33.2456 37 31.3583 37H17.6417C15.7544 37 14.3359 35.2781 14.6972 33.4257L17.3158 20Z" fill="white" stroke="#68B43F" stroke-width="2"/>
<path d="M20.6586 24.4053C20.704 24.17 20.91 24 21.1496 24H27.8504C28.09 24 28.296 24.17 28.3414 24.4053L29.8852 32.4053C29.9448 32.7137 29.7084 33 29.3943 33H19.6057C19.2916 33 19.0552 32.7137 19.1148 32.4053L20.6586 24.4053Z" fill="#68B43F" stroke="#68B43F" stroke-width="2"/>
<path d="M22.5 14C22.5 14.5523 22.0523 15 21.5 15C20.9477 15 20.5 14.5523 20.5 14C20.5 13.4477 20.9477 13 21.5 13C22.0523 13 22.5 13.4477 22.5 14Z" fill="#68B43F"/>
<circle cx="27.5" cy="14" r="1" fill="#68B43F"/>
<circle cx="24.5" cy="16" r="1" fill="#68B43F"/>
</svg>
