<svg width="49" height="49" viewBox="0 0 49 49" fill="none" xmlns="http://www.w3.org/2000/svg">
<circle cx="24.5" cy="24.5" r="23.5" fill="#FDECDD" stroke="#D35E62" stroke-width="2"/>
<path d="M34.7755 26.0444L31.5935 29.2263L30.5328 28.1657L25.1363 33.5622C24.8483 33.8502 24.4972 34.077 24.0901 34.0628C22.9841 34.0238 20.3218 33.3214 15.6898 28.6898C11.3408 24.3412 10.2082 21.4812 9.92728 20.1058C9.80194 19.4918 10.0884 18.9116 10.5315 18.4685L16.7442 12.2558C17.9158 11.0842 19.8153 11.0842 20.9869 12.2558L34.7755 26.0444Z" fill="white"/>
<path d="M34.7755 26.0444L35.4826 26.7515C35.8731 26.3609 35.8731 25.7278 35.4826 25.3372L34.7755 26.0444ZM31.5935 29.2263L30.8864 29.9334C31.2769 30.324 31.9101 30.324 32.3006 29.9334L31.5935 29.2263ZM30.5328 28.1657L31.2399 27.4586C30.8494 27.068 30.2162 27.068 29.8257 27.4586L30.5328 28.1657ZM24.0901 34.0628L24.0548 35.0622L24.0553 35.0622L24.0901 34.0628ZM15.6898 28.6898L14.9827 29.3969L15.6898 28.6898ZM9.92728 20.1058L8.94749 20.3058L8.9475 20.3058L9.92728 20.1058ZM10.5315 18.4685L9.82439 17.7614L9.82438 17.7614L10.5315 18.4685ZM20.9869 12.2558L21.694 11.5487L20.9869 12.2558ZM34.7755 26.0444L34.0683 25.3372L30.8864 28.5192L31.5935 29.2263L32.3006 29.9334L35.4826 26.7515L34.7755 26.0444ZM31.5935 29.2263L32.3006 28.5192L31.2399 27.4586L30.5328 28.1657L29.8257 28.8728L30.8864 29.9334L31.5935 29.2263ZM30.5328 28.1657L29.8257 27.4586L24.4292 32.8551L25.1363 33.5622L25.8434 34.2693L31.2399 28.8728L30.5328 28.1657ZM25.1363 33.5622L24.4292 32.8551C24.3322 32.9521 24.2534 33.009 24.1961 33.0389C24.1446 33.0657 24.1252 33.0634 24.125 33.0634L24.0901 34.0628L24.0553 35.0622C24.8731 35.0907 25.4797 34.633 25.8434 34.2693L25.1363 33.5622ZM24.0901 34.0628L24.1254 33.0635C23.3883 33.0374 20.9538 32.5392 16.3969 27.9826L15.6898 28.6898L14.9827 29.3969C19.6898 34.1035 22.5799 35.0101 24.0548 35.0622L24.0901 34.0628ZM15.6898 28.6898L16.3969 27.9826C12.1346 23.7208 11.1362 21.0278 10.9071 19.9057L9.92728 20.1058L8.9475 20.3058C9.2801 21.9345 10.547 24.9617 14.9827 29.3969L15.6898 28.6898ZM9.92728 20.1058L10.9071 19.9058C10.8738 19.7428 10.9287 19.4855 11.2386 19.1756L10.5315 18.4685L9.82438 17.7614C9.24804 18.3378 8.73008 19.2407 8.94749 20.3058L9.92728 20.1058ZM10.5315 18.4685L11.2386 19.1756L17.4513 12.9629L16.7442 12.2558L16.0371 11.5487L9.82439 17.7614L10.5315 18.4685ZM16.7442 12.2558L17.4513 12.9629C18.2324 12.1818 19.4987 12.1818 20.2798 12.9629L20.9869 12.2558L21.694 11.5487C20.1319 9.98656 17.5992 9.98656 16.0371 11.5487L16.7442 12.2558ZM20.9869 12.2558L20.2798 12.9629L34.0683 26.7515L34.7755 26.0444L35.4826 25.3372L21.694 11.5487L20.9869 12.2558Z" fill="#D35E62"/>
<path d="M31.5938 29.2258L34.7757 26.0438L38.6648 29.9329C39.4459 30.714 39.4459 31.9803 38.6648 32.7614L38.3113 33.1149C37.5302 33.896 36.2639 33.896 35.4828 33.1149L31.5938 29.2258Z" fill="#D35E62" stroke="#D35E62" stroke-width="2" stroke-linejoin="round"/>
<circle cx="18.8664" cy="17.5586" r="1.5" transform="rotate(-45 18.8664 17.5586)" fill="white" stroke="#D35E62" stroke-width="2"/>
</svg>
