<svg width="49" height="49" viewBox="0 0 49 49" fill="none" xmlns="http://www.w3.org/2000/svg">
<circle cx="24.5" cy="24.5" r="23.5" fill="#FDECDD" stroke="#EF974A" stroke-width="2"/>
<path d="M34.6787 20.6458L28.292 33.1184L28.2568 33.0999C26.4089 36.1265 22.9571 38.0175 19.1846 37.6887C13.8782 37.2262 9.95161 32.5499 10.4141 27.2434L10.4463 26.8694C10.4943 26.3182 10.9801 25.9104 11.5312 25.9583L27.1338 27.3167L31.4082 18.9709L34.6787 20.6458Z" fill="white"/>
<path d="M34.6787 20.6458L35.5688 21.1015C35.8205 20.61 35.6261 20.0074 35.1345 19.7557L34.6787 20.6458ZM28.292 33.1184L27.8252 34.0028C28.0617 34.1276 28.3383 34.1525 28.5932 34.072C28.8481 33.9914 29.0602 33.8122 29.1821 33.5742L28.292 33.1184ZM28.2568 33.0999L28.7236 32.2155C28.2566 31.969 27.6785 32.1281 27.4033 32.5787L28.2568 33.0999ZM19.1846 37.6887L19.0977 38.6849H19.0978L19.1846 37.6887ZM10.4141 27.2434L11.4103 27.3302L11.4104 27.3293L10.4141 27.2434ZM10.4463 26.8694L9.45006 26.7826L9.44998 26.7835L10.4463 26.8694ZM11.5312 25.9583L11.618 24.962L11.6177 24.962L11.5312 25.9583ZM27.1338 27.3167L27.0471 28.3129C27.4522 28.3482 27.8384 28.1345 28.0238 27.7725L27.1338 27.3167ZM31.4082 18.9709L31.864 18.0809C31.3724 17.8291 30.7699 18.0235 30.5182 18.5151L31.4082 18.9709ZM34.6787 20.6458L33.7886 20.19L27.4019 32.6626L28.292 33.1184L29.1821 33.5742L35.5688 21.1015L34.6787 20.6458ZM28.292 33.1184L28.7588 32.234L28.7236 32.2155L28.2568 33.0999L27.7901 33.9842L27.8252 34.0028L28.292 33.1184ZM28.2568 33.0999L27.4033 32.5787C25.7453 35.2944 22.6508 36.987 19.2714 36.6925L19.1846 37.6887L19.0978 38.6849C23.2634 39.048 27.0724 36.9587 29.1103 33.621L28.2568 33.0999ZM19.1846 37.6887L19.2714 36.6925C14.5152 36.2779 10.9958 32.0865 11.4103 27.3302L10.4141 27.2434L9.41784 27.1566C8.90744 33.0132 13.2411 38.1744 19.0977 38.6849L19.1846 37.6887ZM10.4141 27.2434L11.4104 27.3293L11.4426 26.9552L10.4463 26.8694L9.44998 26.7835L9.41775 27.1576L10.4141 27.2434ZM10.4463 26.8694L11.4425 26.9562C11.4426 26.9548 11.4428 26.9544 11.4427 26.9548C11.4426 26.9551 11.4424 26.9555 11.4423 26.9558C11.442 26.9563 11.4422 26.9558 11.4431 26.955C11.4441 26.9542 11.4447 26.9541 11.4442 26.9542C11.4439 26.9543 11.4436 26.9544 11.4433 26.9544C11.4429 26.9545 11.4433 26.9544 11.4448 26.9545L11.5312 25.9583L11.6177 24.962C10.5168 24.8665 9.54607 25.681 9.45007 26.7826L10.4463 26.8694ZM11.5312 25.9583L11.4445 26.9545L27.0471 28.3129L27.1338 27.3167L27.2205 26.3204L11.618 24.962L11.5312 25.9583ZM27.1338 27.3167L28.0238 27.7725L32.2983 19.4268L31.4082 18.9709L30.5182 18.5151L26.2437 26.8608L27.1338 27.3167ZM31.4082 18.9709L30.9524 19.861L34.2229 21.5358L34.6787 20.6458L35.1345 19.7557L31.864 18.0809L31.4082 18.9709Z" fill="#EF974A"/>
<path d="M31.5908 18.6111L34.5099 12.9107C34.9728 12.0066 36.081 11.649 36.9851 12.112C37.8892 12.5749 38.2468 13.6831 37.7838 14.5872L34.8648 20.2876L31.5908 18.6111Z" fill="#EF974A" stroke="#EF974A" stroke-width="2" stroke-linejoin="round"/>
</svg>
