<svg width="49" height="49" viewBox="0 0 49 49" fill="none" xmlns="http://www.w3.org/2000/svg">
<circle cx="24.5" cy="24.5" r="23.5" fill="#FFFBDD" stroke="#D8B21C" stroke-width="2"/>
<path d="M24.9561 13C27.396 13 29.5241 14.3286 30.6611 16.3008C31.477 15.9384 32.3798 15.7364 33.3301 15.7363C36.9654 15.7363 39.9128 18.683 39.9131 22.3184C39.9131 25.5699 37.555 28.2685 34.4561 28.8027V32.0439C34.4559 33.8526 32.9894 35.3184 31.1807 35.3184H18.7314C16.9227 35.3184 15.4562 33.8526 15.4561 32.0439V28.8027C12.3574 28.2682 10 25.5697 10 22.3184C10.0002 18.6832 12.9468 15.7365 16.582 15.7363C17.5319 15.7363 18.4344 15.9387 19.25 16.3008C20.3869 14.3284 22.516 13.0001 24.9561 13Z" fill="white"/>
<path d="M24.9561 13V12H24.956L24.9561 13ZM30.6611 16.3008L29.7948 16.8002C30.0504 17.2436 30.5994 17.4224 31.0671 17.2147L30.6611 16.3008ZM33.3301 15.7363V14.7363H33.33L33.3301 15.7363ZM39.9131 22.3184H40.9131V22.3183L39.9131 22.3184ZM34.4561 28.8027L34.2862 27.8173C33.8065 27.9 33.4561 28.316 33.4561 28.8027H34.4561ZM34.4561 32.0439L35.4561 32.044V32.0439H34.4561ZM15.4561 32.0439H14.4561V32.044L15.4561 32.0439ZM15.4561 28.8027H16.4561C16.4561 28.316 16.1057 27.9 15.626 27.8173L15.4561 28.8027ZM10 22.3184L9 22.3183V22.3184H10ZM16.582 15.7363V14.7363H16.582L16.582 15.7363ZM19.25 16.3008L18.8443 17.2148C19.3119 17.4224 19.8609 17.2435 20.1164 16.8001L19.25 16.3008ZM24.9561 13V14C27.0234 14 28.8287 15.1245 29.7948 16.8002L30.6611 16.3008L31.5275 15.8013C30.2196 13.5328 27.7685 12 24.9561 12V13ZM30.6611 16.3008L31.0671 17.2147C31.7581 16.9077 32.5229 16.7364 33.3301 16.7363L33.3301 15.7363L33.33 14.7363C32.2367 14.7364 31.1959 14.969 30.2552 15.3869L30.6611 16.3008ZM33.3301 15.7363V16.7363C36.4133 16.7363 38.9129 19.2355 38.9131 22.3184L39.9131 22.3184L40.9131 22.3183C40.9128 18.1306 37.5176 14.7363 33.3301 14.7363V15.7363ZM39.9131 22.3184H38.9131C38.9131 25.0744 36.9142 27.3642 34.2862 27.8173L34.4561 28.8027L34.626 29.7882C38.1958 29.1727 40.9131 26.0654 40.9131 22.3184H39.9131ZM34.4561 28.8027H33.4561V32.0439H34.4561H35.4561V28.8027H34.4561ZM34.4561 32.0439L33.4561 32.0439C33.456 33.3 32.4374 34.3184 31.1807 34.3184V35.3184V36.3184C33.5413 36.3184 35.4559 34.4052 35.4561 32.044L34.4561 32.0439ZM31.1807 35.3184V34.3184H18.7314V35.3184V36.3184H31.1807V35.3184ZM18.7314 35.3184V34.3184C17.4747 34.3184 16.4561 33.3 16.4561 32.0439L15.4561 32.0439L14.4561 32.044C14.4562 34.4052 16.3708 36.3184 18.7314 36.3184V35.3184ZM15.4561 32.0439H16.4561V28.8027H15.4561H14.4561V32.0439H15.4561ZM15.4561 28.8027L15.626 27.8173C12.9984 27.364 11 25.0743 11 22.3184H10H9C9 26.0651 11.7164 29.1724 15.2861 29.7882L15.4561 28.8027ZM10 22.3184L11 22.3184C11.0002 19.2355 13.4991 16.7365 16.5821 16.7363L16.582 15.7363L16.582 14.7363C12.3945 14.7366 9.00028 18.1309 9 22.3183L10 22.3184ZM16.582 15.7363V16.7363C17.3885 16.7363 18.1531 16.9079 18.8443 17.2148L19.25 16.3008L19.6557 15.3868C18.7158 14.9695 17.6752 14.7363 16.582 14.7363V15.7363ZM19.25 16.3008L20.1164 16.8001C21.0822 15.1245 22.8882 14.0001 24.9561 14L24.9561 13L24.956 12C22.1437 12.0001 19.6915 13.5322 18.3836 15.8014L19.25 16.3008Z" fill="#D8B21C"/>
<line x1="21.9297" y1="29.8008" x2="21.9297" y2="28.587" stroke="#D8B21C" stroke-width="2.5" stroke-linecap="round"/>
<line x1="27.4453" y1="29.8008" x2="27.4453" y2="28.587" stroke="#D8B21C" stroke-width="2.5" stroke-linecap="round"/>
</svg>
