<svg width="13" height="13" viewBox="0 0 13 13" fill="none" xmlns="http://www.w3.org/2000/svg">
<g clip-path="url(#clip0_641_3500)">
<path d="M1.33838 5.52625C1.33838 4.93611 1.81678 4.4577 2.40692 4.4577H4.13766V11.7656H2.40692C1.81678 11.7656 1.33838 11.2872 1.33838 10.6971V5.52625Z" stroke="#767676" stroke-linejoin="round"/>
<path d="M5.91626 0.859558L5.98824 0.364766L5.98799 0.36473L5.91626 0.859558ZM6.62817 1.14862L6.93456 0.753491L6.93439 0.753356L6.62817 1.14862ZM7.29028 1.98065L7.75894 1.8064L7.7589 1.80629L7.29028 1.98065ZM7.32153 3.36542L7.81172 3.46399L7.81173 3.46393L7.32153 3.36542ZM7.19751 3.83807L6.72051 3.68818C6.67278 3.84005 6.70023 4.00558 6.79443 4.13392C6.88863 4.26226 7.03831 4.33807 7.19751 4.33807V3.83807ZM10.6946 3.83807L10.6947 3.33807H10.6946V3.83807ZM12.2483 5.39178H12.7483V5.39155L12.2483 5.39178ZM11.7327 6.5451L11.3978 6.17378C11.298 6.26381 11.2386 6.39026 11.2331 6.52459C11.2276 6.65893 11.2764 6.78982 11.3685 6.88773L11.7327 6.5451ZM12.2483 7.84198L12.7483 7.84221V7.84198H12.2483ZM11.7668 9.09882L11.3935 8.76623C11.2144 8.96733 11.2267 9.27421 11.4214 9.46029L11.7668 9.09882ZM12.2483 10.2209L12.7483 10.221V10.2208L12.2483 10.2209ZM4.58618 11.7756L4.58609 12.2756H4.58618V11.7756ZM4.052 11.2414H3.552L3.552 11.2418L4.052 11.2414ZM4.052 4.62225H4.552C4.552 4.56889 4.54346 4.51588 4.5267 4.46522L4.052 4.62225ZM4.04712 4.61151L3.56901 4.75785L3.56913 4.75822L4.04712 4.61151ZM4.07251 4.23163L4.52823 4.43735C4.539 4.4135 4.54787 4.38884 4.55478 4.36359L4.07251 4.23163ZM4.19946 4.00409L4.56159 4.34886C4.59224 4.31666 4.61846 4.28052 4.63956 4.24139L4.19946 4.00409ZM4.63599 2.84784L5.11722 2.98353L5.11723 2.98351L4.63599 2.84784ZM4.94849 1.50311L4.59493 1.14956C4.52525 1.21924 4.47772 1.30796 4.45829 1.40457L4.94849 1.50311ZM4.94946 1.50214L5.30302 1.85569C5.37706 1.78164 5.42599 1.68622 5.4429 1.58287L4.94946 1.50214ZM5.36353 0.929871L5.14559 0.479865L5.14535 0.479982L5.36353 0.929871ZM5.91626 0.859558L5.84428 1.35435C5.93048 1.36689 6.02859 1.39557 6.12202 1.43473C6.21736 1.4747 6.287 1.5168 6.32196 1.54389L6.62817 1.14862L6.93439 0.753356C6.70782 0.577839 6.34092 0.416072 5.98824 0.364766L5.91626 0.859558ZM6.62817 1.14862L6.32179 1.54375C6.5416 1.71419 6.72336 1.89079 6.82167 2.15502L7.29028 1.98065L7.7589 1.80629C7.56274 1.2791 7.20286 0.961532 6.93456 0.753491L6.62817 1.14862ZM7.29028 1.98065L6.82163 2.1549C6.91961 2.41844 6.93246 2.76372 6.83133 3.2669L7.32153 3.36542L7.81173 3.46393C7.93027 2.87411 7.94892 2.31736 7.75894 1.8064L7.29028 1.98065ZM7.32153 3.36542L6.83135 3.26684C6.80257 3.40995 6.7642 3.54914 6.72051 3.68818L7.19751 3.83807L7.67451 3.98797C7.72504 3.82717 7.77387 3.6522 7.81172 3.46399L7.32153 3.36542ZM7.19751 3.83807V4.33807H10.6946V3.83807V3.33807H7.19751V3.83807ZM10.6946 3.83807L10.6945 4.33807C11.2762 4.33822 11.748 4.80997 11.7483 5.39202L12.2483 5.39178L12.7483 5.39155C12.7478 4.2578 11.8288 3.33835 10.6947 3.33807L10.6946 3.83807ZM12.2483 5.39178H11.7483C11.7483 5.70087 11.6142 5.9787 11.3978 6.17378L11.7327 6.5451L12.0675 6.91643C12.4824 6.54232 12.7483 5.99944 12.7483 5.39178H12.2483ZM11.7327 6.5451L11.3685 6.88773C11.6045 7.13857 11.7483 7.47319 11.7483 7.84198H12.2483H12.7483C12.7483 7.2064 12.4989 6.62979 12.0968 6.20248L11.7327 6.5451ZM12.2483 7.84198L11.7483 7.84175C11.7481 8.19571 11.6145 8.51811 11.3935 8.76623L11.7668 9.09882L12.1402 9.4314C12.5152 9.0104 12.748 8.45456 12.7483 7.84221L12.2483 7.84198ZM11.7668 9.09882L11.4214 9.46029C11.6236 9.65357 11.7482 9.92257 11.7483 10.221L12.2483 10.2209L12.7483 10.2208C12.7481 9.63595 12.502 9.10978 12.1123 8.73734L11.7668 9.09882ZM12.2483 10.2209L11.7483 10.2208C11.7482 10.8031 11.2757 11.2756 10.6936 11.2756V11.7756V12.2756C11.8281 12.2756 12.7481 11.3552 12.7483 10.221L12.2483 10.2209ZM10.6936 11.7756V11.2756H4.58618V11.7756V12.2756H10.6936V11.7756ZM4.58618 11.7756L4.58627 11.2756C4.56775 11.2756 4.55202 11.2603 4.552 11.241L4.052 11.2414L3.552 11.2418C3.55244 11.8122 4.01484 12.2755 4.58609 12.2756L4.58618 11.7756ZM4.052 11.2414H4.552V4.62225H4.052H3.552V11.2414H4.052ZM4.052 4.62225L4.5267 4.46522C4.51757 4.43761 4.50785 4.41614 4.50183 4.40356C4.49874 4.39711 4.4961 4.39193 4.4945 4.38883C4.49368 4.38725 4.493 4.38595 4.49259 4.38517C4.49239 4.38477 4.49221 4.38444 4.49211 4.38424C4.49205 4.38414 4.49201 4.38405 4.49198 4.384C4.49195 4.38394 4.49194 4.38392 4.49193 4.38391C4.49174 4.38355 4.4929 4.38574 4.49435 4.38859C4.49591 4.39164 4.49846 4.39673 4.50146 4.40317C4.50732 4.41576 4.51662 4.43713 4.52511 4.46481L4.04712 4.61151L3.56913 4.75822C3.5782 4.78777 3.58824 4.81095 3.59493 4.82532C3.59835 4.83266 3.60134 4.83863 3.60334 4.84256C3.60524 4.8463 3.60686 4.84937 3.60713 4.84988C3.60785 4.85125 3.60689 4.84943 3.60594 4.84759C3.6048 4.84538 3.6026 4.84107 3.59993 4.83551C3.59476 4.82471 3.58582 4.80504 3.5773 4.77929L4.052 4.62225ZM4.04712 4.61151L4.52523 4.46517C4.52336 4.45907 4.52283 4.44931 4.52823 4.43735L4.07251 4.23163L3.61679 4.02591C3.51523 4.25089 3.49336 4.51069 3.56901 4.75785L4.04712 4.61151ZM4.07251 4.23163L4.55478 4.36359C4.55765 4.35309 4.56129 4.34917 4.56159 4.34886L4.19946 4.00409L3.83734 3.65932C3.71757 3.78511 3.63466 3.93732 3.59024 4.09966L4.07251 4.23163ZM4.19946 4.00409L4.63956 4.24139C4.83035 3.88756 4.98934 3.43708 5.11722 2.98353L4.63599 2.84784L4.15475 2.71215C4.03527 3.1359 3.8998 3.50634 3.75936 3.76679L4.19946 4.00409ZM4.63599 2.84784L5.11723 2.98351C5.26615 2.45524 5.37082 1.93919 5.43868 1.60166L4.94849 1.50311L4.45829 1.40457C4.39046 1.742 4.29223 2.22448 4.15474 2.71217L4.63599 2.84784ZM4.94849 1.50311L5.30204 1.85667L5.30302 1.85569L4.94946 1.50214L4.59591 1.14858L4.59493 1.14956L4.94849 1.50311ZM4.94946 1.50214L5.4429 1.58287C5.46023 1.47693 5.51181 1.41365 5.5817 1.37976L5.36353 0.929871L5.14535 0.479982C4.75028 0.671572 4.51976 1.03188 4.45602 1.4214L4.94946 1.50214ZM5.36353 0.929871L5.58146 1.37988C5.65594 1.34381 5.75032 1.34073 5.84453 1.35439L5.91626 0.859558L5.98799 0.36473C5.81022 0.33896 5.48137 0.317249 5.14559 0.479865L5.36353 0.929871Z" fill="#767676"/>
</g>
<defs>
<clipPath id="clip0_641_3500">
<rect width="12" height="12" fill="white" transform="translate(0.783936 0.303497)"/>
</clipPath>
</defs>
</svg>
