<svg width="160" height="174" viewBox="0 0 160 174" fill="none" xmlns="http://www.w3.org/2000/svg">
<path d="M66.2782 45.3589C65.0591 45.6333 64.2971 46.8227 64.541 48.0426C64.6629 48.622 64.9981 49.1404 65.5163 49.4759C65.882 49.7199 66.3087 49.8418 66.7354 49.8418C66.8878 49.8418 67.0402 49.8418 67.2231 49.7809C67.8022 49.6589 68.3203 49.2929 68.6556 48.805C68.9909 48.2865 69.0823 47.7071 68.9604 47.0972C68.7165 45.8773 67.4974 45.1149 66.2782 45.3589Z" fill="#68B43F"/>
<path d="M82.889 45.1454C83.0413 45.1454 83.1937 45.1454 83.3461 45.0844C83.9252 44.9624 84.4434 44.5965 84.7786 44.1085C85.1139 43.6206 85.2053 43.0107 85.0834 42.4007C84.9615 41.8213 84.5958 41.3029 84.1081 40.9674C83.59 40.6319 83.0109 40.5404 82.4013 40.6624C81.1821 40.9369 80.4202 42.1263 80.664 43.3461C80.8774 44.4135 81.8222 45.1149 82.8585 45.1149L82.889 45.1454Z" fill="#68B43F"/>
<path d="M71.5512 57.0694C71.5512 57.0694 74.2333 59.2042 77.5555 59.2042C78.1346 59.2042 78.7746 59.1432 79.3842 58.9907C82.3102 58.2893 84.6875 55.9716 86.4248 52.129C86.9124 51.0616 86.4248 49.8418 85.3885 49.3538C84.3218 48.8659 83.1026 49.3538 82.6149 50.3907C81.4568 52.9829 80.0547 54.5077 78.4394 54.9042C76.2754 55.4531 74.1724 53.8063 74.1419 53.8063C73.258 53.0744 71.9169 53.2269 71.2159 54.1418C70.4844 55.0567 70.6368 56.368 71.5207 57.0999L71.5512 57.0694Z" fill="#68B43F"/>
<path d="M74.9037 43.834C73.8064 43.5291 72.6178 44.139 72.313 45.2674C72.0082 46.2738 71.9777 48.4085 73.6236 50.0248C74.0198 50.4213 74.5684 50.6043 75.0865 50.6043C75.6047 50.6043 76.1838 50.3908 76.58 49.9638C77.3724 49.1404 77.3724 47.7986 76.519 47.0057C76.2752 46.7922 76.3057 46.4872 76.3362 46.3652C76.6105 45.2674 75.9704 44.139 74.8732 43.834H74.9037Z" fill="#68B43F"/>
<path d="M75.7572 15.3198C55.1841 17.1191 39.7924 21.9376 39.1524 22.151C37.7199 22.6085 36.8969 24.1333 37.3541 25.5971C37.7199 26.756 38.8171 27.5184 39.9753 27.5184C40.2496 27.5184 40.5239 27.4879 40.7982 27.3964C40.9506 27.3354 56.3118 22.578 76.2449 20.8092C77.7383 20.6872 78.866 19.3454 78.7441 17.851C78.6222 16.3567 77.2811 15.2283 75.7877 15.3503L75.7572 15.3198Z" fill="#68B43F"/>
<path d="M93.0077 28.8906C92.8553 27.3963 91.5142 26.2984 90.0208 26.4204C59.725 29.409 42.6874 35.9353 41.9864 36.2098C40.5844 36.7587 39.8834 38.3445 40.432 39.7473C40.8587 40.8452 41.895 41.4856 42.9922 41.4856C43.3275 41.4856 43.6628 41.4246 43.9676 41.3027C44.1504 41.2417 61.0966 34.7459 90.5694 31.8488C92.0629 31.6963 93.1601 30.3544 93.0382 28.8601L93.0077 28.8906Z" fill="#68B43F"/>
<path d="M155.215 119.77H144.243C142.81 105.437 140.128 95.3731 138.726 90.8291C142.353 89.3348 145.431 86.6206 147.443 83.0525C150.003 78.5391 150.552 73.2632 148.967 68.5057C147.199 63.1993 143.206 59.3568 137.08 57.0086C137.171 56.4291 137.263 55.8497 137.263 55.2398C137.263 52.4646 135.891 49.8114 133.636 48.2561C130.74 46.2738 126.931 46.3653 124.096 48.5305C123.182 49.232 122.328 50.1469 121.475 51.3667C120.774 52.3731 120.164 53.41 119.616 54.4469C118.61 54.4469 117.604 54.4774 116.629 54.5688C114.739 54.7518 112.697 54.9653 110.716 55.3008L110.472 53.8369C109.253 47.9511 110.777 46.5178 114.404 42.9802C118.519 39.0156 117.879 34.1972 116.934 32.2149C115.775 28.9518 112.606 28.0674 109.832 28.1589C107.668 15.0149 102.7 6.93337 102.365 6.44543C92.3069 -7.43046 42.2915 5.19507 36.6224 6.6589C35.1595 7.05536 34.2756 8.54968 34.6718 10.0135C35.068 11.4773 36.5615 12.3617 38.0244 11.9653C58.0489 6.7199 92.0021 1.44401 97.8236 9.49507C97.8845 9.58656 103.066 18.0951 104.773 31.5745C104.864 32.3674 105.291 33.0383 105.961 33.4958C106.601 33.9227 107.424 34.0752 108.186 33.8922C109.497 33.5568 111.569 33.5873 111.844 34.2887C112.027 34.7156 112.819 36.9419 110.594 39.0766C106.662 42.8887 103.249 46.1518 105.077 54.8738L105.748 58.9298L106.022 68.0788C106.022 68.9632 104.315 69.7256 103.828 69.8476C97.1225 71.3724 83.8643 74.361 81.548 74.7575C81.3346 74.788 80.8165 74.8795 80.5117 74.544L79.6888 69.6341C79.9021 69.5731 80.085 69.5731 80.2983 69.5121L83.4986 68.5057C84.9311 68.0483 85.7235 66.493 85.2663 65.0596C84.8092 63.6263 83.2852 62.8334 81.8223 63.2908L78.7134 64.2667C71.7948 66.1575 66.5829 65.6086 63.1389 62.7114C56.7383 57.283 57.927 45.0539 57.9575 44.932C58.1099 43.4376 57.0126 42.0653 55.5192 41.9128C53.9953 41.7603 52.6542 42.8277 52.5018 44.3525C52.4408 44.9625 50.9779 59.5398 59.5729 66.8589C61.6759 68.6582 64.1751 69.7866 67.0096 70.366C66.522 70.6405 66.0343 70.8845 65.5467 71.1894C65.2114 71.3419 64.9066 71.5249 64.6628 71.7689C61.9807 73.4462 59.4205 75.3369 57.1346 77.4412C56.3726 78.3256 54.1781 80.8873 52.8675 83.083C51.8313 81.0398 50.795 78.966 49.7587 76.9227C49.3625 76.1298 48.4177 75.6724 47.5643 75.6724C32.5383 75.4894 17.5123 75.3369 2.48635 75.154C0.444276 75.154 -0.531041 77.3192 0.291883 78.9965C3.67501 85.9192 7.05814 92.8419 10.4413 99.7341C7.21054 106.748 3.9798 113.762 0.749062 120.807C-0.0433823 122.515 0.870977 124.619 2.94353 124.65C17.6952 124.772 32.4469 124.894 47.168 125.046L53.4466 125.107H69.9966C72.0081 125.107 73.0444 122.972 72.191 121.265C71.3376 119.587 70.4842 117.91 69.6308 116.233C70.1185 116.141 70.5756 116.019 71.0633 115.928C71.1852 116.141 71.3071 116.355 71.5205 116.538C73.3797 118.245 76.2752 120.075 76.3971 120.167C83.1938 124.406 90.9049 125.29 96.1168 125.29C97.0311 125.29 97.8845 125.29 98.616 125.229C99.8961 125.077 101.176 124.863 102.426 124.589C103.645 124.314 104.834 123.948 106.022 123.552C118.305 119.282 127.479 108.731 129.278 96.8979C129.643 95.5256 129.918 94.2752 130.1 93.2384C130.161 92.8419 130.222 92.5064 130.283 92.1405C130.71 92.1405 131.167 92.232 131.594 92.232C132.173 92.232 132.722 92.2015 133.301 92.1405C134.55 96.1355 137.232 105.864 138.665 119.801H126.321C124.797 119.801 123.578 121.021 123.578 122.545C123.578 124.07 124.797 125.29 126.321 125.29H141.682C141.682 125.29 141.682 125.29 141.713 125.29H155.123C156.647 125.29 157.866 124.07 157.866 122.545C157.866 121.021 156.647 119.801 155.123 119.801L155.215 119.77ZM125.986 54.5383C126.534 53.7759 126.992 53.2575 127.449 52.8915C128.363 52.1901 129.643 52.1596 130.558 52.7696C131.32 53.288 131.807 54.2639 131.807 55.2093C131.807 56.8256 131.015 58.4724 130.161 60.0277C129.003 62.1625 127.754 64.2362 126.534 66.3405C124.218 66.0965 122.024 66.4015 120.164 67.2554C120.012 67.3469 119.86 67.4383 119.707 67.5298C119.707 67.4688 119.738 67.4079 119.768 67.3774C120.652 65.1511 121.566 62.8334 122.115 61.766C122.511 61.0036 122.907 60.2107 123.273 59.4178C124.127 57.649 124.95 55.9717 125.986 54.5078V54.5383ZM114.16 76.4348C114.038 77.2887 113.977 78.1731 114.038 79.088C114.191 81.5277 115.166 83.8149 116.812 85.8277C111.722 85.4008 105.413 84.8518 99.0122 84.3029C99.4999 83.4795 100.17 82.6256 100.993 81.8327C104.986 77.9901 110.32 76.7703 114.16 76.4348ZM116.873 60.0582C116.233 61.4305 115.471 63.3213 114.678 65.3951C113.886 67.4384 113.002 69.6646 112.331 71.1284C111.722 71.2199 111.112 71.3114 110.503 71.4029C111.112 70.4575 111.539 69.3291 111.539 67.9873L111.326 60.7901C113.093 60.4547 115.044 60.2412 116.842 60.0887L116.873 60.0582ZM81.2736 80.2469C81.6699 80.2469 82.0661 80.2164 82.4928 80.1554C84.4129 79.8504 92.5812 78.0206 98.5855 76.6483C98.0979 77.0447 97.6102 77.4412 97.1835 77.8986C95.8424 79.21 94.1356 81.2837 93.2518 83.8149C83.7119 82.9915 74.6598 82.2291 69.7222 81.8022C69.5394 79.027 69.4784 76.7093 69.4784 75.2759C71.1852 74.3001 72.9835 73.4767 74.7512 72.7447L75.2694 75.9164C75.2998 76.1603 75.3913 76.3738 75.4827 76.5873C76.0923 77.9291 78.0124 80.2164 81.3041 80.2164L81.2736 80.2469ZM54.7572 97.8128C41.499 97.5993 28.2103 97.3859 14.9521 97.1419C12.209 91.5001 9.43548 85.8887 6.6924 80.2469C19.8287 80.3993 32.965 80.5518 46.1013 80.7043C48.9968 86.4071 51.8618 92.11 54.7572 97.8128ZM65.9734 119.953H56.8298C57.8356 115.897 58.8414 111.841 59.8167 107.785C61.8587 111.841 63.9313 115.897 65.9734 119.953ZM9.34404 119.557C8.5516 119.557 7.78963 119.557 6.99719 119.557C9.64883 113.793 12.3005 108.029 14.9826 102.265C28.5761 102.479 42.2 102.723 55.7935 102.936C54.3915 108.609 52.9895 114.281 51.5874 119.953C37.5063 119.831 23.4252 119.709 9.34404 119.587V119.557ZM61.1273 99.1852C61.1273 99.1852 61.0358 98.9717 60.9749 98.8802C59.1766 95.3426 57.3784 91.805 55.6106 88.2674C56.3421 87.993 56.9517 87.444 57.226 86.6816C57.5613 85.7667 59.6338 83.022 61.1577 81.2532C62.0416 80.4298 63.0474 79.6369 64.0227 78.8745C64.0532 79.7894 64.1142 80.7958 64.1751 81.8937C63.9618 82.0157 63.7179 82.1071 63.5351 82.2901C63.0779 82.7476 62.0721 83.8149 63.1693 94.5497C63.0169 95.1291 63.0169 95.7696 63.2912 96.3795C63.657 97.1724 64.358 97.6908 65.1504 97.8738C65.2724 97.9043 65.4248 97.9348 65.5467 97.9348C65.6686 97.9348 65.7905 97.9653 65.9124 97.9653C66.0343 97.9653 66.1562 98.0263 66.2782 97.9958C66.7353 97.9348 67.1316 97.7823 67.4668 97.5384C70.4232 96.349 73.4102 96.1965 75.2084 97.1724C76.1532 97.6908 76.9152 98.6057 77.2809 99.6731C77.7686 101.137 77.9515 102.662 77.7686 103.851C77.22 108.151 71.9777 110.652 67.0401 110.926C65.059 106.992 63.0474 103.058 61.0663 99.1242L61.1273 99.1852ZM124.828 92.232C124.675 93.1469 124.431 94.2142 124.066 95.7086C122.511 105.833 114.77 114.708 104.376 118.306C103.371 118.642 102.365 118.947 101.359 119.191C100.292 119.435 99.1951 119.618 98.2807 119.74C91.2097 120.136 84.3215 118.581 79.4449 115.501C79.4449 115.501 78.1343 114.677 76.8542 113.701C80.2069 111.75 82.7976 108.792 83.3157 104.705C83.7424 101.991 83.0414 99.3071 82.5842 97.9653C81.7918 95.6171 80.1155 93.6043 77.9819 92.4149C75.4217 91.0121 72.0996 90.7071 68.5945 91.5001C68.5031 90.0972 68.4117 88.5114 68.3507 87.2001C78.9573 88.115 114.587 91.1341 124.889 92.0185C124.889 92.0795 124.889 92.171 124.858 92.2625L124.828 92.232ZM122.542 83.7844C121.231 82.7781 119.646 81.1008 119.494 78.661C119.402 77.5327 119.677 76.0383 120.256 74.605C120.683 73.5681 121.505 72.7142 122.481 72.2263C124.462 71.3114 127.723 71.7383 130.74 73.3547C132.082 74.0561 133.727 73.5681 134.459 72.2263C135.16 70.8845 134.672 69.2376 133.331 68.5057C132.874 68.2617 132.417 68.0483 131.96 67.8653C132.965 66.127 134.002 64.4192 134.947 62.6809C135.038 62.5284 135.129 62.3149 135.221 62.1625C139.732 63.9008 142.566 66.554 143.785 70.244C144.883 73.5071 144.486 77.1972 142.688 80.3384C140.92 83.449 137.994 85.6752 134.672 86.4072C130.68 87.261 125.681 86.2242 122.542 83.8149V83.7844Z" fill="#68B43F"/>
<path d="M28.9418 159.782C26.1072 160.666 23.2118 161.245 20.3163 161.489C20.4077 160.605 20.4687 159.721 20.4382 158.836C20.4382 158.257 20.3773 157.708 20.3468 157.128C22.9984 156.945 25.6501 156.488 28.1798 155.543C28.2712 155.512 28.3627 155.421 28.4541 155.39C29.0332 155.177 29.4904 154.78 29.7647 154.262C29.7647 154.262 29.7647 154.262 29.7647 154.231C29.8561 154.048 29.978 153.865 30.039 153.652C30.039 153.56 30.039 153.469 30.0695 153.377C30.0695 153.316 30.0695 153.255 30.0695 153.194C30.5571 150.358 30.5876 147.461 30.5571 144.594C30.5571 143.192 30.7095 141.636 30.3438 140.264C29.8561 138.434 28.5151 137.275 26.6863 136.879C24.9491 136.513 23.0899 136.452 21.3221 136.36C19.6153 136.269 17.9085 136.208 16.2322 136.238C12.7271 136.299 9.25255 136.665 5.80847 137.275C4.55884 137.489 3.85783 138.831 3.88831 140.05C3.88831 140.05 3.88831 140.081 3.88831 140.111C3.94927 142.948 3.97975 145.784 4.01022 148.62C4.01022 149.992 4.01022 151.365 4.07118 152.706C4.10166 153.926 4.40645 155.055 5.50368 155.756C6.35708 156.305 7.3324 156.336 8.33819 156.458C10.5022 156.732 12.6966 156.976 14.9216 157.128C15.013 158.592 15.013 160.087 14.8911 161.55C11.6604 161.367 8.46011 160.819 5.32081 159.843C1.99863 158.806 0.596616 164.021 3.88831 165.027C12.4833 167.711 21.7793 167.68 30.3743 164.966C33.666 163.929 32.2639 158.714 28.9418 159.782ZM9.49638 152.767C9.52686 152.95 9.58782 153.011 9.49638 152.767V152.767ZM10.045 151.304C9.83165 151.304 9.64877 151.243 9.43542 151.243C9.43542 150.938 9.43542 150.602 9.43542 150.297C9.43542 149.108 9.40495 147.919 9.37447 146.76C9.37447 145.265 9.34399 143.741 9.31351 142.246C14.2511 141.575 19.2495 141.545 24.2176 142.002C24.5528 142.033 24.8881 142.063 25.2234 142.094C25.2234 143.161 25.2234 144.259 25.2538 145.326C25.2538 147.156 25.2538 149.169 25.071 150.907C22.5717 151.609 20.042 151.914 17.4208 151.883C15.775 151.883 14.1291 151.761 12.5138 151.609C11.6908 151.517 10.8679 151.426 10.0755 151.334L10.045 151.304Z" fill="#68B43F"/>
<path d="M60.8226 159.782C53.1115 162.221 44.9432 162.252 37.2017 159.843C33.8795 158.806 32.4775 164.021 35.7692 165.027C39.1523 166.094 42.6878 166.704 46.1929 166.918C46.1929 167.253 46.1319 167.589 46.1319 167.924C46.1319 169.205 46.3148 170.516 46.5281 171.797C46.65 172.438 47.2291 173.078 47.7778 173.414C48.3569 173.749 49.2103 173.902 49.8503 173.688C50.4904 173.475 51.1304 173.078 51.4657 172.438C51.8314 171.767 51.8924 171.096 51.74 170.364C51.74 170.211 51.679 170.059 51.679 169.906C51.5571 168.931 51.5571 167.924 51.5876 166.948C55.1841 166.735 58.7805 166.094 62.2246 164.997C65.5163 163.96 64.1143 158.745 60.7921 159.812L60.8226 159.782Z" fill="#68B43F"/>
<path d="M35.9518 152.585C35.9213 153.805 36.8357 154.841 37.9329 155.177C45.004 157.434 52.6236 157.617 59.7861 155.695C63.1388 154.811 61.7063 149.596 58.3536 150.511C52.7456 152.005 46.9546 151.975 41.377 150.541C41.377 147.797 41.2551 145.022 41.2246 142.277C47.4423 143.497 53.6904 143.558 59.9995 142.521C61.432 142.277 62.2244 140.508 61.8891 139.197C61.4624 137.672 60.0299 137.092 58.567 137.306C52.075 138.373 45.6136 138.068 39.274 136.33C39.1521 136.3 39.0302 136.33 38.9082 136.33C38.7863 136.33 38.6949 136.269 38.573 136.269C38.512 136.269 38.4511 136.3 38.3901 136.3C38.1768 136.3 37.9634 136.361 37.7805 136.422C37.6586 136.452 37.5062 136.513 37.3843 136.574C37.2624 136.635 37.1405 136.726 37.0186 136.818C36.3785 137.306 35.9213 138.068 35.8909 138.922C35.7385 143.466 36.1652 147.98 36.0128 152.524L35.9518 152.585Z" fill="#68B43F"/>
<path d="M128.181 159.995C120.469 162.435 112.301 162.465 104.56 160.056C101.237 159.019 99.8354 164.234 103.127 165.24C106.693 166.338 110.411 166.979 114.13 167.162C114.13 167.497 114.069 167.802 114.069 168.138C114.069 169.418 114.252 170.73 114.465 172.011C114.587 172.651 115.166 173.292 115.715 173.627C116.294 173.962 117.147 174.115 117.787 173.901C118.427 173.688 119.067 173.292 119.403 172.651C119.768 171.98 119.829 171.309 119.677 170.577C119.677 170.425 119.616 170.272 119.616 170.12C119.494 169.113 119.494 168.138 119.525 167.131C122.938 166.887 126.321 166.247 129.613 165.21C132.905 164.173 131.503 158.958 128.181 160.026V159.995Z" fill="#68B43F"/>
<path d="M103.798 154.841C103.859 155.969 104.59 157.067 105.718 157.311C112.575 158.775 119.677 158.806 126.535 157.311C127.662 157.067 128.394 155.969 128.455 154.872C128.638 154.506 128.79 154.109 128.79 153.652C129.034 148.803 129.217 143.923 129.826 139.074C130.009 137.672 128.455 136.33 127.144 136.391C125.529 136.452 124.645 137.58 124.462 139.074C124.31 140.355 124.218 141.636 124.127 142.917C118.884 143.862 113.49 143.862 108.247 142.917C108.126 141.606 108.065 140.294 107.912 138.983C107.729 137.58 106.784 136.208 105.23 136.299C103.919 136.36 102.365 137.489 102.548 138.983C103.158 143.862 103.34 148.803 103.584 153.713C103.584 154.079 103.706 154.445 103.828 154.78L103.798 154.841ZM123.731 148.467C123.67 149.779 123.578 151.09 123.517 152.401C118.671 153.225 113.703 153.225 108.857 152.401C108.796 151.09 108.735 149.779 108.644 148.467C113.642 149.199 118.702 149.199 123.7 148.467H123.731Z" fill="#68B43F"/>
<path d="M158.995 160.605C158.903 159.507 158.233 158.226 157.014 158.013C153.691 157.403 150.278 157.281 146.925 157.311C143.542 157.311 140.159 157.525 136.837 158.074C135.404 158.318 134.612 160.087 134.947 161.398C135.374 162.923 136.806 163.502 138.269 163.289C138.422 163.289 138.574 163.228 138.757 163.228C138.757 163.228 138.818 163.228 138.879 163.228C139.001 163.228 139.153 163.197 139.214 163.197C139.366 163.197 139.519 163.167 139.671 163.136C140.433 163.045 141.195 162.984 141.988 162.923C143.664 162.801 145.31 162.74 146.986 162.74C148.601 162.74 150.247 162.74 151.863 162.831C152.503 162.862 153.143 162.923 153.752 162.984C153.752 163.533 153.813 164.112 153.813 164.661C151.649 164.539 149.455 164.478 147.291 164.478C144.213 164.478 141.134 164.57 138.086 164.844C136.623 164.966 135.404 166.003 135.404 167.528C135.404 168.9 136.654 170.333 138.086 170.211C141.134 169.967 144.213 169.876 147.291 169.845C149.302 169.845 151.345 169.876 153.356 169.998C153.356 170.12 153.295 170.242 153.265 170.364C152.35 173.719 157.532 175.152 158.446 171.797C158.812 170.486 158.995 169.114 159.117 167.741C159.117 167.68 159.178 167.589 159.178 167.528C159.178 167.497 159.178 167.467 159.178 167.436C159.33 165.149 159.269 162.862 159.056 160.636L158.995 160.605Z" fill="#68B43F"/>
<path d="M138.787 148.498C138.817 148.559 138.848 148.651 138.909 148.712C138.909 148.712 138.848 148.59 138.787 148.498Z" fill="#68B43F"/>
<path d="M145.614 155.39C148.509 154.506 150.673 152.249 151.435 149.444C152.289 149.352 153.173 149.352 154.026 149.383C154.026 149.383 154.026 149.383 154.026 149.413C154.026 149.566 153.965 150.572 153.996 149.779C153.996 150.846 153.569 152.066 153.203 153.073C152.715 154.506 153.782 156.336 155.245 156.671C156.861 157.037 158.293 156.183 158.842 154.628C159.726 152.097 160 149.291 160 146.638C160 143.924 159.604 141.088 158.72 138.495C158.232 137.062 156.708 135.964 155.123 136.452C153.691 136.91 152.563 138.495 153.081 140.051C153.447 141.149 153.721 142.277 153.904 143.436C153.904 143.466 153.904 143.527 153.904 143.558C152.959 143.527 152.045 143.558 151.1 143.619C149.972 140.478 147.412 137.946 143.968 137.428C143.816 137.428 143.694 137.428 143.541 137.428C143.42 137.428 143.328 137.367 143.176 137.337C139.518 136.879 135.434 138.892 133.758 142.216C132.02 145.632 132.264 150.054 134.794 153.012C136.013 154.415 137.872 155.238 139.671 155.573C141.621 155.939 143.633 155.97 145.553 155.39H145.614ZM139.061 148.986C139.061 148.986 138.939 148.834 138.939 148.773C138.939 148.773 138.939 148.742 138.939 148.712C138.939 148.712 138.909 148.712 138.848 148.62C138.848 148.59 138.848 148.529 138.817 148.498C138.817 148.437 138.756 148.376 138.726 148.346C138.787 148.437 138.787 148.437 138.817 148.498C138.726 148.193 138.634 147.919 138.573 147.614C138.573 147.553 138.573 147.522 138.573 147.461C138.573 147.156 138.573 146.851 138.573 146.516C138.573 146.424 138.573 146.363 138.573 146.272C138.634 145.967 138.695 145.632 138.787 145.327C138.787 145.266 138.817 145.174 138.848 145.113C138.878 145.022 138.939 144.961 138.97 144.869C139.031 144.747 139.122 144.625 139.213 144.503C139.427 144.29 139.732 144.046 139.914 143.832C140.036 143.741 140.189 143.649 140.341 143.558C140.463 143.497 140.585 143.436 140.737 143.344C141.073 143.222 141.408 143.131 141.743 143.07C141.865 143.07 142.078 143.039 142.139 143.039C142.383 143.039 142.627 143.039 142.871 143.07C143.145 143.131 143.42 143.192 143.694 143.253C143.724 143.253 143.694 143.253 143.755 143.253C143.877 143.314 143.999 143.375 144.121 143.436C144.273 143.527 144.395 143.619 144.517 143.68C144.73 143.863 144.913 144.076 145.096 144.259C145.157 144.351 145.218 144.442 145.279 144.534C145.401 144.747 145.523 144.961 145.614 145.174C145.644 145.296 145.705 145.388 145.736 145.51C145.827 145.784 145.888 146.089 145.949 146.363C145.949 146.424 145.949 146.485 145.949 146.546C145.949 146.821 145.949 147.095 145.949 147.4C145.949 147.37 145.949 147.339 145.98 147.309C145.98 147.37 145.98 147.431 145.949 147.461C145.949 147.583 145.919 147.644 145.888 147.705C145.888 147.797 145.827 147.919 145.797 148.01C145.797 148.102 145.705 148.224 145.675 148.285C145.705 148.224 145.736 148.163 145.827 148.01C145.705 148.224 145.614 148.468 145.492 148.681C145.401 148.803 145.309 148.925 145.248 149.047C145.279 148.986 145.309 148.956 145.309 148.925C145.248 149.017 145.157 149.078 145.096 149.139C144.852 149.23 144.578 149.444 144.334 149.596C144.212 149.627 144.06 149.688 143.938 149.718C143.724 149.779 143.42 149.81 143.176 149.871C143.023 149.871 142.84 149.871 142.688 149.871C142.353 149.871 141.987 149.871 141.652 149.871H141.591C141.652 149.871 141.682 149.871 141.743 149.901C141.591 149.871 141.408 149.84 141.256 149.81C140.981 149.749 140.707 149.688 140.433 149.627C140.28 149.596 140.128 149.535 139.975 149.474C139.823 149.352 139.549 149.2 139.335 149.078C139.274 149.017 139.213 148.956 139.152 148.895C139.152 148.925 139.153 148.925 139.183 148.986C139.183 148.956 139.122 148.895 139.122 148.864L139.061 148.986ZM139.305 149.2C139.518 149.383 139.671 149.383 139.305 149.2V149.2Z" fill="#68B43F"/>
<path d="M138.939 148.772C138.939 148.772 139.031 148.925 139.061 148.986C139.061 148.986 139.061 148.986 139.092 149.016C138.97 148.742 138.909 148.711 138.909 148.772H138.939Z" fill="#68B43F"/>
<path d="M145.888 147.766C145.888 147.766 145.888 147.674 145.919 147.644C145.919 147.613 145.919 147.552 145.919 147.522C145.919 147.522 145.919 147.491 145.919 147.461C145.797 147.796 145.827 147.857 145.858 147.766H145.888Z" fill="#68B43F"/>
<path d="M145.31 148.986C145.492 148.803 145.523 148.589 145.31 148.986V148.986Z" fill="#68B43F"/>
<path d="M141.53 149.962C141.073 149.84 141.316 149.932 141.53 149.962V149.962Z" fill="#68B43F"/>
<path d="M76.1233 153.957C76.1233 153.957 76.1538 153.957 76.2147 153.987C76.3062 154.018 76.3976 154.079 76.489 154.14C76.2147 154.018 76.7329 154.201 76.8243 154.231C77.0681 154.292 77.312 154.353 77.5558 154.384C77.6777 154.384 77.8301 154.384 77.952 154.414C78.4092 154.445 78.8968 154.475 79.354 154.475C79.5369 154.475 79.7503 154.475 79.9331 154.475C79.9941 154.475 80.116 154.475 80.1465 154.445C80.2684 154.445 80.3598 154.384 80.4817 154.384C80.6341 154.353 80.7865 154.292 80.9694 154.231C80.9694 154.231 80.9694 154.231 80.9999 154.231C81.2132 154.109 81.4266 153.987 81.6399 153.865C81.6399 153.865 81.7009 153.804 81.7314 153.774C81.7923 153.713 81.8533 153.652 81.9142 153.591C81.9752 153.53 82.0057 153.499 82.0666 153.438C82.0666 153.438 82.1581 153.316 82.1885 153.286C82.2495 153.164 82.3105 153.072 82.3714 152.95C82.3714 152.95 82.4629 152.767 82.4933 152.706C82.4933 152.645 82.5238 152.615 82.5238 152.584C82.5238 152.493 82.5848 152.401 82.6152 152.279C82.6152 152.218 82.6152 152.096 82.6457 152.066C82.6457 152.005 82.6457 151.944 82.6457 151.883C82.6457 151.7 82.6457 151.548 82.6457 151.365C82.6457 151.304 82.5848 151.121 82.5848 151.09C82.5848 150.999 82.5238 150.877 82.4933 150.785C82.4933 150.724 82.4324 150.663 82.4324 150.572C82.4324 150.541 82.3409 150.419 82.3409 150.358C82.219 150.145 82.0971 149.931 81.9752 149.718C81.9142 149.626 81.8533 149.565 81.7923 149.474C81.7923 149.474 81.7923 149.474 81.7314 149.413C81.6095 149.291 81.518 149.169 81.3961 149.077C81.3961 149.077 81.3351 149.016 81.3047 149.016C81.2437 148.986 81.1827 148.925 81.0913 148.894C81.0304 148.864 81.0608 148.894 81.0304 148.864C80.7865 148.772 80.5427 148.711 80.2989 148.681C80.2379 148.681 80.0855 148.65 80.055 148.65C79.9941 148.65 79.9026 148.65 79.8417 148.65C79.5979 148.65 79.354 148.65 79.1102 148.65C78.9883 148.65 78.8968 148.65 78.7749 148.65C78.7749 148.65 78.714 148.65 78.6835 148.65C78.6835 148.65 78.4702 148.65 78.4397 148.681C78.3178 148.681 78.2263 148.711 78.1044 148.742C77.8911 148.803 77.6777 148.864 77.4644 148.925C77.4034 148.925 77.4034 148.925 77.3729 148.955C77.2815 148.986 77.2205 149.016 77.1596 149.077C76.9767 149.169 76.7938 149.321 76.5805 149.413C76.489 149.504 76.4281 149.565 76.3366 149.626C76.2452 149.718 76.1843 149.779 76.0928 149.87C76.0014 150.084 75.849 150.297 75.7271 150.48C75.6966 150.572 75.6661 150.663 75.6356 150.785C75.5442 151.06 75.4832 151.304 75.4223 151.578C75.4223 151.67 75.3918 151.792 75.3613 151.883C75.3613 151.914 75.3613 152.035 75.3613 152.035C75.3613 152.737 75.6052 153.408 76.0623 153.896C76.0928 153.926 76.0928 153.957 76.1233 153.957Z" fill="#68B43F"/>
<path d="M96.3299 151.426C96.2385 150.968 96.1471 150.511 96.0251 150.053C95.9337 149.535 95.8118 149.047 95.6289 148.59C95.4461 148.132 95.2327 147.705 94.9889 147.309C94.5317 146.546 93.9526 145.784 93.2211 145.052C92.9468 144.778 92.642 144.503 92.3372 144.259C92.0324 144.015 91.7581 143.832 91.5143 143.71C90.8133 143.314 90.1428 142.948 89.4418 142.612C89.0455 142.399 88.6493 142.246 88.2531 142.094C87.8569 141.941 87.4606 141.819 87.0035 141.697C86.8816 141.606 86.7292 141.545 86.5463 141.484C86.3634 141.423 86.1805 141.392 85.9672 141.392C85.7538 141.301 85.571 141.27 85.3881 141.27C85.2052 141.27 85.0224 141.24 84.87 141.148C84.5347 141.057 84.1994 140.996 83.8032 140.965C83.407 140.935 83.0717 140.904 82.7365 140.904C82.0355 140.782 81.3344 140.782 80.603 140.904C79.5362 140.904 78.5304 140.996 77.5856 141.179C76.6407 141.362 75.7568 141.667 74.9339 142.063C73.9891 142.399 73.1662 142.795 72.4652 143.283C71.7641 143.771 71.0631 144.351 70.4231 145.052C69.783 145.631 69.2039 146.272 68.7468 147.034C68.2896 147.797 67.8324 148.59 67.4362 149.443C67.1009 150.328 66.8571 151.243 66.6742 152.158C66.4913 153.073 66.3999 154.079 66.3999 155.116C66.3999 156.153 66.4609 157.129 66.6133 158.104C66.7656 159.08 67.04 160.087 67.4362 161.154C68.1372 163.289 69.2954 164.905 70.9107 166.034C71.3679 166.43 71.8251 166.765 72.3128 167.04C72.8004 167.314 73.3186 167.589 73.8976 167.863C74.9034 168.351 75.9702 168.687 77.0674 168.839C77.3417 168.839 77.616 168.839 77.8904 168.9C78.1647 168.931 78.439 168.961 78.7742 168.961C79.0181 169.053 79.2619 169.083 79.5362 169.083H80.2982C80.5115 169.175 80.6944 169.205 80.8773 169.205H82.4926C82.706 169.114 82.8888 169.083 83.0717 169.083H84.1385C84.3518 169.083 84.5347 169.053 84.7481 168.961C85.3271 168.839 85.8758 168.717 86.4244 168.626C86.973 168.534 87.5216 168.382 88.0397 168.229C88.6188 168.107 89.1675 167.924 89.6856 167.68C90.2037 167.436 90.7523 167.162 91.2705 166.826C91.9715 166.339 92.5811 165.82 93.1297 165.302C93.6783 164.783 94.166 164.173 94.6231 163.472C95.3851 162.13 95.9032 160.666 96.1471 159.08C96.269 158.836 96.3604 158.562 96.3909 158.226C96.4214 157.891 96.4823 157.586 96.5738 157.251C96.5738 157.007 96.5738 156.732 96.6347 156.427C96.6652 156.122 96.6957 155.848 96.6957 155.604C96.7871 155.085 96.7871 154.597 96.7566 154.14C96.7262 153.682 96.6652 153.256 96.5738 152.798C96.4823 152.341 96.4214 151.883 96.3299 151.426ZM73.6538 147.522C75.1473 145.723 77.6465 144.961 79.9019 145.143C81.6697 145.296 83.2241 145.814 84.3823 147.217C85.3881 148.498 86.1196 150.023 86.1196 151.67C86.1196 154.628 83.8946 157.159 80.9992 157.708C79.6276 157.952 78.2561 157.861 76.8846 157.678C75.3606 157.464 74.0196 156.885 73.0747 155.604C71.307 153.225 71.7946 149.718 73.6233 147.522H73.6538ZM90.7219 163.899C90.4171 164.753 89.5637 165.332 88.6493 165.088C87.7959 164.844 87.1559 163.868 87.4606 163.014C87.5216 162.831 87.5521 162.648 87.613 162.435C85.3576 163.075 83.0412 163.472 80.7249 163.441C77.9208 163.441 75.1473 162.831 72.4956 161.917C71.6422 161.612 71.0631 160.758 71.307 159.843C71.5508 158.989 72.5261 158.348 73.3795 158.653C75.7569 159.477 78.1951 160.056 80.7249 160.056C83.2851 160.056 85.7843 159.507 88.2226 158.714C88.2836 158.714 88.314 158.714 88.375 158.714C88.4969 157.495 88.5579 156.305 88.5579 155.085C88.5579 152.371 88.2226 149.596 87.3387 147.004C87.034 146.119 87.674 145.143 88.5274 144.93C89.4418 144.686 90.3256 145.235 90.6 146.119C91.5753 148.986 91.9105 152.097 91.941 155.085C91.941 158.043 91.6972 161.124 90.7219 163.899Z" fill="#68B43F"/>
</svg>
