<svg width="86" height="92" viewBox="0 0 86 92" fill="none" xmlns="http://www.w3.org/2000/svg">
<path d="M35.5315 23.9829C34.8865 24.128 34.4834 24.7568 34.6124 25.4018C34.6769 25.7082 34.8542 25.9823 35.1284 26.1597C35.3219 26.2887 35.5476 26.3532 35.7733 26.3532C35.854 26.3532 35.9346 26.3532 36.0313 26.3209C36.3377 26.2564 36.6118 26.0629 36.7892 25.8049C36.9666 25.5308 37.0149 25.2245 36.9504 24.902C36.8214 24.257 36.1765 23.8539 35.5315 23.9829Z" fill="#68B43F"/>
<path d="M44.3193 23.87C44.3999 23.87 44.4805 23.87 44.5611 23.8378C44.8675 23.7733 45.1416 23.5798 45.319 23.3218C45.4963 23.0638 45.5447 22.7413 45.4802 22.4188C45.4157 22.1124 45.2222 21.8383 44.9642 21.6609C44.6901 21.4836 44.3838 21.4352 44.0613 21.4997C43.4163 21.6448 43.0132 22.2737 43.1422 22.9187C43.255 23.483 43.7549 23.8539 44.3031 23.8539L44.3193 23.87Z" fill="#68B43F"/>
<path d="M38.3211 30.1747C38.3211 30.1747 39.74 31.3034 41.4976 31.3034C41.804 31.3034 42.1426 31.2712 42.4651 31.1906C44.013 30.8197 45.2708 29.5942 46.1899 27.5625C46.4479 26.9982 46.1899 26.3532 45.6416 26.0952C45.0773 25.8372 44.4323 26.0952 44.1743 26.6434C43.5616 28.014 42.8198 28.8203 41.9652 29.0299C40.8204 29.3201 39.7078 28.4494 39.6917 28.4494C39.224 28.0624 38.5146 28.143 38.1437 28.6268C37.7567 29.1105 37.8373 29.8039 38.3049 30.1909L38.3211 30.1747Z" fill="#68B43F"/>
<path d="M40.0943 23.1767C39.5138 23.0154 38.885 23.3379 38.7237 23.9345C38.5625 24.4666 38.5463 25.5953 39.4171 26.4499C39.6267 26.6596 39.9169 26.7563 40.1911 26.7563C40.4652 26.7563 40.7715 26.6434 40.9812 26.4177C41.4004 25.9823 41.4004 25.2728 40.9489 24.8536C40.8199 24.7407 40.836 24.5795 40.8522 24.515C40.9973 23.9345 40.6587 23.3379 40.0782 23.1767H40.0943Z" fill="#68B43F"/>
<path d="M40.5465 8.10017C29.6624 9.05152 21.5195 11.5992 21.1809 11.7121C20.4231 11.9539 19.9877 12.7602 20.2296 13.5342C20.4231 14.1469 21.0035 14.55 21.6163 14.55C21.7614 14.55 21.9065 14.5339 22.0516 14.4855C22.1323 14.4533 30.259 11.9378 40.8045 11.0026C41.5946 10.9381 42.1912 10.2286 42.1267 9.43851C42.0622 8.64841 41.3527 8.0518 40.5626 8.1163L40.5465 8.10017Z" fill="#68B43F"/>
<path d="M49.6725 15.2756C49.5919 14.4855 48.8824 13.905 48.0923 13.9695C32.0645 15.5497 23.0509 19.0004 22.68 19.1455C21.9383 19.4357 21.5674 20.2742 21.8577 21.0159C22.0834 21.5964 22.6317 21.935 23.2121 21.935C23.3895 21.935 23.5669 21.9028 23.7281 21.8383C23.8249 21.806 32.7901 18.3715 48.3826 16.8397C49.1727 16.7591 49.7532 16.0496 49.6887 15.2595L49.6725 15.2756Z" fill="#68B43F"/>
<path d="M82.5829 63.3268H76.778C76.0202 55.7483 74.6012 50.4272 73.8595 48.0246C75.7783 47.2345 77.4069 45.7994 78.4711 43.9128C79.8256 41.5264 80.1158 38.7368 79.2773 36.2214C78.3421 33.4157 76.2298 31.3841 72.9887 30.1425C73.0371 29.8361 73.0855 29.5297 73.0855 29.2072C73.0855 27.7399 72.3599 26.3371 71.1667 25.5147C69.6348 24.4666 67.6193 24.515 66.1197 25.6598C65.6359 26.0307 65.1845 26.5144 64.733 27.1594C64.3621 27.6915 64.0396 28.2398 63.7494 28.788C63.2173 28.788 62.6851 28.8041 62.1692 28.8525C61.1694 28.9492 60.0891 29.0621 59.041 29.2395L58.912 28.4655C58.267 25.3535 59.0732 24.5956 60.9921 22.7252C63.1689 20.629 62.8303 18.0813 62.3304 17.0332C61.7177 15.3079 60.0407 14.8402 58.5734 14.8886C57.4285 7.93893 54.8002 3.66592 54.6229 3.40793C49.3018 -3.92875 22.8414 2.74682 19.8422 3.5208C19.0682 3.73042 18.6006 4.52052 18.8102 5.2945C19.0198 6.06848 19.8099 6.53609 20.5839 6.32647C31.1778 3.55305 49.1405 0.763499 52.2203 5.02038C52.2526 5.06876 54.9937 9.56751 55.8967 16.6946C55.9451 17.1138 56.1708 17.4685 56.5256 17.7104C56.8642 17.9362 57.2995 18.0168 57.7027 17.92C58.396 17.7427 59.4925 17.7588 59.6376 18.1297C59.7344 18.3554 60.1536 19.5325 58.9765 20.6612C56.8964 22.6768 55.0905 24.4021 56.0579 29.0137L56.4127 31.1583L56.5578 35.9957C56.5578 36.4633 55.6548 36.8664 55.3968 36.9309C51.8494 37.7371 44.8353 39.3173 43.6098 39.527C43.4969 39.5431 43.2228 39.5915 43.0616 39.4141L42.6262 36.818C42.7391 36.7858 42.8358 36.7858 42.9487 36.7535L44.6418 36.2214C45.3996 35.9795 45.8189 35.1572 45.577 34.3993C45.3351 33.6415 44.5289 33.2222 43.7549 33.4641L42.1102 33.9801C38.4499 34.9798 35.6926 34.6896 33.8706 33.1577C30.4844 30.2876 31.1133 23.8216 31.1294 23.7571C31.21 22.967 30.6295 22.2414 29.8394 22.1608C29.0332 22.0802 28.3237 22.6445 28.2431 23.4508C28.2108 23.7733 27.4369 31.4808 31.984 35.3507C33.0966 36.302 34.4188 36.8987 35.9184 37.205C35.6604 37.3501 35.4024 37.4791 35.1444 37.6404C34.967 37.721 34.8058 37.8178 34.6768 37.9467C33.2578 38.8336 31.9034 39.8333 30.694 40.9459C30.2909 41.4135 29.1299 42.768 28.4366 43.929C27.8883 42.8486 27.3401 41.7521 26.7919 40.6718C26.5823 40.2526 26.0824 40.0107 25.6309 40.0107C17.6815 39.9139 9.73208 39.8333 1.78267 39.7366C0.702327 39.7366 0.186341 40.8814 0.621704 41.7683C2.41153 45.4285 4.20136 49.0888 5.99118 52.733C4.28198 56.4416 2.57278 60.1503 0.863573 63.875C0.444334 64.778 0.928071 65.8906 2.02454 65.9067C9.82883 65.9712 17.6331 66.0357 25.4213 66.1164L28.7429 66.1486H37.4986C38.5628 66.1486 39.111 65.0199 38.6595 64.1169C38.2081 63.2301 37.7566 62.3432 37.3051 61.4564C37.5631 61.408 37.8049 61.3435 38.0629 61.2951C38.1274 61.408 38.1919 61.5209 38.3048 61.6176C39.2884 62.5206 40.8202 63.4881 40.8847 63.5364C44.4805 65.7777 48.56 66.2454 51.3173 66.2454C51.8011 66.2454 52.2526 66.2454 52.6395 66.2131C53.3168 66.1325 53.994 66.0196 54.6551 65.8745C55.3001 65.7294 55.929 65.5359 56.5578 65.3263C63.056 63.0688 67.9095 57.4897 68.8609 51.2334C69.0544 50.5078 69.1995 49.8467 69.2962 49.2984C69.3285 49.0888 69.3607 48.9114 69.393 48.718C69.6187 48.718 69.8606 48.7663 70.0863 48.7663C70.3927 48.7663 70.6829 48.7502 70.9893 48.718C71.6504 50.8303 73.0694 55.974 73.8272 63.3429H67.2968C66.4905 63.3429 65.8456 63.9879 65.8456 64.7941C65.8456 65.6004 66.4905 66.2454 67.2968 66.2454H75.4236C75.4236 66.2454 75.4236 66.2454 75.4397 66.2454H82.5345C83.3407 66.2454 83.9857 65.6004 83.9857 64.7941C83.9857 63.9879 83.3407 63.3429 82.5345 63.3429L82.5829 63.3268ZM67.1194 28.8364C67.4096 28.4333 67.6515 28.1591 67.8934 27.9656C68.3771 27.5948 69.0544 27.5787 69.5381 27.9011C69.9412 28.1753 70.1992 28.6912 70.1992 29.1911C70.1992 30.0457 69.78 30.9164 69.3285 31.7388C68.7157 32.8675 68.0546 33.964 67.4096 35.0766C66.1842 34.9476 65.0232 35.1088 64.0396 35.5603C63.959 35.6087 63.8784 35.6571 63.7977 35.7054C63.7977 35.6732 63.8139 35.6409 63.83 35.6248C64.2976 34.4477 64.7813 33.2222 65.0716 32.6579C65.2812 32.2548 65.4908 31.8355 65.6843 31.4163C66.1358 30.4811 66.5712 29.5942 67.1194 28.8202V28.8364ZM60.8631 40.4138C60.7986 40.8653 60.7663 41.3329 60.7986 41.8166C60.8792 43.1066 61.3952 44.3159 62.2659 45.3802C59.5731 45.1544 56.2353 44.8642 52.8492 44.5739C53.1072 44.1386 53.4619 43.6871 53.8973 43.2679C56.0096 41.2362 58.8314 40.5912 60.8631 40.4138ZM62.2982 31.7549C61.9595 32.4805 61.5564 33.4802 61.1372 34.5767C60.718 35.6571 60.2503 36.8342 59.8956 37.6081C59.5731 37.6565 59.2506 37.7049 58.9281 37.7533C59.2506 37.2534 59.4764 36.6568 59.4764 35.9473L59.3635 32.1419C60.2987 31.9645 61.3307 31.8517 62.282 31.771L62.2982 31.7549ZM43.4647 42.4294C43.6743 42.4294 43.8839 42.4133 44.1097 42.381C45.1255 42.2198 49.4469 41.2523 52.6234 40.5267C52.3654 40.7363 52.1074 40.9459 51.8817 41.1878C51.1722 41.8811 50.2692 42.9776 49.8016 44.3159C44.7546 43.8806 39.9656 43.4775 37.3535 43.2517C37.2567 41.7844 37.2245 40.5589 37.2245 39.8011C38.1274 39.2851 39.0788 38.8497 40.014 38.4627L40.2881 40.1397C40.3043 40.2687 40.3526 40.3816 40.401 40.4944C40.7235 41.2039 41.7393 42.4132 43.4808 42.4132L43.4647 42.4294ZM29.4363 51.7171C22.4221 51.6043 15.3918 51.4914 8.37762 51.3624C6.92641 48.3793 5.45907 45.4124 4.00786 42.4294C10.9575 42.51 17.9072 42.5906 24.8569 42.6712C26.3888 45.6865 27.9045 48.7018 29.4363 51.7171ZM35.3701 63.4236H30.5328C31.0649 61.279 31.597 59.1344 32.113 56.9899C33.1933 59.1344 34.2898 61.279 35.3701 63.4236ZM5.4107 63.2139C4.99146 63.2139 4.58835 63.2139 4.16911 63.2139C5.57195 60.1664 6.97478 57.1189 8.39374 54.0713C15.5853 54.1842 22.793 54.3132 29.9845 54.426C29.2428 57.4252 28.5011 60.4244 27.7593 63.4236C20.3098 63.3591 12.8602 63.2946 5.4107 63.2301V63.2139ZM32.8063 52.4427C32.8063 52.4427 32.758 52.3299 32.7257 52.2815C31.7744 50.411 30.823 48.5406 29.8878 46.6701C30.2748 46.525 30.5973 46.2348 30.7424 45.8317C30.9198 45.3479 32.0162 43.8967 32.8225 42.9615C33.2901 42.5261 33.8222 42.1069 34.3382 41.7038C34.3543 42.1875 34.3865 42.7196 34.4188 43.3001C34.3059 43.3646 34.1769 43.413 34.0802 43.5097C33.8383 43.7516 33.3062 44.3159 33.8867 49.9918C33.8061 50.2982 33.8061 50.6368 33.9512 50.9593C34.1447 51.3785 34.5155 51.6526 34.9348 51.7494C34.9993 51.7655 35.0799 51.7816 35.1444 51.7816C35.2089 51.7816 35.2734 51.7977 35.3379 51.7977C35.4024 51.7977 35.4669 51.83 35.5314 51.8139C35.7733 51.7816 35.9829 51.701 36.1602 51.572C37.7243 50.9431 39.3045 50.8625 40.2559 51.3785C40.7557 51.6526 41.1589 52.1364 41.3524 52.7007C41.6103 53.4747 41.7071 54.2809 41.6103 54.9098C41.3201 57.1833 38.5467 58.5056 35.9345 58.6507C34.8864 56.5706 33.8222 54.4905 32.7741 52.4105L32.8063 52.4427ZM66.5067 48.7663C66.426 49.2501 66.2971 49.8144 66.1036 50.6045C65.2812 55.9579 61.1856 60.6501 55.6871 62.5528C55.155 62.7302 54.6229 62.8914 54.0908 63.0204C53.5264 63.1494 52.9459 63.2462 52.4622 63.3107C48.7213 63.5203 45.0771 62.698 42.4972 61.0694C42.4972 61.0694 41.8038 60.634 41.1266 60.118C42.9003 59.086 44.2709 57.522 44.545 55.3613C44.7708 53.9262 44.3999 52.5072 44.158 51.7977C43.7388 50.5562 42.8519 49.4919 41.7232 48.8631C40.3688 48.1213 38.6112 47.9601 36.7569 48.3793C36.7085 47.6376 36.6601 46.7991 36.6279 46.1058C42.2392 46.5895 61.0888 48.1858 66.5389 48.6535C66.5389 48.6857 66.5389 48.7341 66.5228 48.7825L66.5067 48.7663ZM65.2973 44.2998C64.604 43.7677 63.7655 42.8809 63.6849 41.5909C63.6365 40.9943 63.7816 40.2042 64.088 39.4463C64.3137 38.8981 64.7491 38.4466 65.2651 38.1886C66.3132 37.7049 68.0385 37.9306 69.6348 38.7852C70.3443 39.1561 71.215 38.8981 71.602 38.1886C71.9729 37.4791 71.7149 36.6084 71.0054 36.2214C70.7635 36.0924 70.5217 35.9795 70.2798 35.8828C70.8119 34.9637 71.3602 34.0607 71.86 33.1416C71.9084 33.061 71.9568 32.9481 72.0051 32.8675C74.3916 33.7866 75.8912 35.1894 76.5361 37.1405C77.1166 38.8658 76.907 40.8169 75.9557 42.4777C75.0204 44.1225 73.4725 45.2995 71.7149 45.6865C69.6026 46.138 66.9582 45.5898 65.2973 44.3159V44.2998Z" fill="#68B43F"/>
<path d="M15.7789 84.4822C14.2793 84.9498 12.7475 85.2562 11.2156 85.3852C11.264 84.9176 11.2962 84.45 11.2801 83.9824C11.2801 83.676 11.2479 83.3858 11.2317 83.0794C12.6346 82.9826 14.0374 82.7408 15.3758 82.2409C15.4241 82.2248 15.4725 82.1764 15.5209 82.1603C15.8272 82.0474 16.0691 81.8378 16.2142 81.5637C16.2142 81.5637 16.2142 81.5637 16.2142 81.5476C16.2626 81.4508 16.3271 81.3541 16.3594 81.2412C16.3594 81.1928 16.3594 81.1444 16.3755 81.0961C16.3755 81.0638 16.3755 81.0316 16.3755 80.9993C16.6335 79.4997 16.6496 77.9679 16.6335 76.4522C16.6335 75.7105 16.7141 74.8881 16.5206 74.1625C16.2626 73.195 15.5531 72.5823 14.5857 72.3727C13.6666 72.1792 12.683 72.1469 11.7477 72.0986C10.8448 72.0502 9.94178 72.0179 9.05493 72.0341C7.20061 72.0663 5.36241 72.2598 3.54033 72.5823C2.87922 72.6952 2.50836 73.4047 2.52448 74.0496C2.52448 74.0496 2.52448 74.0658 2.52448 74.0819C2.55673 75.5815 2.57286 77.0811 2.58898 78.5806C2.58898 79.3063 2.58898 80.0319 2.62123 80.7413C2.63735 81.3863 2.7986 81.9829 3.37908 82.3538C3.83057 82.644 4.34656 82.6602 4.87867 82.7247C6.02351 82.8698 7.18448 82.9988 8.36157 83.0794C8.40995 83.8534 8.40995 84.6435 8.34545 85.4175C6.63625 85.3207 4.94317 85.0305 3.28234 84.5145C1.52476 83.9662 0.783029 86.7235 2.52448 87.2557C7.07161 88.6746 11.9896 88.6585 16.5367 87.2234C18.2782 86.6752 17.5364 83.9179 15.7789 84.4822ZM5.4914 80.7736C5.50753 80.8703 5.53978 80.9026 5.4914 80.7736V80.7736ZM5.78164 79.9996C5.66877 79.9996 5.57202 79.9674 5.45915 79.9674C5.45915 79.8061 5.45915 79.6287 5.45915 79.4675C5.45915 78.8386 5.44303 78.2098 5.4269 77.597C5.4269 76.8069 5.41078 76.0007 5.39465 75.2106C8.00683 74.8559 10.6513 74.8397 13.2796 75.0816C13.4569 75.0977 13.6343 75.1139 13.8117 75.13C13.8117 75.6943 13.8117 76.2748 13.8278 76.8392C13.8278 77.8067 13.8278 78.8709 13.7311 79.79C12.4088 80.1609 11.0705 80.3221 9.68379 80.306C8.81306 80.306 7.94234 80.2415 7.08773 80.1609C6.65237 80.1125 6.21701 80.0641 5.79777 80.0157L5.78164 79.9996Z" fill="#68B43F"/>
<path d="M32.6451 84.4822C28.5656 85.7722 24.2442 85.7883 20.1485 84.5145C18.391 83.9663 17.6492 86.7236 19.3907 87.2557C21.1805 87.82 23.051 88.1425 24.9053 88.2554C24.9053 88.4328 24.873 88.6101 24.873 88.7875C24.873 89.4647 24.9698 90.1581 25.0827 90.8353C25.1472 91.1739 25.4535 91.5125 25.7438 91.6899C26.0501 91.8673 26.5016 91.9479 26.8402 91.835C27.1789 91.7222 27.5175 91.5125 27.6948 91.1739C27.8883 90.8192 27.9206 90.4645 27.84 90.0775C27.84 89.9968 27.8077 89.9162 27.8077 89.8356C27.7432 89.3196 27.7432 88.7875 27.7593 88.2715C29.662 88.1586 31.5647 87.82 33.3868 87.2395C35.1283 86.6913 34.3865 83.934 32.629 84.4984L32.6451 84.4822Z" fill="#68B43F"/>
<path d="M19.4874 80.6768C19.4713 81.3218 19.9551 81.8701 20.5355 82.0474C24.2764 83.2407 28.3076 83.3374 32.0969 82.3216C33.8706 81.8539 33.1127 79.0966 31.339 79.5804C28.3721 80.3705 25.3084 80.3544 22.3576 79.5965C22.3576 78.1453 22.2931 76.678 22.277 75.2267C25.5664 75.8717 28.8719 75.904 32.2097 75.3557C32.9676 75.2267 33.3868 74.2915 33.2094 73.5982C32.9837 72.7919 32.2258 72.4856 31.4519 72.5984C28.0173 73.1628 24.5989 73.0016 21.245 72.0825C21.1805 72.0663 21.116 72.0825 21.0515 72.0825C20.987 72.0825 20.9387 72.0502 20.8742 72.0502C20.8419 72.0502 20.8097 72.0663 20.7774 72.0663C20.6645 72.0663 20.5517 72.0986 20.4549 72.1308C20.3904 72.147 20.3098 72.1792 20.2453 72.2115C20.1808 72.2437 20.1163 72.2921 20.0518 72.3404C19.7132 72.5984 19.4713 73.0016 19.4552 73.453C19.3746 75.8556 19.6003 78.242 19.5197 80.6446L19.4874 80.6768Z" fill="#68B43F"/>
<path d="M68.2808 84.5951C64.2013 85.8851 59.8799 85.9012 55.7843 84.6274C54.0267 84.0791 53.285 86.8364 55.0264 87.3685C56.913 87.949 58.8802 88.2877 60.8474 88.3844C60.8474 88.5618 60.8152 88.723 60.8152 88.9004C60.8152 89.5776 60.9119 90.271 61.0248 90.9482C61.0893 91.2868 61.3956 91.6254 61.6859 91.8028C61.9922 91.9802 62.4437 92.0608 62.7824 91.9479C63.121 91.8351 63.4596 91.6254 63.637 91.2868C63.8304 90.9321 63.8627 90.5773 63.7821 90.1903C63.7821 90.1097 63.7498 90.0291 63.7498 89.9485C63.6853 89.4164 63.6853 88.9004 63.7015 88.3683C65.5074 88.2393 67.2972 87.9007 69.0387 87.3524C70.7801 86.8042 70.0384 84.0469 68.2808 84.6112V84.5951Z" fill="#68B43F"/>
<path d="M55.3808 81.8701C55.4131 82.4667 55.8001 83.0472 56.3967 83.1762C60.0247 83.9501 63.7817 83.9663 67.4097 83.1762C68.0064 83.0472 68.3933 82.4667 68.4256 81.8862C68.5223 81.6927 68.603 81.4831 68.603 81.2412C68.732 78.6774 68.8287 76.0975 69.1512 73.5337C69.248 72.7919 68.4256 72.0825 67.7322 72.1147C66.8776 72.147 66.41 72.7436 66.3133 73.5337C66.2327 74.2109 66.1843 74.8881 66.1359 75.5654C63.3625 76.0652 60.5084 76.0652 57.735 75.5654C57.6705 74.872 57.6383 74.1787 57.5576 73.4853C57.4609 72.7436 56.961 72.018 56.1387 72.0663C55.4453 72.0986 54.623 72.6952 54.7197 73.4853C55.0422 76.0652 55.139 78.6774 55.2679 81.2735C55.2679 81.467 55.3324 81.6604 55.3969 81.8378L55.3808 81.8701ZM65.9263 78.5C65.894 79.1934 65.8457 79.8867 65.8134 80.5801C63.2496 81.0155 60.6213 81.0155 58.0575 80.5801C58.0252 79.8867 57.993 79.1934 57.9446 78.5C60.5891 78.887 63.2657 78.887 65.9102 78.5H65.9263Z" fill="#68B43F"/>
<path d="M84.5825 84.9176C84.5342 84.3371 84.1794 83.6599 83.5344 83.547C81.7769 83.2245 79.9709 83.16 78.1972 83.1762C76.4074 83.1762 74.6176 83.289 72.86 83.5793C72.1021 83.7083 71.6829 84.6435 71.8603 85.3368C72.086 86.1431 72.8439 86.4494 73.6178 86.3366C73.6985 86.3366 73.7791 86.3043 73.8758 86.3043C73.8758 86.3043 73.9081 86.3043 73.9403 86.3043C74.0048 86.3043 74.0855 86.2882 74.1177 86.2882C74.1983 86.2882 74.2789 86.2721 74.3596 86.2559C74.7627 86.2076 75.1658 86.1753 75.585 86.1431C76.4719 86.0786 77.3426 86.0463 78.2295 86.0463C79.0841 86.0463 79.9548 86.0463 80.8094 86.0947C81.148 86.1108 81.4866 86.1431 81.8091 86.1753C81.8091 86.4656 81.8414 86.7719 81.8414 87.0622C80.6965 86.9977 79.5356 86.9654 78.3907 86.9654C76.7621 86.9654 75.1335 87.0138 73.5211 87.1589C72.7471 87.2234 72.1021 87.7717 72.1021 88.5779C72.1021 89.3035 72.7632 90.0613 73.5211 89.9968C75.1335 89.8678 76.7621 89.8195 78.3907 89.8033C79.4549 89.8033 80.5353 89.8195 81.5995 89.884C81.5995 89.9485 81.5672 90.013 81.5511 90.0775C81.0674 91.8512 83.8086 92.609 84.2923 90.8353C84.4858 90.142 84.5825 89.4164 84.647 88.6907C84.647 88.6585 84.6793 88.6101 84.6793 88.5779C84.6793 88.5618 84.6793 88.5456 84.6793 88.5295C84.7599 87.3202 84.7277 86.1108 84.6148 84.9337L84.5825 84.9176Z" fill="#68B43F"/>
<path d="M73.8916 78.5162C73.9077 78.5484 73.9239 78.5968 73.9561 78.6291C73.9561 78.6291 73.9239 78.5646 73.8916 78.5162Z" fill="#68B43F"/>
<path d="M77.5036 82.1603C79.0355 81.6927 80.1803 80.4995 80.5834 79.016C81.0349 78.9676 81.5025 78.9676 81.954 78.9838C81.954 78.9838 81.954 78.9838 81.954 78.9999C81.954 79.0805 81.9218 79.6126 81.9379 79.1934C81.9379 79.7577 81.7122 80.4027 81.5187 80.9348C81.2607 81.6927 81.825 82.6602 82.599 82.8375C83.4536 83.031 84.2115 82.5795 84.5017 81.7572C84.9693 80.4188 85.1144 78.9354 85.1144 77.5325C85.1144 76.0975 84.9048 74.5979 84.4372 73.2273C84.1792 72.4694 83.373 71.8889 82.5345 72.1469C81.7767 72.3888 81.18 73.2273 81.4542 74.0496C81.6477 74.6301 81.7928 75.2267 81.8895 75.8395C81.8895 75.8556 81.8895 75.8878 81.8895 75.904C81.3897 75.8878 80.9059 75.904 80.4061 75.9362C79.8095 74.2754 78.455 72.937 76.6329 72.6629C76.5523 72.6629 76.4878 72.6629 76.4072 72.6629C76.3427 72.6629 76.2943 72.6307 76.2137 72.6146C74.2787 72.3727 72.118 73.4369 71.2312 75.1945C70.3121 77.0004 70.4411 79.3385 71.7794 80.9026C72.4244 81.6443 73.408 82.0797 74.3594 82.257C75.3913 82.4505 76.4555 82.4667 77.4714 82.1603H77.5036ZM74.0369 78.7741C74.0369 78.7741 73.9724 78.6935 73.9724 78.6613C73.9724 78.6613 73.9724 78.6451 73.9724 78.629C73.9724 78.629 73.9562 78.629 73.924 78.5806C73.924 78.5645 73.924 78.5323 73.9079 78.5161C73.9079 78.4839 73.8756 78.4517 73.8595 78.4355C73.8917 78.4839 73.8917 78.4839 73.9079 78.5161C73.8595 78.3549 73.8111 78.2098 73.7789 78.0485C73.7789 78.0163 73.7789 78.0002 73.7789 77.9679C73.7789 77.8067 73.7789 77.6454 73.7789 77.468C73.7789 77.4197 73.7789 77.3874 73.7789 77.3391C73.8111 77.1778 73.8434 77.0004 73.8917 76.8392C73.8917 76.8069 73.9079 76.7586 73.924 76.7263C73.9401 76.6779 73.9724 76.6457 73.9885 76.5973C74.0207 76.5328 74.0691 76.4683 74.1175 76.4038C74.2304 76.291 74.3916 76.162 74.4883 76.0491C74.5528 76.0007 74.6335 75.9523 74.7141 75.904C74.7786 75.8717 74.8431 75.8395 74.9237 75.7911C75.1011 75.7266 75.2785 75.6782 75.4558 75.646C75.5203 75.646 75.6332 75.6298 75.6654 75.6298C75.7944 75.6298 75.9234 75.6298 76.0524 75.646C76.1976 75.6782 76.3427 75.7105 76.4878 75.7427C76.5039 75.7427 76.4878 75.7427 76.52 75.7427C76.5845 75.775 76.649 75.8072 76.7135 75.8395C76.7942 75.8878 76.8587 75.9362 76.9232 75.9685C77.036 76.0652 77.1328 76.1781 77.2295 76.2748C77.2618 76.3232 77.294 76.3716 77.3263 76.42C77.3908 76.5328 77.4553 76.6457 77.5036 76.7586C77.5198 76.8231 77.552 76.8714 77.5681 76.9359C77.6165 77.0811 77.6488 77.2423 77.681 77.3874C77.681 77.4197 77.681 77.4519 77.681 77.4842C77.681 77.6293 77.681 77.7744 77.681 77.9357C77.681 77.9195 77.681 77.9034 77.6971 77.8873C77.6971 77.9195 77.6971 77.9518 77.681 77.9679C77.681 78.0324 77.6649 78.0647 77.6488 78.0969C77.6488 78.1453 77.6165 78.2098 77.6004 78.2582C77.6004 78.3065 77.552 78.371 77.5359 78.4033C77.552 78.371 77.5681 78.3388 77.6165 78.2582C77.552 78.371 77.5036 78.5 77.4391 78.6129C77.3908 78.6774 77.3424 78.7419 77.3101 78.8064C77.3263 78.7741 77.3424 78.758 77.3424 78.7419C77.3101 78.7903 77.2618 78.8225 77.2295 78.8548C77.1005 78.9031 76.9554 79.016 76.8264 79.0966C76.7619 79.1128 76.6813 79.145 76.6168 79.1611C76.5039 79.1934 76.3427 79.2095 76.2137 79.2418C76.1331 79.2418 76.0363 79.2418 75.9557 79.2418C75.7783 79.2418 75.5848 79.2418 75.4074 79.2418H75.3752C75.4074 79.2418 75.4236 79.2418 75.4558 79.2579C75.3752 79.2418 75.2785 79.2256 75.1978 79.2095C75.0527 79.1773 74.9076 79.145 74.7625 79.1128C74.6818 79.0966 74.6012 79.0644 74.5206 79.0321C74.44 78.9676 74.2949 78.887 74.182 78.8225C74.1497 78.7903 74.1175 78.758 74.0852 78.7258C74.0852 78.7419 74.0852 78.7419 74.1014 78.7741C74.1014 78.758 74.0691 78.7258 74.0691 78.7096L74.0369 78.7741ZM74.1659 78.887C74.2787 78.9838 74.3594 78.9838 74.1659 78.887V78.887Z" fill="#68B43F"/>
<path d="M73.9727 78.6613C73.9727 78.6613 74.021 78.7419 74.0372 78.7741C74.0372 78.7741 74.0372 78.7741 74.0533 78.7903C73.9888 78.6451 73.9565 78.629 73.9565 78.6613H73.9727Z" fill="#68B43F"/>
<path d="M77.6487 78.1291C77.6487 78.1291 77.6487 78.0808 77.6648 78.0646C77.6648 78.0485 77.6648 78.0163 77.6648 78.0001C77.6648 78.0001 77.6648 77.984 77.6648 77.9679C77.6003 78.1453 77.6165 78.1775 77.6326 78.1291H77.6487Z" fill="#68B43F"/>
<path d="M77.3428 78.7741C77.4395 78.6774 77.4556 78.5645 77.3428 78.7741V78.7741Z" fill="#68B43F"/>
<path d="M75.3427 79.2901C75.1009 79.2257 75.2299 79.274 75.3427 79.2901V79.2901Z" fill="#68B43F"/>
<path d="M40.74 81.4025C40.74 81.4025 40.7562 81.4024 40.7884 81.4186C40.8368 81.4347 40.8851 81.4669 40.9335 81.4992C40.7884 81.4347 41.0625 81.5314 41.1109 81.5476C41.2399 81.5798 41.3689 81.6121 41.4979 81.6282C41.5624 81.6282 41.643 81.6282 41.7075 81.6443C41.9494 81.6604 42.2074 81.6766 42.4492 81.6766C42.546 81.6766 42.6589 81.6766 42.7556 81.6766C42.7878 81.6766 42.8523 81.6766 42.8685 81.6604C42.933 81.6604 42.9813 81.6282 43.0458 81.6282C43.1265 81.6121 43.2071 81.5798 43.3038 81.5476C43.3038 81.5476 43.3038 81.5476 43.32 81.5476C43.4328 81.4831 43.5457 81.4186 43.6586 81.3541C43.6586 81.3541 43.6908 81.3218 43.7069 81.3057C43.7392 81.2735 43.7714 81.2412 43.8037 81.209C43.8359 81.1767 43.8521 81.1606 43.8843 81.1283C43.8843 81.1283 43.9327 81.0638 43.9488 81.0477C43.9811 80.9832 44.0133 80.9348 44.0456 80.8703C44.0456 80.8703 44.0939 80.7736 44.1101 80.7413C44.1101 80.7091 44.1262 80.693 44.1262 80.6768C44.1262 80.6285 44.1584 80.5801 44.1746 80.5156C44.1746 80.4833 44.1746 80.4188 44.1907 80.4027C44.1907 80.3705 44.1907 80.3382 44.1907 80.306C44.1907 80.2092 44.1907 80.1286 44.1907 80.0319C44.1907 79.9996 44.1584 79.9029 44.1584 79.8867C44.1584 79.8384 44.1262 79.7739 44.1101 79.7255C44.1101 79.6932 44.0778 79.661 44.0778 79.6126C44.0778 79.5965 44.0294 79.532 44.0294 79.4998C43.9649 79.3869 43.9004 79.274 43.8359 79.1611C43.8037 79.1128 43.7714 79.0805 43.7392 79.0321C43.7392 79.0321 43.7392 79.0321 43.7069 78.9999C43.6425 78.9354 43.5941 78.8709 43.5296 78.8225C43.5296 78.8225 43.4973 78.7903 43.4812 78.7903C43.449 78.7741 43.4167 78.7419 43.3683 78.7258C43.3361 78.7096 43.3522 78.7258 43.3361 78.7096C43.2071 78.6613 43.0781 78.629 42.9491 78.6129C42.9168 78.6129 42.8362 78.5968 42.8201 78.5968C42.7878 78.5968 42.7395 78.5968 42.7072 78.5968C42.5782 78.5968 42.4492 78.5968 42.3202 78.5968C42.2557 78.5968 42.2074 78.5968 42.1429 78.5968C42.1429 78.5968 42.1106 78.5968 42.0945 78.5968C42.0945 78.5968 41.9816 78.5968 41.9655 78.6129C41.901 78.6129 41.8526 78.629 41.7881 78.6451C41.6753 78.6774 41.5624 78.7096 41.4495 78.7419C41.4173 78.7419 41.4173 78.7419 41.4011 78.758C41.3528 78.7741 41.3205 78.7903 41.2883 78.8225C41.1915 78.8709 41.0948 78.9515 40.9819 78.9999C40.9335 79.0483 40.9013 79.0805 40.8529 79.1128C40.8045 79.1611 40.7723 79.1934 40.7239 79.2418C40.6755 79.3546 40.5949 79.4675 40.5304 79.5642C40.5143 79.6126 40.4982 79.661 40.482 79.7255C40.4337 79.8706 40.4014 79.9996 40.3692 80.1447C40.3692 80.1931 40.353 80.2576 40.3369 80.306C40.3369 80.3221 40.3369 80.3866 40.3369 80.3866C40.3369 80.7575 40.4659 81.1122 40.7078 81.3702C40.7239 81.3863 40.7239 81.4025 40.74 81.4025Z" fill="#68B43F"/>
<path d="M51.43 80.0641C51.3817 79.8222 51.3333 79.5804 51.2688 79.3385C51.2204 79.0644 51.1559 78.8064 51.0592 78.5645C50.9624 78.3227 50.8495 78.0969 50.7205 77.8873C50.4787 77.4842 50.1723 77.0811 49.7853 76.6941C49.6402 76.549 49.479 76.4038 49.3177 76.2748C49.1565 76.1458 49.0113 76.0491 48.8823 75.9846C48.5115 75.775 48.1567 75.5815 47.7859 75.4041C47.5763 75.2912 47.3666 75.2106 47.157 75.13C46.9474 75.0494 46.7378 74.9849 46.4959 74.9204C46.4314 74.872 46.3508 74.8398 46.254 74.8075C46.1573 74.7753 46.0605 74.7591 45.9477 74.7591C45.8348 74.7108 45.7381 74.6946 45.6413 74.6946C45.5446 74.6946 45.4478 74.6785 45.3672 74.6301C45.1898 74.5818 45.0124 74.5495 44.8028 74.5334C44.5932 74.5173 44.4158 74.5011 44.2385 74.5011C43.8676 74.4366 43.4967 74.4366 43.1097 74.5011C42.5454 74.5011 42.0133 74.5495 41.5134 74.6463C41.0136 74.743 40.5459 74.9042 40.1106 75.1139C39.6107 75.2912 39.1754 75.5009 38.8045 75.7589C38.4336 76.0168 38.0628 76.3232 37.7241 76.6941C37.3855 77.0004 37.0792 77.3391 36.8373 77.7422C36.5954 78.1453 36.3536 78.5645 36.1439 79.016C35.9666 79.4836 35.8376 79.9674 35.7408 80.4511C35.6441 80.9348 35.5957 81.4669 35.5957 82.0152C35.5957 82.5634 35.628 83.0794 35.7086 83.5954C35.7892 84.1114 35.9343 84.6435 36.1439 85.2078C36.5148 86.3366 37.1275 87.1912 37.9821 87.7878C38.224 87.9974 38.4659 88.1748 38.7239 88.3199C38.9819 88.465 39.256 88.6101 39.5623 88.7552C40.0945 89.0132 40.6588 89.1906 41.2393 89.2712C41.3844 89.2712 41.5295 89.2712 41.6747 89.3035C41.8198 89.3196 41.9649 89.3357 42.1423 89.3357C42.2713 89.3841 42.4003 89.4002 42.5454 89.4002H42.9485C43.0614 89.4486 43.1581 89.4647 43.2549 89.4647H44.1095C44.2223 89.4164 44.3191 89.4002 44.4158 89.4002H44.9802C45.0931 89.4002 45.1898 89.3841 45.3027 89.3357C45.6091 89.2712 45.8993 89.2067 46.1895 89.1584C46.4798 89.11 46.77 89.0294 47.0441 88.9487C47.3505 88.8842 47.6408 88.7875 47.9149 88.6585C48.189 88.5295 48.4792 88.3844 48.7533 88.207C49.1242 87.949 49.4467 87.6749 49.7369 87.4008C50.0272 87.1267 50.2852 86.8042 50.5271 86.4333C50.9302 85.7238 51.2043 84.9498 51.3333 84.1114C51.3978 83.9824 51.4461 83.8373 51.4623 83.6599C51.4784 83.4825 51.5106 83.3213 51.559 83.1439C51.559 83.0149 51.559 82.8698 51.5913 82.7085C51.6074 82.5473 51.6235 82.4022 51.6235 82.2732C51.6719 81.9991 51.6719 81.7411 51.6558 81.4992C51.6396 81.2573 51.6074 81.0316 51.559 80.7897C51.5106 80.5478 51.4784 80.306 51.43 80.0641ZM39.4333 78.0002C40.2235 77.0488 41.5457 76.6457 42.7389 76.7424C43.6741 76.8231 44.4965 77.0972 45.1092 77.8389C45.6413 78.5161 46.0283 79.3224 46.0283 80.1931C46.0283 81.7572 44.8512 83.0955 43.3194 83.3858C42.5938 83.5148 41.8682 83.4664 41.1426 83.3696C40.3363 83.2568 39.6268 82.9504 39.127 82.2732C38.1918 81.0155 38.4498 79.1611 39.4172 78.0002H39.4333ZM48.4631 86.6591C48.3019 87.1105 47.8504 87.4169 47.3666 87.2879C46.9151 87.1589 46.5765 86.6429 46.7378 86.1914C46.77 86.0947 46.7861 85.9979 46.8184 85.8851C45.6252 86.2237 44.3997 86.4333 43.1742 86.4172C41.6908 86.4172 40.2235 86.0947 38.8206 85.611C38.3691 85.4497 38.0628 84.9982 38.1918 84.5145C38.3208 84.063 38.8367 83.7244 39.2882 83.8856C40.5459 84.321 41.8359 84.6274 43.1742 84.6274C44.5287 84.6274 45.8509 84.3371 47.1409 83.9179C47.1731 83.9179 47.1893 83.9179 47.2215 83.9179C47.286 83.2729 47.3183 82.644 47.3183 81.9991C47.3183 80.564 47.1409 79.0966 46.6733 77.726C46.512 77.2584 46.8506 76.7424 47.3021 76.6296C47.7859 76.5006 48.2535 76.7908 48.3986 77.2584C48.9146 78.7741 49.092 80.4188 49.1081 81.9991C49.1081 83.5631 48.9791 85.1917 48.4631 86.6591Z" fill="#68B43F"/>
</svg>
