<svg width="80" height="76" viewBox="0 0 80 76" fill="none" xmlns="http://www.w3.org/2000/svg">
<path d="M29.9201 49.736C30.9648 49.736 31.8117 48.8892 31.8117 47.8445C31.8117 46.7998 30.9648 45.9529 29.9201 45.9529C28.8754 45.9529 28.0286 46.7998 28.0286 47.8445C28.0286 48.8892 28.8754 49.736 29.9201 49.736Z" fill="#E5E5E5" stroke="#E5E5E5" stroke-width="1.5" stroke-miterlimit="10"/>
<path d="M48.9274 48.7301C49.9721 48.7301 50.819 47.8832 50.819 46.8385C50.819 45.7938 49.9721 44.947 48.9274 44.947C47.8828 44.947 47.0359 45.7938 47.0359 46.8385C47.0359 47.8832 47.8828 48.7301 48.9274 48.7301Z" fill="#E5E5E5" stroke="#E5E5E5" stroke-width="1.5" stroke-miterlimit="10"/>
<path d="M38.3077 48.1248C38.3077 48.1248 37.3779 49.5154 38.2155 51.0743" stroke="#E5E5E5" stroke-width="4.5" stroke-linecap="round" stroke-linejoin="round"/>
<path d="M4.24756 19.8277C4.24756 19.8277 23.0628 17.0225 44.7074 20.8416" stroke="#E5E5E5" stroke-width="5" stroke-linecap="round" stroke-linejoin="round"/>
<path d="M3.47424 35.1004C3.47424 35.1004 28.6815 32.1549 56.7902 34.7197" stroke="#E5E5E5" stroke-width="5" stroke-linecap="round" stroke-linejoin="round"/>
<path d="M12.01 56.769C12.3627 64.0867 16.0616 72.25 30.693 72.6067C30.693 72.6067 51.4079 74.883 61.1461 68.0221C61.1461 68.0221 67.6784 62.636 69.4457 56.769L72.7399 54.649C77.6811 51.9159 76.8315 47.0468 76.8315 47.0468C76.543 43.2356 70.3193 43.1755 70.3193 43.1755C72.3912 27.9189 69.1491 15.9244 69.1491 15.9244C63.1459 0.202969 5.89856 3.19658 5.89856 3.19658" stroke="#E5E5E5" stroke-width="5" stroke-linecap="round" stroke-linejoin="round"/>
<path d="M11.9982 56.7691L8.70406 54.6491C3.7628 51.916 4.61239 47.0469 4.61239 47.0469C4.90093 43.2357 11.1246 43.1756 11.1246 43.1756" stroke="#E5E5E5" stroke-width="5" stroke-linecap="round" stroke-linejoin="round"/>
<path d="M31.1282 60.9126C31.5155 62.0185 32.1662 62.8729 33.0805 63.4678C33.332 63.6794 33.5955 63.855 33.867 63.9948C34.1425 64.1345 34.4379 64.2782 34.7573 64.426C35.3282 64.6815 35.9231 64.8532 36.538 64.937C36.6977 64.937 36.8534 64.949 37.0011 64.9689C37.1488 64.9889 37.3165 65.0009 37.5001 65.0009C37.6359 65.0448 37.7796 65.0648 37.9273 65.0648H38.3545C38.4703 65.1087 38.5781 65.1286 38.6819 65.1286H39.5922C39.708 65.0847 39.8158 65.0648 39.9196 65.0648H40.5184C40.6342 65.0648 40.746 65.0448 40.8618 65.0009C41.1812 64.937 41.4966 64.8771 41.804 64.8252C42.1114 64.7733 42.4149 64.7014 42.7143 64.6176C43.0337 64.5537 43.3411 64.4579 43.6405 64.3301C43.936 64.2024 44.2354 64.0547 44.5309 63.883C44.9181 63.6275 45.2695 63.36 45.5769 63.0845C45.8843 62.809 46.1638 62.4896 46.4153 62.1263C46.8505 61.4236 47.1339 60.6571 47.2737 59.8267C47.3415 59.6989 47.3895 59.5512 47.4094 59.3795C47.4334 59.2078 47.4653 59.0402 47.5132 58.8685C47.5132 58.7407 47.5252 58.597 47.5492 58.4373C47.5731 58.2776 47.5851 58.1339 47.5851 58.0061C47.629 57.7306 47.641 57.4751 47.621 57.2396C47.5971 57.004 47.5651 56.7724 47.5172 56.5369C47.4693 56.3013 47.4254 56.0618 47.3815 55.8182C47.3336 55.5747 47.2777 55.3352 47.2098 55.0996C47.1619 54.8241 47.09 54.5686 46.9862 54.333C46.8824 54.0975 46.7626 53.8739 46.6269 53.6623C46.3754 53.2591 46.044 52.8638 45.6328 52.4805C45.4731 52.3328 45.3054 52.1931 45.1377 52.0653C44.966 51.9376 44.8103 51.8418 44.6746 51.7779C44.2873 51.5663 43.8961 51.3746 43.5088 51.203C43.2812 51.0952 43.0576 51.0073 42.842 50.9315C42.6265 50.8556 42.3909 50.7877 42.1394 50.7239C42.0715 50.68 41.9837 50.644 41.8839 50.6121C41.7801 50.5801 41.6723 50.5642 41.5565 50.5642C41.4407 50.5203 41.3329 50.5003 41.2291 50.5003C41.1253 50.5003 41.0295 50.4803 40.9376 50.4364C40.754 50.3925 40.5544 50.3606 40.3388 50.3406C40.1232 50.3206 39.9236 50.3087 39.7399 50.3087C39.3526 50.2448 38.9494 50.2448 38.5382 50.3087C37.9433 50.3087 37.3764 50.3566 36.8414 50.4524C36.3024 50.5482 35.8073 50.7039 35.3482 50.9155C34.8212 51.0872 34.3581 51.2988 33.9588 51.5543C33.5596 51.8098 33.1763 52.1172 32.809 52.4805C32.4417 52.78 32.1303 53.1233 31.8668 53.5186C31.6033 53.9138 31.3597 54.333 31.1282 54.7802C30.9445 55.2473 30.8008 55.7224 30.701 56.2015C30.5972 56.6806 30.5453 57.1956 30.5453 57.7506C30.5453 58.3055 30.5852 58.8046 30.6651 59.3156C30.7449 59.8267 30.9006 60.3577 31.1282 60.9126ZM35.1047 57.1757C35.1965 56.8563 35.2923 56.5648 35.3961 56.2973C35.4999 56.0298 35.6397 55.7903 35.8233 55.5787C36.007 55.3431 36.2106 55.1595 36.4421 55.0197C36.6697 54.88 36.9093 54.7602 37.1608 54.6524C37.4123 54.5446 37.6758 54.4728 37.9473 54.4289C38.2228 54.385 38.5062 54.365 38.8057 54.365C39.4245 54.365 40.0274 54.4289 40.6222 54.5566C40.734 54.6005 40.8458 54.6405 40.9496 54.6844C41.0534 54.7283 41.1492 54.7802 41.2411 54.8441C41.4247 54.908 41.6084 54.9918 41.788 55.0996C41.9956 55.2274 42.1314 55.3671 42.1993 55.5148C42.2911 55.5587 42.359 55.6146 42.4069 55.6905C42.4508 55.7663 42.5107 55.8342 42.5785 55.8981C42.6464 56.0059 42.7223 56.1257 42.8021 56.2654C42.882 56.4051 42.9459 56.5489 42.9898 56.6966C43.1055 57.0599 43.1774 57.3993 43.2133 57.7186C43.2493 58.038 43.2173 58.3774 43.1295 58.7407C43.0616 58.9763 42.9938 59.1998 42.9259 59.4114C42.858 59.623 42.7422 59.8466 42.5825 60.0822C42.2871 60.5293 41.9198 60.8487 41.4846 61.0404C41.3249 61.1043 41.1692 61.1681 41.0215 61.232C40.8738 61.2959 40.7181 61.3278 40.5584 61.3278C40.3747 61.3717 40.203 61.3917 40.0433 61.3917C39.8836 61.3917 39.712 61.4117 39.5283 61.4556C39.2089 61.4556 38.8815 61.4356 38.5502 61.3917C38.2188 61.3478 37.8914 61.2759 37.572 61.1681C36.6817 60.8487 36.007 60.3577 35.5478 59.6989C35.3642 59.3795 35.2165 58.9643 35.1007 58.4533C35.0328 58.0061 35.0328 57.5789 35.1007 57.1757H35.1047Z" fill="#E5E5E5"/>
<path d="M31.678 60.6918C32.0369 61.7237 32.6451 62.5164 33.4976 63.0697C33.7319 63.2692 33.9762 63.4337 34.2304 63.5583C34.4847 63.6879 34.7639 63.8225 35.058 63.9621C35.5914 64.2014 36.1448 64.3609 36.7181 64.4357C36.8676 64.4357 37.0122 64.4457 37.1468 64.4656C37.2864 64.4856 37.4409 64.4955 37.6104 64.4955C37.74 64.5354 37.8696 64.5553 38.0092 64.5553H38.4081C38.5127 64.5952 38.6174 64.6152 38.7122 64.6152H39.5596C39.6643 64.5753 39.769 64.5553 39.8637 64.5553H40.4221C40.5268 64.5553 40.6364 64.5354 40.7411 64.4955C41.0402 64.4357 41.3294 64.3809 41.6185 64.331C41.9077 64.2812 42.1868 64.2163 42.466 64.1366C42.7651 64.0768 43.0493 63.987 43.3285 63.8674C43.6027 63.7477 43.8818 63.6082 44.156 63.4536C44.5199 63.2143 44.844 62.97 45.1281 62.7108C45.4173 62.4516 45.6765 62.1575 45.9108 61.8185C46.3146 61.1654 46.5788 60.4525 46.7084 59.6798C46.7732 59.5602 46.8131 59.4206 46.8381 59.261C46.858 59.1015 46.8929 58.942 46.9328 58.7874C46.9328 58.6678 46.9427 58.5332 46.9627 58.3836C46.9826 58.2341 46.9926 58.0995 46.9926 57.9798C47.0375 57.7206 47.0474 57.4863 47.0225 57.267C47.0026 57.0476 46.9677 56.8332 46.9278 56.6139C46.8829 56.3945 46.843 56.1752 46.7982 55.9459C46.7533 55.7166 46.7035 55.4972 46.6386 55.2779C46.5938 55.0186 46.529 54.7843 46.4293 54.565C46.3345 54.3456 46.2199 54.1412 46.0953 53.9418C45.861 53.5679 45.5519 53.199 45.168 52.8401C45.0185 52.7005 44.8639 52.5709 44.7044 52.4512C44.5449 52.3316 44.4003 52.2419 44.2757 52.182C43.9117 51.9826 43.5528 51.8081 43.1889 51.6486C42.9745 51.5489 42.7701 51.4642 42.5657 51.3944C42.3613 51.3246 42.147 51.2598 41.9127 51.1999C41.8479 51.1601 41.7681 51.1252 41.6734 51.0953C41.5787 51.0654 41.474 51.0504 41.3693 51.0504C41.2646 51.0105 41.1599 50.9906 41.0652 50.9906C40.9705 50.9906 40.8807 50.9706 40.796 50.9308C40.6265 50.8909 40.437 50.861 40.2376 50.841C40.0332 50.8211 39.8488 50.8111 39.6793 50.8111C39.3154 50.7513 38.9465 50.7513 38.5626 50.8111C38.0092 50.8111 37.4808 50.856 36.9823 50.9457C36.4838 51.0354 36.0201 51.18 35.5964 51.3744C35.1078 51.534 34.6741 51.7334 34.3052 51.9677C33.9313 52.207 33.5774 52.4911 33.2384 52.8301C32.8994 53.1093 32.6053 53.4283 32.361 53.7972C32.1167 54.1662 31.8874 54.555 31.673 54.9738C31.5035 55.4075 31.3689 55.8512 31.2742 56.2948C31.1795 56.7385 31.1296 57.2221 31.1296 57.7356C31.1296 58.249 31.1645 58.7177 31.2393 59.1912C31.3141 59.6648 31.4587 60.1634 31.668 60.6768L31.678 60.6918ZM35.382 57.2121C35.4668 56.913 35.5565 56.6438 35.6512 56.3945C35.7459 56.1453 35.8805 55.9259 36.05 55.7265C36.2195 55.5072 36.414 55.3377 36.6233 55.2081C36.8377 55.0785 37.0571 54.9638 37.2914 54.8641C37.5257 54.7644 37.7699 54.6946 38.0242 54.6547C38.2784 54.6148 38.5476 54.5949 38.8218 54.5949C39.3951 54.5949 39.9585 54.6547 40.5118 54.7743C40.6165 54.8142 40.7212 54.8541 40.8159 54.894C40.9106 54.9339 41.0004 54.9837 41.0851 55.0436C41.2546 55.1034 41.4241 55.1831 41.5936 55.2828C41.783 55.4025 41.9127 55.5321 41.9775 55.6717C42.0622 55.7116 42.127 55.7664 42.1669 55.8362C42.2118 55.906 42.2616 55.9708 42.3264 56.0306C42.3912 56.1303 42.461 56.245 42.5358 56.3746C42.6106 56.5042 42.6704 56.6388 42.7103 56.7734C42.815 57.1124 42.8848 57.4265 42.9197 57.7256C42.9546 58.0247 42.9247 58.3388 42.8399 58.6778C42.7751 58.8971 42.7103 59.1065 42.6505 59.3009C42.5857 59.5003 42.481 59.7097 42.3314 59.9241C42.0522 60.3379 41.7133 60.637 41.3095 60.8164C41.1599 60.8763 41.0153 60.9361 40.8807 60.9959C40.7411 61.0557 40.5966 61.0856 40.452 61.0856C40.2825 61.1255 40.123 61.1455 39.9734 61.1455C39.8239 61.1455 39.6643 61.1654 39.4948 61.2053C39.1957 61.2053 38.8916 61.1853 38.5875 61.1455C38.2784 61.1056 37.9743 61.0358 37.6752 60.9361C36.8477 60.637 36.2195 60.1833 35.7908 59.5701C35.6213 59.271 35.4817 58.8872 35.377 58.4086C35.3122 57.9948 35.3122 57.596 35.377 57.2221L35.382 57.2121Z" fill="#E5E5E5"/>
</svg>
