<svg width="92" height="22" viewBox="0 0 92 22" fill="none" xmlns="http://www.w3.org/2000/svg">
<path d="M15.5608 13.6123C13.921 14.1236 12.2459 14.4587 10.5708 14.5997C10.6237 14.0884 10.659 13.577 10.6413 13.0657C10.6413 12.7307 10.6061 12.4133 10.5884 12.0783C12.1225 11.9725 13.6565 11.708 15.12 11.1614C15.1729 11.1437 15.2258 11.0908 15.2787 11.0732C15.6137 10.9498 15.8782 10.7206 16.0369 10.4208C16.0369 10.4208 16.0369 10.4208 16.0369 10.4032C16.0898 10.2974 16.1603 10.1916 16.1956 10.0682C16.1956 10.0153 16.1956 9.96236 16.2132 9.90947C16.2132 9.8742 16.2132 9.83894 16.2132 9.80367C16.4953 8.16385 16.513 6.48876 16.4953 4.83131C16.4953 4.02021 16.5835 3.12095 16.3719 2.32749C16.0898 1.26954 15.3139 0.599505 14.256 0.370283C13.2509 0.158693 12.1754 0.123428 11.1527 0.07053C10.2005 0 9.2131 0 8.22568 0C6.19794 0.035265 4.18784 0.246855 2.19536 0.599505C1.47243 0.722933 1.06688 1.49876 1.08452 2.20406C1.08452 2.20406 1.08452 2.2217 1.08452 2.23933C1.11978 3.87915 1.13741 5.51897 1.15505 7.1588C1.15505 7.95226 1.15505 8.74572 1.19031 9.52155C1.20794 10.2269 1.38427 10.8793 2.01904 11.2848C2.51275 11.6022 3.07699 11.6198 3.65886 11.6903C4.91077 11.849 6.18031 11.9901 7.46748 12.0783C7.52038 12.9246 7.52038 13.7886 7.44985 14.635C5.5808 14.5292 3.72939 14.2118 1.91324 13.6476C-0.00869958 13.0481 -0.819795 16.0632 1.08452 16.6451C6.05688 18.1967 11.4348 18.1791 16.4072 16.6098C18.3115 16.0103 17.5004 12.9952 15.5784 13.6123H15.5608ZM4.31126 9.55682C4.3289 9.66261 4.36416 9.69788 4.31126 9.55682V9.55682ZM4.62865 8.71046C4.50522 8.71046 4.39943 8.67519 4.276 8.67519C4.276 8.49887 4.276 8.30491 4.276 8.12858C4.276 7.44092 4.25837 6.75325 4.24073 6.08321C4.24073 5.21922 4.2231 4.3376 4.20547 3.4736C7.06193 3.08569 9.95366 3.06806 12.8278 3.33254C13.0217 3.35018 13.2157 3.36781 13.4096 3.38544C13.4096 4.00258 13.4096 4.63735 13.4273 5.25449C13.4273 6.31244 13.4273 7.47618 13.3215 8.48123C11.8756 8.88678 10.4121 9.06311 8.89571 9.04547C7.94356 9.04547 6.9914 8.97494 6.05688 8.88678C5.5808 8.83388 5.10473 8.78099 4.64628 8.72809L4.62865 8.71046Z" fill="#68B43F"/>
<path d="M34.0219 13.6124C29.5608 15.023 24.8353 15.0406 20.3567 13.6476C18.4347 13.0481 17.6236 16.0633 19.5279 16.6452C21.4851 17.2623 23.5305 17.6149 25.5583 17.7384C25.5583 17.9323 25.523 18.1263 25.523 18.3202C25.523 19.0608 25.6288 19.819 25.7522 20.5596C25.8227 20.9299 26.1578 21.3001 26.4751 21.4941C26.8102 21.688 27.3039 21.7762 27.6742 21.6528C28.0444 21.5294 28.4147 21.3001 28.6087 20.9299C28.8203 20.5419 28.8555 20.154 28.7674 19.7308C28.7674 19.6427 28.7321 19.5545 28.7321 19.4664C28.6616 18.9021 28.6616 18.3202 28.6792 17.756C30.7598 17.6326 32.8405 17.2623 34.8329 16.6275C36.7373 16.028 35.9262 13.0129 34.0042 13.63L34.0219 13.6124Z" fill="#68B43F"/>
<path d="M19.6337 9.45109C19.6161 10.1564 20.1451 10.7559 20.7798 10.9498C24.8706 12.2547 29.2787 12.3604 33.4223 11.2496C35.3619 10.7383 34.5332 7.7231 32.5936 8.25208C29.3492 9.11607 25.999 9.09844 22.7723 8.26971C22.7723 6.68278 22.7018 5.07822 22.6841 3.4913C26.2812 4.1966 29.8958 4.23186 33.5458 3.63236C34.3745 3.4913 34.8329 2.46861 34.639 1.71042C34.3921 0.828792 33.5634 0.493774 32.717 0.617202C28.9613 1.23434 25.2232 1.05801 21.5557 0.0529614C21.4851 0.0353289 21.4146 0.0529614 21.3441 0.0529614C21.2735 0.0529614 21.2206 0.0176964 21.1501 0.0176964C21.1148 0.0176964 21.0796 0.0353289 21.0443 0.0353289C20.9209 0.0353289 20.7975 0.0705939 20.6917 0.105859C20.6211 0.123491 20.533 0.158756 20.4624 0.194021C20.3919 0.229286 20.3214 0.282184 20.2508 0.335081C19.8806 0.617202 19.6161 1.05801 19.5984 1.55172C19.5103 4.17897 19.7571 6.78858 19.669 9.41582L19.6337 9.45109Z" fill="#68B43F"/>
<path d="M72.9899 13.7534C68.5289 15.164 63.8034 15.1816 59.3247 13.7887C57.4028 13.1892 56.5917 16.2043 58.496 16.7862C60.559 17.421 62.7102 17.7913 64.8613 17.897C64.8613 18.091 64.8261 18.2673 64.8261 18.4613C64.8261 19.2019 64.9319 19.96 65.0553 20.7006C65.1258 21.0709 65.4609 21.4412 65.7782 21.6351C66.1133 21.8291 66.607 21.9173 66.9772 21.7938C67.3475 21.6704 67.7178 21.4412 67.9118 21.0709C68.1234 20.683 68.1586 20.2951 68.0705 19.8719C68.0705 19.7837 68.0352 19.6956 68.0352 19.6074C67.9647 19.0255 67.9647 18.4613 67.9823 17.8794C69.9571 17.7384 71.9143 17.3681 73.8187 16.7686C75.723 16.1691 74.9119 13.1539 72.9899 13.771V13.7534Z" fill="#68B43F"/>
<path d="M58.8837 10.7558C58.919 11.4082 59.3422 12.043 59.9946 12.184C63.9619 13.0304 68.0703 13.048 72.0376 12.184C72.69 12.043 73.1132 11.4082 73.1484 10.7734C73.2542 10.5619 73.3424 10.3326 73.3424 10.0681C73.4834 7.26457 73.5892 4.44337 73.9419 1.6398C74.0477 0.82871 73.1484 0.0528795 72.3902 0.0881445C71.4557 0.12341 70.9444 0.775812 70.8386 1.6398C70.7504 2.38037 70.6975 3.12094 70.6446 3.8615C67.6118 4.40811 64.4909 4.40811 61.4581 3.8615C61.3876 3.1033 61.3523 2.3451 61.2641 1.58691C61.1583 0.775812 60.6117 -0.0176505 59.7125 0.035247C58.9543 0.070512 58.055 0.722915 58.1608 1.58691C58.5135 4.40811 58.6193 7.26457 58.7603 10.1034C58.7603 10.315 58.8308 10.5266 58.9014 10.7205L58.8837 10.7558ZM70.4154 7.07062C70.3801 7.82881 70.3272 8.58701 70.292 9.34521C67.4884 9.82129 64.6143 9.82129 61.8107 9.34521C61.7755 8.58701 61.7402 7.82881 61.6873 7.07062C64.579 7.4938 67.506 7.4938 70.3978 7.07062H70.4154Z" fill="#68B43F"/>
<path d="M90.8165 14.0884C90.7636 13.4536 90.3757 12.713 89.6704 12.5896C87.7484 12.237 85.7736 12.1664 83.834 12.1841C81.8768 12.1841 79.9196 12.3075 77.9976 12.6249C77.1689 12.7659 76.7105 13.7886 76.9044 14.5468C77.1513 15.4285 77.98 15.7635 78.8264 15.64C78.9145 15.64 79.0027 15.6048 79.1085 15.6048C79.1085 15.6048 79.1437 15.6048 79.179 15.6048C79.2495 15.6048 79.3377 15.5871 79.373 15.5871C79.4611 15.5871 79.5493 15.5695 79.6375 15.5519C80.0783 15.499 80.5191 15.4637 80.9775 15.4285C81.9473 15.3579 82.8995 15.3227 83.8693 15.3227C84.8038 15.3227 85.7559 15.3227 86.6905 15.3756C87.0607 15.3932 87.431 15.4285 87.7837 15.4637C87.7837 15.7811 87.8189 16.1161 87.8189 16.4335C86.567 16.363 85.2975 16.3277 84.0456 16.3277C82.2647 16.3277 80.4838 16.3806 78.7206 16.5393C77.8742 16.6098 77.1689 17.2093 77.1689 18.091C77.1689 18.8844 77.8918 19.7132 78.7206 19.6426C80.4838 19.5016 82.2647 19.4487 84.0456 19.431C85.2093 19.431 86.3907 19.4487 87.5545 19.5192C87.5545 19.5897 87.5192 19.6603 87.5016 19.7308C86.9726 21.6704 89.9701 22.4991 90.4991 20.5595C90.7107 19.8013 90.8165 19.0079 90.887 18.2144C90.887 18.1791 90.9223 18.1262 90.9223 18.091C90.9223 18.0733 90.9223 18.0557 90.9223 18.0381C91.0104 16.7156 90.9752 15.3932 90.8517 14.106L90.8165 14.0884Z" fill="#68B43F"/>
<path d="M79.1258 7.08835C79.1434 7.12362 79.1611 7.17652 79.1963 7.21178C79.1963 7.21178 79.1611 7.14125 79.1258 7.08835Z" fill="#68B43F"/>
<path d="M83.0755 11.0732C84.7506 10.5619 86.0025 9.25709 86.4433 7.6349C86.9371 7.58201 87.4484 7.58201 87.9421 7.59964C87.9421 7.59964 87.9421 7.59964 87.9421 7.61727C87.9421 7.70543 87.9068 8.28731 87.9245 7.82886C87.9245 8.446 87.6776 9.1513 87.466 9.73317C87.1839 10.5619 87.8011 11.6198 88.6474 11.8138C89.5819 12.0254 90.4107 11.5317 90.728 10.6324C91.2394 9.16893 91.3981 7.54674 91.3981 6.01271C91.3981 4.44342 91.1689 2.8036 90.6575 1.30483C90.3754 0.476107 89.4938 -0.158663 88.5769 0.123457C87.7482 0.387945 87.0958 1.30483 87.3955 2.20409C87.6071 2.83886 87.7658 3.49127 87.8716 4.1613C87.8716 4.17893 87.8716 4.2142 87.8716 4.23183C87.325 4.2142 86.796 4.23183 86.2494 4.2671C85.597 2.45095 84.1159 0.98745 82.1234 0.687697C82.0352 0.687697 81.9647 0.687697 81.8765 0.687697C81.806 0.687697 81.7531 0.652432 81.6649 0.6348C79.549 0.370312 77.1863 1.53406 76.2165 3.456C75.2114 5.43084 75.3525 7.98755 76.816 9.69791C77.5213 10.509 78.5969 10.9851 79.6372 11.179C80.7657 11.3906 81.9294 11.4083 83.0403 11.0732H83.0755ZM79.2846 7.37042C79.2846 7.37042 79.214 7.28225 79.214 7.24699C79.214 7.24699 79.214 7.22936 79.214 7.21172C79.214 7.21172 79.1964 7.21172 79.1611 7.15883C79.1611 7.14119 79.1611 7.10593 79.1435 7.0883C79.1435 7.05303 79.1082 7.01777 79.0906 7.00013C79.1259 7.05303 79.1259 7.05303 79.1435 7.0883C79.0906 6.91197 79.0377 6.75328 79.0024 6.57695C79.0024 6.54169 79.0024 6.52406 79.0024 6.48879C79.0024 6.31247 79.0024 6.13614 79.0024 5.94218C79.0024 5.88929 79.0024 5.85402 79.0024 5.80112C79.0377 5.6248 79.073 5.43084 79.1259 5.25452C79.1259 5.21925 79.1435 5.16635 79.1611 5.13109C79.1788 5.07819 79.214 5.04293 79.2317 4.99003C79.2669 4.9195 79.3198 4.84897 79.3727 4.77844C79.4961 4.65501 79.6725 4.51395 79.7783 4.39052C79.8488 4.33763 79.937 4.28473 80.0251 4.23183C80.0956 4.19657 80.1662 4.1613 80.2543 4.1084C80.4483 4.03787 80.6423 3.98498 80.8362 3.94971C80.9067 3.94971 81.0302 3.93208 81.0654 3.93208C81.2065 3.93208 81.3476 3.93208 81.4886 3.94971C81.6473 3.98498 81.806 4.02024 81.9647 4.05551C81.9823 4.05551 81.9647 4.05551 82 4.05551C82.0705 4.09077 82.141 4.12604 82.2116 4.1613C82.2997 4.2142 82.3702 4.2671 82.4408 4.30236C82.5642 4.40816 82.67 4.53158 82.7758 4.63738C82.8111 4.69028 82.8463 4.74317 82.8816 4.79607C82.9521 4.9195 83.0226 5.04293 83.0755 5.16635C83.0932 5.23688 83.1284 5.28978 83.1461 5.36031C83.199 5.519 83.2342 5.69533 83.2695 5.85402C83.2695 5.88929 83.2695 5.92455 83.2695 5.95982C83.2695 6.11851 83.2695 6.2772 83.2695 6.45353C83.2695 6.43589 83.2695 6.41826 83.2871 6.40063C83.2871 6.43589 83.2871 6.47116 83.2695 6.48879C83.2695 6.55932 83.2519 6.59459 83.2342 6.62985C83.2342 6.68275 83.199 6.75328 83.1813 6.80618C83.1813 6.85907 83.1284 6.9296 83.1108 6.96487C83.1284 6.9296 83.1461 6.89434 83.199 6.80618C83.1284 6.9296 83.0755 7.07066 83.005 7.19409C82.9521 7.26462 82.8992 7.33515 82.864 7.40568C82.8816 7.37042 82.8992 7.35278 82.8992 7.33515C82.864 7.38805 82.8111 7.42331 82.7758 7.45858C82.6347 7.51148 82.476 7.6349 82.335 7.72307C82.2644 7.7407 82.1763 7.77596 82.1058 7.7936C81.9823 7.82886 81.806 7.84649 81.6649 7.88176C81.5768 7.88176 81.471 7.88176 81.3828 7.88176C81.1889 7.88176 80.9773 7.88176 80.7833 7.88176H80.7481C80.7833 7.88176 80.8009 7.88176 80.8362 7.89939C80.748 7.88176 80.6423 7.86413 80.5541 7.84649C80.3954 7.81123 80.2367 7.77596 80.078 7.7407C79.9899 7.72307 79.9017 7.6878 79.8135 7.65254C79.7254 7.58201 79.5667 7.49384 79.4432 7.42331C79.408 7.38805 79.3727 7.35278 79.3375 7.31752C79.3375 7.33515 79.3374 7.33515 79.3551 7.37042C79.3551 7.35278 79.3198 7.31752 79.3198 7.29989L79.2846 7.37042ZM79.4256 7.51148C79.549 7.61727 79.6372 7.61727 79.4256 7.51148V7.51148Z" fill="#68B43F"/>
<path d="M79.2141 7.24694C79.2141 7.24694 79.267 7.33511 79.2847 7.37037C79.2847 7.37037 79.2847 7.37037 79.3023 7.388C79.2318 7.22931 79.1965 7.21168 79.1965 7.24694H79.2141Z" fill="#68B43F"/>
<path d="M83.2343 6.6651C83.2343 6.6651 83.2343 6.6122 83.2519 6.59457C83.2519 6.57694 83.2519 6.54167 83.2519 6.52404C83.2519 6.52404 83.2519 6.50641 83.2519 6.48877C83.1814 6.68273 83.199 6.718 83.2166 6.6651H83.2343Z" fill="#68B43F"/>
<path d="M82.8996 7.37036C83.0054 7.26457 83.023 7.14114 82.8996 7.37036V7.37036Z" fill="#68B43F"/>
<path d="M80.7128 7.93468C80.4483 7.86415 80.5894 7.91705 80.7128 7.93468V7.93468Z" fill="#68B43F"/>
<path d="M42.8738 10.2445C42.8738 10.2445 42.8914 10.2445 42.9267 10.2622C42.9796 10.2798 43.0325 10.3151 43.0854 10.3503C42.9267 10.2798 43.2264 10.3856 43.2793 10.4032C43.4204 10.4385 43.5614 10.4738 43.7025 10.4914C43.773 10.4914 43.8612 10.4914 43.9317 10.509C44.1962 10.5267 44.4783 10.5443 44.7428 10.5443C44.8486 10.5443 44.972 10.5443 45.0778 10.5443C45.1131 10.5443 45.1836 10.5443 45.2013 10.5267C45.2718 10.5267 45.3247 10.4914 45.3952 10.4914C45.4834 10.4738 45.5715 10.4385 45.6773 10.4032C45.6773 10.4032 45.6773 10.4032 45.695 10.4032C45.8184 10.3327 45.9418 10.2622 46.0652 10.1916C46.0652 10.1916 46.1005 10.1564 46.1181 10.1388C46.1534 10.1035 46.1887 10.0682 46.2239 10.033C46.2592 9.99769 46.2768 9.98006 46.3121 9.94479C46.3121 9.94479 46.365 9.87426 46.3826 9.85663C46.4179 9.7861 46.4532 9.7332 46.4884 9.66267C46.4884 9.66267 46.5413 9.55688 46.559 9.52161C46.559 9.48635 46.5766 9.46872 46.5766 9.45108C46.5766 9.39819 46.6119 9.34529 46.6295 9.27476C46.6295 9.23949 46.6295 9.16896 46.6471 9.15133C46.6471 9.11607 46.6471 9.0808 46.6471 9.04554C46.6471 8.93974 46.6471 8.85158 46.6471 8.74578C46.6471 8.71052 46.6119 8.60472 46.6119 8.58709C46.6119 8.53419 46.5766 8.46366 46.559 8.41077C46.559 8.3755 46.5237 8.34024 46.5237 8.28734C46.5237 8.26971 46.4708 8.19918 46.4708 8.16391C46.4003 8.04048 46.3297 7.91706 46.2592 7.79363C46.2239 7.74073 46.1887 7.70547 46.1534 7.65257C46.1534 7.65257 46.1534 7.65257 46.1181 7.6173C46.0476 7.54677 45.9947 7.47624 45.9242 7.42335C45.9242 7.42335 45.8889 7.38808 45.8713 7.38808C45.836 7.37045 45.8008 7.33518 45.7479 7.31755C45.7126 7.29992 45.7302 7.31755 45.7126 7.29992C45.5715 7.24702 45.4305 7.21176 45.2894 7.19412C45.2542 7.19412 45.166 7.17649 45.1484 7.17649C45.1131 7.17649 45.0602 7.17649 45.0249 7.17649C44.8839 7.17649 44.7428 7.17649 44.6017 7.17649C44.5312 7.17649 44.4783 7.17649 44.4078 7.17649C44.4078 7.17649 44.3725 7.17649 44.3549 7.17649C44.3549 7.17649 44.2315 7.17649 44.2138 7.19412C44.1433 7.19412 44.0904 7.21176 44.0199 7.22939C43.8964 7.26465 43.773 7.29992 43.6496 7.33518C43.6143 7.33518 43.6143 7.33518 43.5967 7.35282C43.5438 7.37045 43.5085 7.38808 43.4733 7.42335C43.3675 7.47624 43.2617 7.56441 43.1383 7.6173C43.0854 7.6702 43.0501 7.70547 42.9972 7.74073C42.9443 7.79363 42.909 7.82889 42.8561 7.88179C42.8032 8.00522 42.7151 8.12865 42.6445 8.23444C42.6269 8.28734 42.6093 8.34024 42.5916 8.41077C42.5387 8.56946 42.5035 8.71052 42.4682 8.86921C42.4682 8.92211 42.4506 8.99264 42.433 9.04554C42.433 9.06317 42.433 9.1337 42.433 9.1337C42.433 9.53925 42.574 9.92716 42.8385 10.2093C42.8561 10.2269 42.8561 10.2445 42.8738 10.2445Z" fill="#68B43F"/>
<path d="M54.546 8.78102C54.4931 8.51653 54.4402 8.25204 54.3697 7.98755C54.3168 7.6878 54.2463 7.40568 54.1405 7.14119C54.0347 6.87671 53.9113 6.62985 53.7702 6.40063C53.5057 5.95982 53.1707 5.519 52.7475 5.09582C52.5888 4.93713 52.4125 4.77844 52.2362 4.63738C52.0599 4.49632 51.9012 4.39052 51.7601 4.31999C51.3546 4.09077 50.9666 3.87918 50.5611 3.68522C50.3319 3.5618 50.1027 3.47363 49.8734 3.38547C49.6442 3.29731 49.415 3.22678 49.1505 3.15625C49.08 3.10335 48.9918 3.06809 48.886 3.03282C48.7802 2.99756 48.6744 2.97992 48.551 2.97992C48.4276 2.92703 48.3218 2.90939 48.216 2.90939C48.1102 2.90939 48.0044 2.89176 47.9162 2.83886C47.7223 2.78597 47.5283 2.7507 47.2991 2.73307C47.0699 2.71544 46.8759 2.6978 46.6819 2.6978C46.2764 2.62727 45.8709 2.62727 45.4477 2.6978C44.8305 2.6978 44.2487 2.7507 43.7021 2.8565C43.1554 2.96229 42.6441 3.13862 42.168 3.36784C41.6214 3.5618 41.1453 3.79102 40.7398 4.07314C40.3342 4.35526 39.9287 4.69028 39.5584 5.09582C39.1881 5.43084 38.8531 5.80112 38.5886 6.24194C38.3241 6.68275 38.0597 7.14119 37.8304 7.6349C37.6365 8.14625 37.4954 8.67522 37.3896 9.2042C37.2838 9.73317 37.2309 10.315 37.2309 10.9145C37.2309 11.5141 37.2662 12.0783 37.3544 12.6425C37.4425 13.2068 37.6012 13.7886 37.8304 14.4058C38.236 15.6401 38.906 16.5746 39.8405 17.227C40.105 17.4562 40.3695 17.6502 40.6516 17.8089C40.9337 17.9676 41.2335 18.1262 41.5685 18.2849C42.1504 18.5671 42.7675 18.761 43.4023 18.8492C43.561 18.8492 43.7197 18.8492 43.8784 18.8844C44.0371 18.9021 44.1958 18.9197 44.3897 18.9197C44.5308 18.9726 44.6718 18.9902 44.8305 18.9902H45.2713C45.3948 19.0431 45.5006 19.0608 45.6064 19.0608H46.5409C46.6643 19.0079 46.7701 18.9902 46.8759 18.9902H47.493C47.6165 18.9902 47.7223 18.9726 47.8457 18.9197C48.1807 18.8492 48.4981 18.7786 48.8155 18.7257C49.1329 18.6728 49.4502 18.5847 49.75 18.4965C50.085 18.426 50.4024 18.3202 50.7022 18.1791C51.0019 18.0381 51.3193 17.8794 51.619 17.6854C52.0246 17.4033 52.3772 17.1036 52.6946 16.8038C53.012 16.5041 53.2941 16.1514 53.5586 15.7459C53.9994 14.97 54.2992 14.1237 54.4402 13.2068C54.5108 13.0657 54.5637 12.907 54.5813 12.7131C54.5989 12.5191 54.6342 12.3428 54.6871 12.1488C54.6871 12.0078 54.6871 11.8491 54.7224 11.6727C54.74 11.4964 54.7576 11.3377 54.7576 11.1967C54.8105 10.8969 54.8105 10.6148 54.7929 10.3503C54.7753 10.0858 54.74 9.83897 54.6871 9.57448C54.6342 9.30999 54.5989 9.0455 54.546 8.78102ZM41.4275 6.52406C42.2915 5.48374 43.7373 5.04293 45.0421 5.14872C46.0648 5.23688 46.9641 5.53664 47.6341 6.34773C48.216 7.0883 48.6392 7.96992 48.6392 8.92208C48.6392 10.6324 47.352 12.0959 45.6769 12.4133C44.8834 12.5544 44.09 12.5015 43.2965 12.3957C42.4149 12.2723 41.6391 11.9372 41.0924 11.1967C40.0698 9.82133 40.3519 7.7936 41.4098 6.52406H41.4275ZM51.3193 16.0103C51.143 16.5041 50.6493 16.8391 50.1203 16.698C49.6266 16.557 49.2563 15.9927 49.4326 15.499C49.4679 15.3932 49.4855 15.2874 49.5208 15.164C48.216 15.5343 46.8759 15.7635 45.5358 15.7459C43.9136 15.7459 42.3091 15.3932 40.7751 14.8642C40.2813 14.6879 39.9463 14.1942 40.0874 13.6652C40.2285 13.1715 40.7927 12.8012 41.2864 12.9776C42.6617 13.4536 44.0723 13.7886 45.5358 13.7886C47.017 13.7886 48.4628 13.4713 49.8734 13.0128C49.9087 13.0128 49.9263 13.0128 49.9616 13.0128C50.0321 12.3075 50.0674 11.6198 50.0674 10.9145C50.0674 9.34526 49.8734 7.7407 49.3621 6.24194C49.1858 5.73059 49.556 5.16635 50.0498 5.04293C50.5787 4.90187 51.0901 5.21925 51.2488 5.73059C51.813 7.38805 52.007 9.18656 52.0246 10.9145C52.0246 12.6249 51.8835 14.4058 51.3193 16.0103Z" fill="#68B43F"/>
</svg>
