<svg width="56" height="56" viewBox="0 0 56 56" fill="none" xmlns="http://www.w3.org/2000/svg">
<g clip-path="url(#clip0_6_15)">
<path d="M9.88794 19.4494C9.88794 19.4494 19.4778 18.0211 30.5079 19.9655" stroke="white" stroke-width="2.11333" stroke-linecap="round" stroke-linejoin="round"/>
<path d="M9.49371 27.2337C9.49371 27.2337 22.3412 25.731 36.666 27.0408" stroke="white" stroke-width="2.11333" stroke-linecap="round" stroke-linejoin="round"/>
<path d="M13.8429 37.6004C14.0222 41.3301 15.9074 45.4896 23.3634 45.6724C23.3634 45.6724 33.9196 46.8333 38.8829 43.3354C38.8829 43.3354 42.2116 40.5906 43.1135 37.6004L44.7922 36.519C47.312 35.1246 46.8771 32.6455 46.8771 32.6455C46.7299 30.7028 43.5586 30.6724 43.5586 30.6724C44.6146 22.8982 42.9612 17.4627 42.9612 17.4627C39.9051 9.44827 10.7308 10.973 10.7308 10.973" stroke="white" stroke-width="2.11333" stroke-linecap="round" stroke-linejoin="round"/>
<path d="M22.9707 34.8606C23.5025 34.8606 23.9336 34.4295 23.9336 33.8978C23.9336 33.366 23.5025 32.9349 22.9707 32.9349C22.439 32.9349 22.0079 33.366 22.0079 33.8978C22.0079 34.4295 22.439 34.8606 22.9707 34.8606Z" fill="white" stroke="white" stroke-width="0.805507" stroke-miterlimit="10"/>
<path d="M32.657 34.348C33.1888 34.348 33.6199 33.9169 33.6199 33.3851C33.6199 32.8533 33.1888 32.4222 32.657 32.4222C32.1253 32.4222 31.6942 32.8533 31.6942 33.3851C31.6942 33.9169 32.1253 34.348 32.657 34.348Z" fill="white" stroke="white" stroke-width="0.805507" stroke-miterlimit="10"/>
<path d="M24.9016 38.7681C24.9016 38.7681 27.6701 42.9547 31.6418 38.5312" stroke="white" stroke-width="1.81143" stroke-linecap="round" stroke-linejoin="round"/>
<path d="M27.2453 34.0399C27.2453 34.0399 26.7714 34.749 27.1979 35.5427" stroke="white" stroke-width="1.81143" stroke-linecap="round" stroke-linejoin="round"/>
<path d="M13.8394 37.6004L12.1607 36.519C9.64091 35.1246 10.0758 32.6455 10.0758 32.6455C10.223 30.7028 13.3943 30.6723 13.3943 30.6723" stroke="white" stroke-width="2.11333" stroke-linecap="round" stroke-linejoin="round"/>
</g>
<defs>
<clipPath id="clip0_6_15">
<rect width="41" height="38" fill="white" transform="translate(7.5 9)"/>
</clipPath>
</defs>
</svg>
