<svg width="28" height="28" viewBox="0 0 28 28" fill="none" xmlns="http://www.w3.org/2000/svg">
<circle cx="10.9998" cy="9.99997" r="3" stroke="white" stroke-width="1.93514" stroke-linecap="round" stroke-linejoin="round"/>
<path d="M27 20.1096V3C27 1.89543 26.1046 1 25 1H3C1.89543 1 1 1.89543 1 3V22.5262M27 20.1096V25C27 26.1046 26.1046 27 25 27H3C1.89543 27 1 26.1046 1 25V22.5262M27 20.1096L22.0246 13.2505C21.2259 12.3101 19.7745 12.3102 18.9758 13.2505L12.8391 21.4761L7.841 16.8638C7.07959 16.1758 5.92084 16.176 5.15936 16.8638L1 22.5262" stroke="white" stroke-width="1.93514" stroke-linejoin="round"/>
</svg>
