<svg width="21" height="25" viewBox="0 0 21 25" fill="none" xmlns="http://www.w3.org/2000/svg">
<path d="M3.55781 12.8248L11.1614 16.0069L7.60349 24.5085L4.93401 20.6827L-7.97077e-05 21.3264L3.55781 12.8248Z" fill="#99857A"/>
<path d="M17.2221 12.8248L9.61854 16.0069L13.1764 24.5085L15.8459 20.6827L20.78 21.3264L17.2221 12.8248Z" fill="#99857A"/>
<circle cx="10.6186" cy="9.61863" r="8.61863" fill="#EEE4E0" stroke="#99857A" stroke-width="2"/>
<path d="M10.4707 13.0977C8.85938 13.0977 7.7168 12.209 7.69727 10.9395H9.37695C9.38672 11.4082 9.85547 11.7402 10.4805 11.7402C11.1055 11.7402 11.5547 11.3789 11.5449 10.8711C11.5547 10.3633 11.0762 9.99219 10.334 9.99219H9.65039V8.80078H10.334C10.9785 8.80078 11.4277 8.45898 11.4277 7.95117C11.4277 7.47266 11.0469 7.13086 10.4805 7.13086C9.9043 7.13086 9.44531 7.46289 9.43555 7.96094H7.83398C7.85352 6.71094 8.9668 5.83203 10.4902 5.83203C12.0039 5.83203 13.0391 6.70117 13.0293 7.85352C13.0391 8.64453 12.4531 9.20117 11.6426 9.31836V9.36719C12.7266 9.49414 13.3027 10.1191 13.293 10.998C13.3027 12.2188 12.1211 13.0977 10.4707 13.0977Z" fill="#99857A"/>
</svg>
