<svg width="21" height="25" viewBox="0 0 21 25" fill="none" xmlns="http://www.w3.org/2000/svg">
<path d="M3.55781 12.8248L11.1614 16.0069L7.60349 24.5085L4.93401 20.6827L-7.97077e-05 21.3264L3.55781 12.8248Z" fill="#999999"/>
<path d="M17.2221 12.8248L9.61855 16.0069L13.1764 24.5085L15.8459 20.6827L20.78 21.3264L17.2221 12.8248Z" fill="#999999"/>
<circle cx="10.6186" cy="9.61863" r="8.61863" fill="#E5E5E5" stroke="#999999" stroke-width="2"/>
<path d="M7.92676 13V11.7988L10.5049 9.5332C11.1006 8.98633 11.4424 8.625 11.4521 8.08789C11.4424 7.50195 11.0127 7.13086 10.417 7.13086C9.81152 7.13086 9.41113 7.51172 9.41113 8.15625H7.8291C7.8291 6.73047 8.87402 5.83203 10.4268 5.83203C12.0186 5.83203 13.0635 6.69141 13.0635 7.96094C13.0635 8.77148 12.6631 9.44531 11.1299 10.7832L10.2412 11.6035V11.6523H13.1514V13H7.92676Z" fill="#999999"/>
</svg>
