<svg width="23" height="23" viewBox="0 0 23 23" fill="none" xmlns="http://www.w3.org/2000/svg">
<mask id="path-1-inside-1_463_69074" fill="white">
<path d="M20.0698 0.200195C21.6175 0.200195 22.8725 1.45527 22.8726 3.00293V16.0459C22.8723 17.5934 21.6174 18.8486 20.0698 18.8486H16.3452L14.2632 21.8057C14.0882 22.054 13.8033 22.2021 13.4995 22.2021C13.2337 22.2021 12.982 22.0883 12.8062 21.8936L12.7358 21.8057L10.6538 18.8486H3.67334C2.12585 18.8486 0.870839 17.5933 0.870605 16.0459V3.00293C0.870639 1.45531 2.12573 0.20026 3.67334 0.200195H20.0698Z"/>
</mask>
<path d="M22.8726 3.00293H24.7408V3.00289L22.8726 3.00293ZM22.8726 16.0459L24.7408 16.0462V16.0459H22.8726ZM16.3452 18.8486V16.9804C15.7374 16.9804 15.1676 17.2761 14.8176 17.7731L16.3452 18.8486ZM14.2632 21.8057L15.7905 22.8816L15.7907 22.8812L14.2632 21.8057ZM13.4995 22.2021L13.4989 24.0704H13.4999L13.4995 22.2021ZM12.8062 21.8936L11.3473 23.0606C11.3705 23.0896 11.3946 23.118 11.4195 23.1455L12.8062 21.8936ZM12.7358 21.8057L11.2083 22.8812C11.2302 22.9124 11.2532 22.9429 11.277 22.9727L12.7358 21.8057ZM10.6538 18.8486L12.1814 17.7731C11.8314 17.2761 11.2616 16.9804 10.6538 16.9804V18.8486ZM3.67334 18.8486L3.67326 20.7169H3.67334V18.8486ZM0.870605 16.0459H-0.99762V16.0462L0.870605 16.0459ZM0.870605 3.00293L-0.99762 3.00289V3.00293H0.870605ZM3.67334 0.200195V-1.66803H3.67326L3.67334 0.200195ZM20.0698 0.200195V2.06842C20.5857 2.06842 21.0043 2.48703 21.0043 3.00297L22.8726 3.00293L24.7408 3.00289C24.7407 0.423504 22.6493 -1.66803 20.0698 -1.66803V0.200195ZM22.8726 3.00293H21.0043V16.0459H22.8726H24.7408V3.00293H22.8726ZM22.8726 16.0459L21.0043 16.0456C21.0043 16.5618 20.5853 16.9804 20.0698 16.9804V18.8486V20.7169C22.6494 20.7169 24.7404 18.625 24.7408 16.0462L22.8726 16.0459ZM20.0698 18.8486V16.9804H16.3452V18.8486V20.7169H20.0698V18.8486ZM16.3452 18.8486L14.8176 17.7731L12.7356 20.7301L14.2632 21.8057L15.7907 22.8812L17.8728 19.9242L16.3452 18.8486ZM14.2632 21.8057L12.7359 20.7298C12.9103 20.4822 13.1944 20.334 13.4992 20.3339L13.4995 22.2021L13.4999 24.0704C14.4121 24.0702 15.2662 23.6258 15.7905 22.8816L14.2632 21.8057ZM13.4995 22.2021L13.5001 20.3339C13.7679 20.334 14.0181 20.4481 14.1928 20.6416L12.8062 21.8936L11.4195 23.1455C11.9459 23.7285 12.6994 24.0701 13.4989 24.0704L13.4995 22.2021ZM12.8062 21.8936L14.265 20.7265L14.1947 20.6386L12.7358 21.8057L11.277 22.9727L11.3473 23.0606L12.8062 21.8936ZM12.7358 21.8057L14.2634 20.7301L12.1814 17.7731L10.6538 18.8486L9.12624 19.9242L11.2083 22.8812L12.7358 21.8057ZM10.6538 18.8486V16.9804H3.67334V18.8486V20.7169H10.6538V18.8486ZM3.67334 18.8486L3.67342 16.9804C3.15786 16.9804 2.73891 16.5617 2.73883 16.0456L0.870605 16.0459L-0.99762 16.0462C-0.997231 18.625 1.09385 20.7167 3.67326 20.7169L3.67334 18.8486ZM0.870605 16.0459H2.73883V3.00293H0.870605H-0.99762V16.0459H0.870605ZM0.870605 3.00293L2.73883 3.00297C2.73884 2.48715 3.1575 2.06844 3.67342 2.06842L3.67334 0.200195L3.67326 -1.66803C1.09395 -1.66792 -0.997563 0.423473 -0.99762 3.00289L0.870605 3.00293ZM3.67334 0.200195V2.06842H20.0698V0.200195V-1.66803H3.67334V0.200195Z" fill="white" mask="url(#path-1-inside-1_463_69074)"/>
<path d="M7.28906 6.9248H16.4548" stroke="white" stroke-width="1.86822" stroke-linecap="round"/>
<path d="M7.28906 12.5166H10.7699" stroke="white" stroke-width="1.86822" stroke-linecap="round"/>
<line x1="14.9146" y1="12.5044" x2="16.4573" y2="12.5044" stroke="white" stroke-width="1.86822" stroke-linecap="round"/>
</svg>
