<svg width="36" height="25" viewBox="0 0 36 25" fill="none" xmlns="http://www.w3.org/2000/svg">
<path d="M34.6109 5.44401C33.9436 1.61875 30.1204 1.44401 30.1204 1.44401C26.2951 0.881907 17.8741 0.881907 17.8741 0.881907C17.8741 0.881907 9.45304 0.881907 5.62778 1.44401C5.62778 1.44401 1.80252 1.61875 1.13725 5.44401C1.13725 5.44401 0.646729 9.12822 0.646729 12.8819C0.646729 16.6356 1.13725 20.3198 1.13725 20.3198C1.80462 24.1451 5.62778 24.3198 5.62778 24.3198C9.45304 24.8819 17.8741 24.8819 17.8741 24.8819C17.8741 24.8819 26.2951 24.8819 30.1204 24.3198C30.1204 24.3198 33.9457 24.1451 34.6109 20.3198C34.6109 20.3198 35.1015 16.6356 35.1015 12.8819C35.1015 9.12822 34.6109 5.44401 34.6109 5.44401Z" fill="#767676"/>
<path d="M23.3896 12.8819L14.5349 7.77033V17.9935L23.3896 12.8819Z" fill="white"/>
</svg>
