<svg width="13" height="13" viewBox="0 0 13 13" fill="none" xmlns="http://www.w3.org/2000/svg">
<g clip-path="url(#clip0_641_1277)">
<path d="M12.2483 7.49078C12.2483 8.08092 11.7699 8.55933 11.1797 8.55933H9.44901V1.25142H11.1797C11.7699 1.25142 12.2483 1.72982 12.2483 2.31997V7.49078Z" stroke="#68B43F" stroke-linejoin="round"/>
<path d="M12.2483 7.49078C12.2483 8.08092 11.7699 8.55933 11.1797 8.55933H9.44901V1.25142H11.1797C11.7699 1.25142 12.2483 1.72982 12.2483 2.31997V7.49078Z" stroke="#68B43F" stroke-linejoin="round"/>
<path d="M7.67041 12.1575L7.59843 12.6523L7.59868 12.6523L7.67041 12.1575ZM6.9585 11.8684L6.65211 12.2635L6.65228 12.2637L6.9585 11.8684ZM6.29639 11.0364L5.82773 11.2106L5.82777 11.2107L6.29639 11.0364ZM6.26514 9.65161L5.77495 9.55304L5.77494 9.5531L6.26514 9.65161ZM6.38916 9.17896L6.86616 9.32885C6.91389 9.17698 6.88644 9.01145 6.79224 8.88311C6.69804 8.75477 6.54836 8.67896 6.38916 8.67896V9.17896ZM2.89209 9.17896L2.89197 9.67896H2.89209V9.17896ZM1.33838 7.62524H0.838379V7.62548L1.33838 7.62524ZM1.854 6.47192L2.18884 6.84325C2.28869 6.75322 2.34807 6.62677 2.35358 6.49243C2.3591 6.3581 2.31028 6.22721 2.21815 6.12929L1.854 6.47192ZM1.33838 5.17505L0.838379 5.17482V5.17505H1.33838ZM1.81982 3.91821L2.19317 4.2508C2.37232 4.04969 2.35999 3.74282 2.16528 3.55674L1.81982 3.91821ZM1.33838 2.79614L0.838379 2.79605V2.79627L1.33838 2.79614ZM9.00049 1.24146L9.00058 0.741455H9.00049V1.24146ZM9.53467 1.77563H10.0347L10.0347 1.77525L9.53467 1.77563ZM9.53467 8.39478H9.03467C9.03467 8.44813 9.04321 8.50115 9.05997 8.55181L9.53467 8.39478ZM9.53955 8.40552L10.0177 8.25918L10.0175 8.25881L9.53955 8.40552ZM9.51416 8.7854L9.05844 8.57968C9.04767 8.60353 9.0388 8.62819 9.03189 8.65344L9.51416 8.7854ZM9.38721 9.01294L9.02508 8.66817C8.99443 8.70037 8.96821 8.73651 8.94711 8.77564L9.38721 9.01294ZM8.95068 10.1692L8.46945 10.0335L8.46944 10.0335L8.95068 10.1692ZM8.63818 11.5139L8.99174 11.8675C9.06142 11.7978 9.10895 11.7091 9.12838 11.6125L8.63818 11.5139ZM8.63721 11.5149L8.28365 11.1613C8.20961 11.2354 8.16068 11.3308 8.14377 11.4342L8.63721 11.5149ZM8.22314 12.0872L8.44108 12.5372L8.44132 12.537L8.22314 12.0872ZM7.67041 12.1575L7.74239 11.6627C7.65619 11.6501 7.55808 11.6215 7.46465 11.5823C7.36931 11.5423 7.29967 11.5002 7.26471 11.4731L6.9585 11.8684L6.65228 12.2637C6.87884 12.4392 7.24575 12.601 7.59843 12.6523L7.67041 12.1575ZM6.9585 11.8684L7.26488 11.4733C7.04507 11.3028 6.86331 11.1262 6.765 10.862L6.29639 11.0364L5.82777 11.2107C6.02393 11.7379 6.38381 12.0555 6.65211 12.2635L6.9585 11.8684ZM6.29639 11.0364L6.76504 10.8621C6.66706 10.5986 6.65421 10.2533 6.75534 9.75012L6.26514 9.65161L5.77494 9.5531C5.6564 10.1429 5.63775 10.6997 5.82773 11.2106L6.29639 11.0364ZM6.26514 9.65161L6.75532 9.75019C6.7841 9.60707 6.82247 9.46789 6.86616 9.32885L6.38916 9.17896L5.91216 9.02906C5.86163 9.18986 5.8128 9.36483 5.77495 9.55304L6.26514 9.65161ZM6.38916 9.17896V8.67896H2.89209V9.17896V9.67896H6.38916V9.17896ZM2.89209 9.17896L2.89221 8.67896C2.31043 8.67881 1.83865 8.20706 1.83838 7.62501L1.33838 7.62524L0.838379 7.62548C0.838915 8.75922 1.75787 9.67868 2.89197 9.67896L2.89209 9.17896ZM1.33838 7.62524H1.83838C1.83838 7.31616 1.97251 7.03833 2.18884 6.84325L1.854 6.47192L1.51917 6.1006C1.10428 6.47471 0.838379 7.01758 0.838379 7.62524H1.33838ZM1.854 6.47192L2.21815 6.12929C1.98214 5.87846 1.83838 5.54384 1.83838 5.17505H1.33838H0.838379C0.838379 5.81063 1.08779 6.38724 1.48985 6.81455L1.854 6.47192ZM1.33838 5.17505L1.83838 5.17528C1.83854 4.82132 1.97214 4.49891 2.19317 4.2508L1.81982 3.91821L1.44648 3.58563C1.07144 4.00663 0.838656 4.56247 0.838379 5.17482L1.33838 5.17505ZM1.81982 3.91821L2.16528 3.55674C1.96304 3.36346 1.83846 3.09445 1.83838 2.79601L1.33838 2.79614L0.838379 2.79627C0.838533 3.38108 1.08466 3.90725 1.47437 4.27968L1.81982 3.91821ZM1.33838 2.79614L1.83838 2.79623C1.83848 2.21397 2.31102 1.74146 2.89307 1.74146V1.24146V0.741455C1.75856 0.741455 0.838577 1.66182 0.838379 2.79605L1.33838 2.79614ZM2.89307 1.24146V1.74146H9.00049V1.24146V0.741455H2.89307V1.24146ZM9.00049 1.24146L9.0004 1.74146C9.01892 1.74146 9.03465 1.75672 9.03467 1.77602L9.53467 1.77563L10.0347 1.77525C10.0342 1.20486 9.57183 0.741554 9.00058 0.741455L9.00049 1.24146ZM9.53467 1.77563H9.03467V8.39478H9.53467H10.0347V1.77563H9.53467ZM9.53467 8.39478L9.05997 8.55181C9.0691 8.57942 9.07882 8.60089 9.08484 8.61347C9.08793 8.61992 9.09057 8.6251 9.09217 8.6282C9.09299 8.62978 9.09367 8.63108 9.09408 8.63186C9.09428 8.63225 9.09446 8.63259 9.09456 8.63279C9.09462 8.63288 9.09466 8.63298 9.09469 8.63303C9.09472 8.63309 9.09473 8.6331 9.09474 8.63312C9.09493 8.63348 9.09377 8.63129 9.09232 8.62843C9.09076 8.62539 9.08821 8.6203 9.08521 8.61386C9.07935 8.60127 9.07005 8.5799 9.06156 8.55222L9.53955 8.40552L10.0175 8.25881C10.0085 8.22926 9.99843 8.20608 9.99174 8.1917C9.98832 8.18437 9.98533 8.17839 9.98333 8.17447C9.98143 8.17073 9.97981 8.16766 9.97954 8.16715C9.97882 8.16578 9.97978 8.1676 9.98073 8.16944C9.98187 8.17165 9.98407 8.17596 9.98674 8.18152C9.99191 8.19232 10.0008 8.21199 10.0094 8.23774L9.53467 8.39478ZM9.53955 8.40552L9.06144 8.55185C9.06331 8.55796 9.06384 8.56772 9.05844 8.57968L9.51416 8.7854L9.96988 8.99112C10.0714 8.76614 10.0933 8.50634 10.0177 8.25918L9.53955 8.40552ZM9.51416 8.7854L9.03189 8.65344C9.02902 8.66394 9.02538 8.66785 9.02508 8.66817L9.38721 9.01294L9.74933 9.35771C9.86909 9.23192 9.95201 9.07971 9.99643 8.91736L9.51416 8.7854ZM9.38721 9.01294L8.94711 8.77564C8.75632 9.12947 8.59733 9.57994 8.46945 10.0335L8.95068 10.1692L9.43192 10.3049C9.5514 9.88113 9.68687 9.51069 9.82731 9.25024L9.38721 9.01294ZM8.95068 10.1692L8.46944 10.0335C8.32052 10.5618 8.21585 11.0778 8.14799 11.4154L8.63818 11.5139L9.12838 11.6125C9.19621 11.275 9.29444 10.7926 9.43193 10.3049L8.95068 10.1692ZM8.63818 11.5139L8.28463 11.1604L8.28365 11.1613L8.63721 11.5149L8.99076 11.8684L8.99174 11.8675L8.63818 11.5139ZM8.63721 11.5149L8.14377 11.4342C8.12644 11.5401 8.07486 11.6034 8.00497 11.6373L8.22314 12.0872L8.44132 12.537C8.83639 12.3455 9.06691 11.9852 9.13065 11.5956L8.63721 11.5149ZM8.22314 12.0872L8.00521 11.6372C7.93073 11.6732 7.83635 11.6763 7.74214 11.6626L7.67041 12.1575L7.59868 12.6523C7.77645 12.6781 8.1053 12.6998 8.44108 12.5372L8.22314 12.0872Z" fill="#68B43F"/>
<path d="M7.67041 12.1575L7.59843 12.6523L7.59868 12.6523L7.67041 12.1575ZM6.9585 11.8684L6.65211 12.2635L6.65228 12.2637L6.9585 11.8684ZM6.29639 11.0364L5.82773 11.2106L5.82777 11.2107L6.29639 11.0364ZM6.26514 9.65161L5.77495 9.55304L5.77494 9.5531L6.26514 9.65161ZM6.38916 9.17896L6.86616 9.32885C6.91389 9.17698 6.88644 9.01145 6.79224 8.88311C6.69804 8.75477 6.54836 8.67896 6.38916 8.67896V9.17896ZM2.89209 9.17896L2.89197 9.67896H2.89209V9.17896ZM1.33838 7.62524H0.838379V7.62548L1.33838 7.62524ZM1.854 6.47192L2.18884 6.84325C2.28869 6.75322 2.34807 6.62677 2.35358 6.49243C2.3591 6.3581 2.31028 6.22721 2.21815 6.12929L1.854 6.47192ZM1.33838 5.17505L0.838379 5.17482V5.17505H1.33838ZM1.81982 3.91821L2.19317 4.2508C2.37232 4.04969 2.35999 3.74282 2.16528 3.55674L1.81982 3.91821ZM1.33838 2.79614L0.838379 2.79605V2.79627L1.33838 2.79614ZM9.00049 1.24146L9.00058 0.741455H9.00049V1.24146ZM9.53467 1.77563H10.0347L10.0347 1.77525L9.53467 1.77563ZM9.53467 8.39478H9.03467C9.03467 8.44813 9.04321 8.50115 9.05997 8.55181L9.53467 8.39478ZM9.53955 8.40552L10.0177 8.25918L10.0175 8.25881L9.53955 8.40552ZM9.51416 8.7854L9.05844 8.57968C9.04767 8.60353 9.0388 8.62819 9.03189 8.65344L9.51416 8.7854ZM9.38721 9.01294L9.02508 8.66817C8.99443 8.70037 8.96821 8.73651 8.94711 8.77564L9.38721 9.01294ZM8.95068 10.1692L8.46945 10.0335L8.46944 10.0335L8.95068 10.1692ZM8.63818 11.5139L8.99174 11.8675C9.06142 11.7978 9.10895 11.7091 9.12838 11.6125L8.63818 11.5139ZM8.63721 11.5149L8.28365 11.1613C8.20961 11.2354 8.16068 11.3308 8.14377 11.4342L8.63721 11.5149ZM8.22314 12.0872L8.44108 12.5372L8.44132 12.537L8.22314 12.0872ZM7.67041 12.1575L7.74239 11.6627C7.65619 11.6501 7.55808 11.6215 7.46465 11.5823C7.36931 11.5423 7.29967 11.5002 7.26471 11.4731L6.9585 11.8684L6.65228 12.2637C6.87884 12.4392 7.24575 12.601 7.59843 12.6523L7.67041 12.1575ZM6.9585 11.8684L7.26488 11.4733C7.04507 11.3028 6.86331 11.1262 6.765 10.862L6.29639 11.0364L5.82777 11.2107C6.02393 11.7379 6.38381 12.0555 6.65211 12.2635L6.9585 11.8684ZM6.29639 11.0364L6.76504 10.8621C6.66706 10.5986 6.65421 10.2533 6.75534 9.75012L6.26514 9.65161L5.77494 9.5531C5.6564 10.1429 5.63775 10.6997 5.82773 11.2106L6.29639 11.0364ZM6.26514 9.65161L6.75532 9.75019C6.7841 9.60707 6.82247 9.46789 6.86616 9.32885L6.38916 9.17896L5.91216 9.02906C5.86163 9.18986 5.8128 9.36483 5.77495 9.55304L6.26514 9.65161ZM6.38916 9.17896V8.67896H2.89209V9.17896V9.67896H6.38916V9.17896ZM2.89209 9.17896L2.89221 8.67896C2.31043 8.67881 1.83865 8.20706 1.83838 7.62501L1.33838 7.62524L0.838379 7.62548C0.838915 8.75922 1.75787 9.67868 2.89197 9.67896L2.89209 9.17896ZM1.33838 7.62524H1.83838C1.83838 7.31616 1.97251 7.03833 2.18884 6.84325L1.854 6.47192L1.51917 6.1006C1.10428 6.47471 0.838379 7.01758 0.838379 7.62524H1.33838ZM1.854 6.47192L2.21815 6.12929C1.98214 5.87846 1.83838 5.54384 1.83838 5.17505H1.33838H0.838379C0.838379 5.81063 1.08779 6.38724 1.48985 6.81455L1.854 6.47192ZM1.33838 5.17505L1.83838 5.17528C1.83854 4.82132 1.97214 4.49891 2.19317 4.2508L1.81982 3.91821L1.44648 3.58563C1.07144 4.00663 0.838656 4.56247 0.838379 5.17482L1.33838 5.17505ZM1.81982 3.91821L2.16528 3.55674C1.96304 3.36346 1.83846 3.09445 1.83838 2.79601L1.33838 2.79614L0.838379 2.79627C0.838533 3.38108 1.08466 3.90725 1.47437 4.27968L1.81982 3.91821ZM1.33838 2.79614L1.83838 2.79623C1.83848 2.21397 2.31102 1.74146 2.89307 1.74146V1.24146V0.741455C1.75856 0.741455 0.838577 1.66182 0.838379 2.79605L1.33838 2.79614ZM2.89307 1.24146V1.74146H9.00049V1.24146V0.741455H2.89307V1.24146ZM9.00049 1.24146L9.0004 1.74146C9.01892 1.74146 9.03465 1.75672 9.03467 1.77602L9.53467 1.77563L10.0347 1.77525C10.0342 1.20486 9.57183 0.741554 9.00058 0.741455L9.00049 1.24146ZM9.53467 1.77563H9.03467V8.39478H9.53467H10.0347V1.77563H9.53467ZM9.53467 8.39478L9.05997 8.55181C9.0691 8.57942 9.07882 8.60089 9.08484 8.61347C9.08793 8.61992 9.09057 8.6251 9.09217 8.6282C9.09299 8.62978 9.09367 8.63108 9.09408 8.63186C9.09428 8.63225 9.09446 8.63259 9.09456 8.63279C9.09462 8.63288 9.09466 8.63298 9.09469 8.63303C9.09472 8.63309 9.09473 8.6331 9.09474 8.63312C9.09493 8.63348 9.09377 8.63129 9.09232 8.62843C9.09076 8.62539 9.08821 8.6203 9.08521 8.61386C9.07935 8.60127 9.07005 8.5799 9.06156 8.55222L9.53955 8.40552L10.0175 8.25881C10.0085 8.22926 9.99843 8.20608 9.99174 8.1917C9.98832 8.18437 9.98533 8.17839 9.98333 8.17447C9.98143 8.17073 9.97981 8.16766 9.97954 8.16715C9.97882 8.16578 9.97978 8.1676 9.98073 8.16944C9.98187 8.17165 9.98407 8.17596 9.98674 8.18152C9.99191 8.19232 10.0008 8.21199 10.0094 8.23774L9.53467 8.39478ZM9.53955 8.40552L9.06144 8.55185C9.06331 8.55796 9.06384 8.56772 9.05844 8.57968L9.51416 8.7854L9.96988 8.99112C10.0714 8.76614 10.0933 8.50634 10.0177 8.25918L9.53955 8.40552ZM9.51416 8.7854L9.03189 8.65344C9.02902 8.66394 9.02538 8.66785 9.02508 8.66817L9.38721 9.01294L9.74933 9.35771C9.86909 9.23192 9.95201 9.07971 9.99643 8.91736L9.51416 8.7854ZM9.38721 9.01294L8.94711 8.77564C8.75632 9.12947 8.59733 9.57994 8.46945 10.0335L8.95068 10.1692L9.43192 10.3049C9.5514 9.88113 9.68687 9.51069 9.82731 9.25024L9.38721 9.01294ZM8.95068 10.1692L8.46944 10.0335C8.32052 10.5618 8.21585 11.0778 8.14799 11.4154L8.63818 11.5139L9.12838 11.6125C9.19621 11.275 9.29444 10.7926 9.43193 10.3049L8.95068 10.1692ZM8.63818 11.5139L8.28463 11.1604L8.28365 11.1613L8.63721 11.5149L8.99076 11.8684L8.99174 11.8675L8.63818 11.5139ZM8.63721 11.5149L8.14377 11.4342C8.12644 11.5401 8.07486 11.6034 8.00497 11.6373L8.22314 12.0872L8.44132 12.537C8.83639 12.3455 9.06691 11.9852 9.13065 11.5956L8.63721 11.5149ZM8.22314 12.0872L8.00521 11.6372C7.93073 11.6732 7.83635 11.6763 7.74214 11.6626L7.67041 12.1575L7.59868 12.6523C7.77645 12.6781 8.1053 12.6998 8.44108 12.5372L8.22314 12.0872Z" fill="#68B43F"/>
</g>
<defs>
<clipPath id="clip0_641_1277">
<rect width="12" height="12" fill="white" transform="translate(0.783936 0.698486)"/>
</clipPath>
</defs>
</svg>
