<svg width="13" height="13" viewBox="0 0 13 13" fill="none" xmlns="http://www.w3.org/2000/svg">
<g clip-path="url(#clip0_641_990)">
<path d="M1.3385 5.52918C1.3385 4.93904 1.81691 4.46063 2.40705 4.46063H4.13779V11.7685H2.40705C1.81691 11.7685 1.3385 11.2901 1.3385 10.7V5.52918Z" stroke="#68B43F" stroke-linejoin="round"/>
<path d="M5.9165 0.862488L5.98848 0.367696L5.98823 0.36766L5.9165 0.862488ZM6.62842 1.15155L6.9348 0.75642L6.93463 0.756285L6.62842 1.15155ZM7.29053 1.98358L7.75918 1.80933L7.75914 1.80922L7.29053 1.98358ZM7.32178 3.36835L7.81196 3.46692L7.81198 3.46686L7.32178 3.36835ZM7.19775 3.841L6.72075 3.69111C6.67302 3.84298 6.70048 4.00851 6.79467 4.13685C6.88887 4.26519 7.03855 4.341 7.19775 4.341V3.841ZM10.6948 3.841L10.6949 3.341H10.6948V3.841ZM12.2485 5.39471H12.7485V5.39448L12.2485 5.39471ZM11.7329 6.54803L11.3981 6.17671C11.2982 6.26674 11.2388 6.39319 11.2333 6.52752C11.2278 6.66186 11.2766 6.79275 11.3688 6.89066L11.7329 6.54803ZM12.2485 7.84491L12.7485 7.84514V7.84491H12.2485ZM11.7671 9.10175L11.3937 8.76916C11.2146 8.97026 11.2269 9.27714 11.4216 9.46322L11.7671 9.10175ZM12.2485 10.2238L12.7485 10.2239V10.2237L12.2485 10.2238ZM4.58643 11.7785L4.58634 12.2785H4.58643V11.7785ZM4.05225 11.2443H3.55225L3.55225 11.2447L4.05225 11.2443ZM4.05225 4.62518H4.55225C4.55225 4.57182 4.5437 4.51881 4.52695 4.46815L4.05225 4.62518ZM4.04736 4.61444L3.56926 4.76078L3.56937 4.76115L4.04736 4.61444ZM4.07275 4.23456L4.52847 4.44028C4.53924 4.41643 4.54812 4.39177 4.55503 4.36652L4.07275 4.23456ZM4.19971 4.00702L4.56183 4.35179C4.59249 4.31959 4.61871 4.28345 4.63981 4.24432L4.19971 4.00702ZM4.63623 2.85077L5.11747 2.98646L5.11747 2.98644L4.63623 2.85077ZM4.94873 1.50604L4.59518 1.15249C4.5255 1.22217 4.47796 1.31089 4.45854 1.4075L4.94873 1.50604ZM4.94971 1.50507L5.30326 1.85862C5.37731 1.78457 5.42624 1.68915 5.44315 1.5858L4.94971 1.50507ZM5.36377 0.9328L5.14584 0.482795L5.1456 0.482911L5.36377 0.9328ZM5.9165 0.862488L5.84452 1.35728C5.93072 1.36982 6.02884 1.3985 6.12226 1.43766C6.2176 1.47763 6.28725 1.51973 6.32221 1.54682L6.62842 1.15155L6.93463 0.756285C6.70807 0.580769 6.34117 0.419002 5.98848 0.367696L5.9165 0.862488ZM6.62842 1.15155L6.32203 1.54668C6.54184 1.71712 6.7236 1.89372 6.82192 2.15795L7.29053 1.98358L7.75914 1.80922C7.56298 1.28203 7.2031 0.964461 6.9348 0.75642L6.62842 1.15155ZM7.29053 1.98358L6.82187 2.15783C6.91986 2.42137 6.9327 2.76665 6.83158 3.26983L7.32178 3.36835L7.81198 3.46686C7.93051 2.87704 7.94916 2.32029 7.75918 1.80933L7.29053 1.98358ZM7.32178 3.36835L6.83159 3.26977C6.80281 3.41288 6.76444 3.55207 6.72075 3.69111L7.19775 3.841L7.67476 3.9909C7.72529 3.8301 7.77412 3.65513 7.81196 3.46692L7.32178 3.36835ZM7.19775 3.841V4.341H10.6948V3.841V3.341H7.19775V3.841ZM10.6948 3.841L10.6947 4.341C11.2765 4.34115 11.7483 4.8129 11.7485 5.39495L12.2485 5.39471L12.7485 5.39448C12.748 4.26073 11.829 3.34128 10.6949 3.341L10.6948 3.841ZM12.2485 5.39471H11.7485C11.7485 5.7038 11.6144 5.98163 11.3981 6.17671L11.7329 6.54803L12.0677 6.91936C12.4826 6.54525 12.7485 6.00237 12.7485 5.39471H12.2485ZM11.7329 6.54803L11.3688 6.89066C11.6048 7.1415 11.7485 7.47612 11.7485 7.84491H12.2485H12.7485C12.7485 7.20932 12.4991 6.63272 12.0971 6.2054L11.7329 6.54803ZM12.2485 7.84491L11.7485 7.84468C11.7484 8.19864 11.6148 8.52104 11.3937 8.76916L11.7671 9.10175L12.1404 9.43433C12.5155 9.01333 12.7483 8.45749 12.7485 7.84514L12.2485 7.84491ZM11.7671 9.10175L11.4216 9.46322C11.6239 9.6565 11.7485 9.9255 11.7485 10.2239L12.2485 10.2238L12.7485 10.2237C12.7484 9.63888 12.5023 9.11271 12.1125 8.74027L11.7671 9.10175ZM12.2485 10.2238L11.7485 10.2237C11.7484 10.806 11.2759 11.2785 10.6938 11.2785V11.7785V12.2785C11.8284 12.2785 12.7483 11.3581 12.7485 10.2239L12.2485 10.2238ZM10.6938 11.7785V11.2785H4.58643V11.7785V12.2785H10.6938V11.7785ZM4.58643 11.7785L4.58651 11.2785C4.56799 11.2785 4.55226 11.2632 4.55225 11.2439L4.05225 11.2443L3.55225 11.2447C3.55268 11.8151 4.01508 12.2784 4.58634 12.2785L4.58643 11.7785ZM4.05225 11.2443H4.55225V4.62518H4.05225H3.55225V11.2443H4.05225ZM4.05225 4.62518L4.52695 4.46815C4.51781 4.44054 4.5081 4.41907 4.50208 4.40649C4.49899 4.40004 4.49634 4.39485 4.49475 4.39176C4.49393 4.39018 4.49325 4.38888 4.49284 4.3881C4.49263 4.3877 4.49245 4.38737 4.49235 4.38717C4.4923 4.38707 4.49225 4.38698 4.49222 4.38693C4.49219 4.38687 4.49218 4.38685 4.49218 4.38684C4.49198 4.38648 4.49315 4.38867 4.4946 4.39152C4.49615 4.39457 4.4987 4.39966 4.5017 4.4061C4.50756 4.41869 4.51686 4.44006 4.52536 4.46773L4.04736 4.61444L3.56937 4.76115C3.57844 4.7907 3.58848 4.81388 3.59518 4.82825C3.59859 4.83559 3.60158 4.84156 3.60358 4.84549C3.60548 4.84923 3.6071 4.8523 3.60737 4.85281C3.60809 4.85418 3.60713 4.85236 3.60618 4.85052C3.60504 4.84831 3.60284 4.844 3.60018 4.83844C3.59501 4.82764 3.58606 4.80797 3.57755 4.78222L4.05225 4.62518ZM4.04736 4.61444L4.52547 4.4681C4.5236 4.462 4.52307 4.45224 4.52847 4.44028L4.07275 4.23456L3.61704 4.02884C3.51547 4.25382 3.49361 4.51362 3.56926 4.76078L4.04736 4.61444ZM4.07275 4.23456L4.55503 4.36652C4.5579 4.35602 4.56153 4.3521 4.56183 4.35179L4.19971 4.00702L3.83758 3.66225C3.71782 3.78804 3.6349 3.94025 3.59048 4.10259L4.07275 4.23456ZM4.19971 4.00702L4.63981 4.24432C4.83059 3.89049 4.98958 3.44001 5.11747 2.98646L4.63623 2.85077L4.15499 2.71508C4.03551 3.13883 3.90004 3.50927 3.75961 3.76972L4.19971 4.00702ZM4.63623 2.85077L5.11747 2.98644C5.2664 2.45817 5.37107 1.94212 5.43892 1.60459L4.94873 1.50604L4.45854 1.4075C4.3907 1.74493 4.29247 2.22741 4.15499 2.7151L4.63623 2.85077ZM4.94873 1.50604L5.30228 1.8596L5.30326 1.85862L4.94971 1.50507L4.59615 1.15151L4.59518 1.15249L4.94873 1.50604ZM4.94971 1.50507L5.44315 1.5858C5.46048 1.47986 5.51205 1.41658 5.58194 1.38269L5.36377 0.9328L5.1456 0.482911C4.75053 0.674501 4.52 1.03481 4.45627 1.42433L4.94971 1.50507ZM5.36377 0.9328L5.5817 1.38281C5.65618 1.34674 5.75056 1.34366 5.84477 1.35732L5.9165 0.862488L5.98823 0.36766C5.81046 0.34189 5.48162 0.320179 5.14584 0.482795L5.36377 0.9328Z" fill="#68B43F"/>
</g>
<defs>
<clipPath id="clip0_641_990">
<rect width="12" height="12" fill="white" transform="translate(0.784058 0.306396)"/>
</clipPath>
</defs>
</svg>
